<svg width="91" height="87" viewBox="0 0 91 87" fill="none" xmlns="http://www.w3.org/2000/svg">
<g clip-path="url(#clip0_271_181)">
<path d="M87.6464 52.7072L84.5075 50.9745C85.0346 48.4679 85.3014 45.9578 85.3014 43.5C85.3014 41.0065 85.0389 38.494 84.5207 36.018L87.6464 34.2926C88.6144 33.7584 89.307 32.8955 89.5962 31.8633C89.8854 30.831 89.737 29.7528 89.178 28.8273L80.6301 14.6725C80.0711 13.747 79.1688 13.0849 78.089 12.8084C77.0092 12.5319 75.8815 12.6737 74.9133 13.2082L71.7851 14.9349C67.8336 11.6114 63.1832 9.03915 58.2329 7.43876V4.00098C58.2329 1.79482 56.3555 0 54.0479 0H36.9521C34.6445 0 32.7671 1.79482 32.7671 4.00098V7.43893C27.8432 9.03285 23.1991 11.6085 19.2331 14.9451L16.0865 13.2082C15.1183 12.6737 13.9905 12.5317 12.9108 12.8084C11.8311 13.0851 10.9287 13.747 10.3697 14.6725L1.82178 28.8273C1.26278 29.7528 1.11444 30.831 1.40365 31.8633C1.69285 32.8955 2.38541 33.7584 3.35347 34.2926L6.49234 36.0253C5.96558 38.532 5.69863 41.042 5.69863 43.5C5.69863 45.9932 5.96112 48.5057 6.47934 50.9818L3.35365 52.7072C1.35521 53.8103 0.668166 56.2619 1.82178 58.1727L10.3697 72.3275C11.5235 74.2379 14.0879 74.8949 16.0865 73.7918L19.2145 72.0651C23.1662 75.3886 27.8164 77.9609 32.7671 79.5614V82.999C32.7671 85.2052 34.6445 87 36.9521 87H54.0479C56.3555 87 58.2329 85.2052 58.2329 82.999V79.5611C63.157 77.9672 67.8011 75.3915 71.7671 72.0551L74.9135 73.7918C76.9117 74.8949 79.4765 74.2379 80.6303 72.3275L89.1782 58.1727C90.3318 56.2619 89.6448 53.8103 87.6464 52.7072ZM86.8648 56.8958L78.3168 71.0504C77.8996 71.7416 76.9719 71.9791 76.2491 71.5801L72.2615 69.379C71.7548 69.0993 71.1164 69.1676 70.6869 69.5474C66.61 73.1522 61.7049 75.872 56.5021 77.413C55.9429 77.5786 55.5616 78.0731 55.5616 78.6327V82.999C55.5616 83.797 54.8826 84.4462 54.0479 84.4462H36.9521C36.1174 84.4462 35.4384 83.797 35.4384 82.999V78.6329C35.4384 78.0732 35.0571 77.5788 34.4981 77.4131C29.2632 75.8626 24.352 73.1462 20.2951 69.5578C20.0421 69.3339 19.7164 69.2181 19.3878 69.2181C19.1588 69.2181 18.9285 69.2743 18.7204 69.3892L14.7509 71.5801C14.0279 71.979 13.1004 71.7415 12.6832 71.0504L4.13525 56.8958C3.718 56.2047 3.9666 55.3179 4.68926 54.9188L8.65551 52.7295C9.16197 52.4499 9.4193 51.8881 9.29055 51.3426C8.67955 48.7535 8.36986 46.1148 8.36986 43.5C8.36986 40.9292 8.68418 38.2929 9.30426 35.6646C9.43284 35.1192 9.17551 34.5572 8.66922 34.2778L4.68926 32.081C4.33915 31.8878 4.08877 31.5757 3.98406 31.2024C3.87952 30.829 3.93312 30.4389 4.13525 30.1042L12.6832 15.9494C12.8853 15.6147 13.2117 15.3752 13.6025 15.2752C13.9928 15.1751 14.401 15.2265 14.7511 15.4198L18.7387 17.6208C19.2455 17.9007 19.8838 17.8323 20.3133 17.4524C24.3903 13.8476 29.2952 11.1278 34.4981 9.58685C35.0573 9.4212 35.4385 8.92678 35.4385 8.36715V4.00098C35.4385 3.203 36.1176 2.55382 36.9522 2.55382H54.0481C54.8828 2.55382 55.5618 3.203 55.5618 4.00098V8.36715C55.5618 8.92678 55.9431 9.4212 56.5021 9.58685C61.7368 11.1372 66.648 13.8536 70.705 17.4422C71.1346 17.8222 71.773 17.8905 72.2798 17.6108L76.2493 15.4198C76.5996 15.2265 77.0075 15.1751 77.3979 15.2752C77.7884 15.3753 78.1149 15.6147 78.3172 15.9494L86.8651 30.1042C87.0672 30.4389 87.121 30.829 87.0163 31.2024C86.9116 31.5757 86.6612 31.8878 86.3111 32.081L82.3449 34.2703C81.8384 34.5499 81.5811 35.1119 81.7098 35.6572C82.3208 38.2461 82.6305 40.8847 82.6305 43.5C82.6305 46.0708 82.3162 48.7071 81.6961 51.3353C81.5675 51.8806 81.8249 52.4424 82.3311 52.722L86.3111 54.9188C87.0336 55.3179 87.2822 56.2047 86.8648 56.8958Z" fill="black"/>
<path d="M45.5 17.7065C30.6234 17.7065 18.5206 29.2775 18.5206 43.5C18.5206 57.7226 30.6234 69.2936 45.5 69.2936C60.3766 69.2936 72.4795 57.7226 72.4795 43.5C72.4795 29.2775 60.3766 17.7065 45.5 17.7065ZM45.5 66.7397C32.0965 66.7397 21.1918 56.3144 21.1918 43.5C21.1918 30.6857 32.0965 20.2603 45.5 20.2603C58.9035 20.2603 69.8082 30.6857 69.8082 43.5C69.8082 56.3144 58.9035 66.7397 45.5 66.7397Z" fill="black"/>
<path d="M50.4863 36.7749H45.5C44.7624 36.7749 44.1644 37.3466 44.1644 38.0518V48.9481C44.1644 49.6533 44.7624 50.225 45.5 50.225C46.2376 50.225 46.8356 49.6533 46.8356 48.9481V46.1389H50.4863C53.1867 46.1389 55.3836 44.0386 55.3836 41.4569C55.3836 38.8752 53.1867 36.7749 50.4863 36.7749ZM50.4863 43.5851H46.8356V39.3287H50.4863C51.7138 39.3287 52.7123 40.2833 52.7123 41.4569C52.7123 42.6305 51.7138 43.5851 50.4863 43.5851Z" fill="black"/>
<path d="M38.2025 37.6035C38.007 37.1052 37.5087 36.7749 36.9521 36.7749H35.5274C34.9707 36.7749 34.4723 37.105 34.2769 37.6035L30.0029 48.4998C29.7438 49.1601 30.0939 49.8961 30.7845 50.1438C31.4751 50.3915 32.245 50.0568 32.5041 49.3965L33.2474 47.5009H39.2319L39.9754 49.3964C40.1764 49.909 40.6854 50.2253 41.226 50.2253C41.3819 50.2253 41.5403 50.1991 41.6947 50.1438C42.3853 49.8962 42.7355 49.1601 42.4763 48.4998L38.2025 37.6035ZM34.2491 44.9471L36.2397 39.8723L38.2303 44.9471H34.2491Z" fill="black"/>
<path d="M58.3219 36.7749C57.5843 36.7749 56.9863 37.3466 56.9863 38.0518V48.9481C56.9863 49.6533 57.5843 50.225 58.3219 50.225C59.0595 50.225 59.6575 49.6533 59.6575 48.9481V38.0518C59.6575 37.3466 59.0595 36.7749 58.3219 36.7749Z" fill="black"/>
<path d="M55.0545 14.8632C55.9814 15.1457 56.9054 15.4737 57.8007 15.8381C57.9713 15.9075 58.1486 15.9404 58.3232 15.9404C58.8424 15.9404 59.3364 15.6489 59.5526 15.1634C59.8415 14.5145 59.5256 13.7645 58.8469 13.4884C57.8749 13.0929 56.872 12.7367 55.8654 12.4301C55.1629 12.2159 54.4114 12.5871 54.1874 13.2589C53.9635 13.9307 54.3517 14.649 55.0545 14.8632Z" fill="black"/>
<path d="M17.8884 57.8702C17.535 57.2512 16.7235 57.023 16.0762 57.3608C15.4287 57.6986 15.1901 58.4743 15.5434 59.0933C16.0976 60.0645 16.7111 61.0197 17.3668 61.9327C17.6257 62.2931 18.0436 62.4868 18.4689 62.4868C18.7294 62.4868 18.9926 62.4141 19.2238 62.2624C19.8319 61.8632 19.9863 61.0683 19.5687 60.487C18.9645 59.6456 18.3991 58.7652 17.8884 57.8702Z" fill="black"/>
<path d="M42.7647 73.4377C35.6077 72.8481 28.8142 69.883 23.6358 65.0883C23.1058 64.5976 22.2603 64.6107 21.7472 65.1172C21.2342 65.6239 21.2475 66.4323 21.7775 66.9228C27.396 72.1249 34.7681 75.3422 42.5353 75.982C42.5743 75.9852 42.6129 75.9868 42.6514 75.9868C43.3372 75.9868 43.9206 75.4847 43.9806 74.8195C44.0438 74.117 43.4994 73.4983 42.7647 73.4377Z" fill="black"/>
<path d="M64.7195 16.5635C64.1105 16.1656 63.2794 16.3151 62.8632 16.8972C62.447 17.4795 62.6034 18.2741 63.2122 18.672C69.4173 22.7262 73.9059 28.7592 75.8511 35.6593C76.0117 36.2289 76.551 36.6042 77.1399 36.6042C77.2549 36.6042 77.3719 36.5899 77.4882 36.5599C78.2005 36.3764 78.6222 35.6756 78.4302 34.9948C76.3196 27.507 71.4503 20.9614 64.7195 16.5635Z" fill="black"/>
</g>
<defs>
<clipPath id="clip0_271_181">
<rect width="91" height="87" fill="white"/>
</clipPath>
</defs>
</svg>
