<svg width="102" height="88" viewBox="0 0 102 88" fill="none" xmlns="http://www.w3.org/2000/svg">
<path fill-rule="evenodd" clip-rule="evenodd" d="M29.0806 18.8266C28.7287 15.8983 31.4718 17.1396 31.1214 18.9051C30.6066 19.3756 29.6557 18.9897 29.0806 18.8266ZM32.3458 18.2775C33.0367 18.2097 33.6953 18.1102 33.8971 17.5718C32.9414 17.0058 31.5134 18.4023 32.1009 19.0622C32.427 19.0356 32.1386 18.4187 32.3458 18.2775ZM23.2026 20.0815C23.778 19.8244 24.7232 19.9215 24.9988 19.3758C23.2863 18.8027 20.2024 19.2257 19.692 20.3169C20.9975 20.2394 22.0892 19.2441 23.2026 20.0815ZM19.3655 20.3956C18.9945 20.3207 18.8515 20.7256 19.0391 20.9443C19.329 20.9351 19.3677 20.6848 19.3655 20.3956ZM18.4674 21.9643C18.4152 21.2161 16.5314 20.6187 16.3451 21.6506C16.5081 22.2365 18.0275 22.6134 18.4674 21.9643ZM15.2839 21.2586C14.8948 21.276 14.6948 21.4772 14.4673 21.6506C14.7633 21.8164 15.4191 21.757 15.2839 21.2586ZM14.3045 23.376C15.7425 23.2789 16.1802 24.5493 17.4061 24.3956C17.6346 23.0282 14.7097 21.1472 14.3045 23.376ZM33.7335 30.1994C33.3048 28.8324 34.6176 27.659 33.815 26.5912C32.7038 26.6764 31.7427 31.6317 33.3253 31.6118C34.4617 31.5967 34.8623 28.5994 34.9577 27.6118C34.1258 28.0662 34.4882 29.6698 33.7335 30.1994ZM20.1004 29.651C20.1251 29.4437 19.9872 29.3932 19.7739 29.415C19.7792 29.6267 19.9603 29.7923 20.1004 29.651ZM24.1007 31.9255C24.1164 31.4395 24.0965 30.9882 23.6927 30.9059C23.3853 30.8724 23.4036 31.1511 23.2026 31.22C23.3148 31.6346 23.5427 31.9391 24.1007 31.9255ZM20.1821 34.4356C21.7473 34.6048 22.7954 35.6897 24.2638 35.6901C23.0928 34.9327 21.8762 34.2195 20.0187 34.1217C19.9595 34.3357 20.1809 34.2796 20.1821 34.4356ZM32.5091 35.612C32.3874 35.0751 32.1449 34.654 31.8563 34.2783C31.9625 34.8295 32.1089 35.3423 32.5091 35.612ZM23.5289 37.3373C22.5044 36.0201 20.872 34.8722 19.0391 34.592C19.2979 36.6961 21.7324 36.7112 23.5289 37.3373ZM20.7536 37.8076C20.054 36.6762 18.8545 36.0243 17.4061 35.612C18.2201 36.5839 18.9658 38.0325 20.7536 37.8076ZM16.9981 36.7101C17.2768 37.175 17.9775 37.6503 17.8147 38.2786C17.0989 38.0777 16.7509 37.5228 16.0186 37.3375C16.4075 37.8564 17.8916 40.1567 18.7939 40.0832C19.3698 40.0354 19.6302 39.4246 19.5286 38.436C19.0874 37.5259 17.6827 37.1243 16.9981 36.7101ZM21.1616 38.7493C21.3431 39.2288 21.4069 39.8208 22.0599 39.847C21.9487 39.3006 21.6164 38.9658 21.1616 38.7493ZM20.5901 38.9849C20.2857 38.953 20.1113 39.047 20.1006 39.2981C20.192 39.3153 20.2277 39.385 20.2635 39.4548C20.5245 39.4451 20.6233 39.2774 20.5901 38.9849ZM34.5499 40.7886C34.635 40.3453 34.7214 39.4912 34.5499 39.0628C34.4451 39.5035 34.0509 40.4946 34.5499 40.7886ZM28.8355 39.1413C28.8979 39.6049 28.6646 40.3516 29.0804 40.4754C29.0985 40.1322 29.1818 39.3593 28.8355 39.1413ZM32.6723 40.9455C32.4354 40.7438 32.0955 41.0487 31.9376 40.8674C31.7706 40.3481 31.8397 39.6022 31.3662 39.3769C31.3122 39.3769 31.2574 39.3769 31.2032 39.3769C30.5309 40.7149 30.5972 43.5892 31.7744 44.3179C31.9967 44.6799 32.0184 45.2342 32.5908 45.2596C33.0614 44.9007 33.1769 44.2023 33.244 43.455C32.2222 43.2489 33.1741 41.5567 32.6723 40.9455ZM35.1217 41.8078C35.2223 41.1134 35.8403 40.1033 35.3665 39.3769C35.2101 40.0643 34.9141 41.033 35.1217 41.8078ZM20.7536 42.4362C20.8837 42.0777 20.7815 41.4696 20.5086 41.2594C20.3181 41.6028 20.2074 42.3937 20.7536 42.4362ZM22.2229 42.7495C22.5526 42.9557 22.5779 43.4539 23.0395 43.5339C23.6138 42.8295 22.5243 41.5881 22.2229 42.7495ZM36.1827 44.3179C36.1833 44.5583 35.8554 44.8871 36.1012 45.1021C36.1484 44.9078 36.3969 44.5036 36.1827 44.3179ZM36.9172 47.377C36.9138 47.0148 36.9633 46.6018 36.7543 46.4362C36.7176 46.7155 36.5023 47.3339 36.9172 47.377ZM26.5497 50.5933C26.5981 50.8854 26.6477 51.1785 26.9577 51.2206C27.1579 50.9515 27.0101 50.4749 26.5497 50.5933ZM30.2233 50.9857C30.3368 51.1928 30.6632 51.6042 30.8761 51.4554C30.6873 51.3216 30.4693 50.8045 30.2233 50.9857ZM37.9785 51.8486C37.7492 52.7825 38.292 53.6333 38.7134 54.2015C38.8859 53.291 38.8698 51.9872 37.9785 51.8486ZM40.0199 57.8869C40.1432 57.6497 40.1868 56.9189 39.9382 56.7901C39.7232 57.0734 39.5316 57.7516 40.0199 57.8869ZM43.6927 61.6526C43.5745 61.0763 43.1046 60.4538 42.6318 60.4755C42.7972 61.0483 42.8259 61.7537 43.6927 61.6526ZM44.4282 62.7503C44.4316 63.1132 44.3826 63.5272 44.5911 63.6911C44.6017 63.3161 44.5961 62.9547 44.4282 62.7503ZM17.4878 62.829C17.489 63.1163 17.649 63.2493 17.8147 63.3781C17.7821 63.1211 17.7438 62.8713 17.4878 62.829ZM47.3671 67.1423C47.166 65.6633 46.3564 64.7681 45.3263 64.0842C45.4737 65.6149 46.2544 66.539 47.3671 67.1423ZM60.5107 74.9079C60.4611 74.8635 60.123 74.7249 60.1023 74.9079C60.225 74.9986 60.4462 75.1833 60.5107 74.9079ZM101.901 80.7121C101.901 81.0003 101.901 81.2869 101.901 81.5749C101.768 81.84 101.725 82.1903 101.655 82.5159C99.3853 83.9166 95.1204 83.401 93.2465 85.1831C89.96 83.4821 86.9056 86.1614 83.451 86.4386C82.8802 86.4837 82.2455 86.3924 81.6538 86.4386C79.6126 86.5969 77.6192 87.0555 75.5316 87.2226C73.391 87.3939 71.246 87.5194 69.001 87.615C68.184 87.615 67.3682 87.615 66.552 87.615C56.4267 87.1041 46.4156 85.7954 38.9586 82.5947C35.241 80.9988 31.819 79.0409 28.6726 76.7119C25.6106 74.4466 22.4675 71.9281 20.2635 69.1041C17.9171 66.0969 15.5695 63.1726 13.4877 59.8492C11.4794 56.6414 9.60215 53.2625 7.93668 49.4952C6.29372 45.7804 5.12311 42.1045 4.01765 37.5731C3.29508 34.6094 2.53247 31.2539 1.24213 28.4748C0.7397 27.3926 0.154794 26.5068 0.099411 25.4939C0.099411 25.259 0.099411 25.023 0.099411 24.7882C0.502032 21.4937 3.16877 19.5813 6.30368 18.6698C7.0886 18.4419 7.85181 18.2241 8.58952 17.807C8.63753 17.7804 9.10788 17.7343 8.91644 17.4935C7.51971 17.1706 6.37062 19.1463 4.83464 18.5916C3.47099 18.0989 4.25611 16.0704 5.73272 15.4542C6.42202 15.1665 7.79065 15.0917 8.42636 14.7483C9.52246 14.1565 10.0199 12.906 9.81451 11.7677C9.69279 11.0951 8.96624 10.741 8.99811 10.199C9.04274 9.44311 10.4494 8.78582 11.1204 8.31649C11.9414 7.74247 12.9132 7.02546 12.8349 6.1203C12.7524 5.17475 11.5949 4.87348 11.0387 4.15953C10.1655 3.03904 10.0271 1.36423 11.4467 0.707903C12.9351 0.0197971 15.708 0.394762 16.0186 2.19838C16.2923 3.78801 15.1177 4.39362 15.61 5.57096C16.5272 7.7618 23.6602 4.2939 21.8965 8.86545C23.4652 11.228 29.5953 9.20691 29.7336 12.9441C32.2904 12.9935 33.4654 14.8576 35.5297 15.611C36.0829 15.8127 36.7417 15.8127 37.3258 16.003C40.8074 17.1399 45.1217 18.3596 46.5507 21.5719C45.2593 22.4078 43.497 21.8481 41.9794 21.3367C40.6592 20.8913 38.7347 20.0093 37.4075 20.5521C36.0917 21.0906 36.162 23.2506 36.3463 25.4148C36.8363 31.1765 37.1238 37.1195 37.9787 42.2785C39.1726 49.4797 41.7246 55.2474 45.3265 59.7699C48.8108 64.1453 52.9041 68.727 58.2245 71.9277C62.7139 74.6275 67.7577 76.7576 74.1441 78.1235C75.0911 78.3266 76.236 78.7699 76.7562 78.6726C77.5274 78.5302 79.1869 76.3756 79.7776 75.8494C81.1818 74.5949 83.0714 72.8397 85.083 74.3585C84.8096 76.4497 82.8595 76.9297 82.3889 78.8302C83.5984 79.5696 84.8809 78.9002 86.3896 78.9862C88.1451 79.0865 89.4913 80.0536 90.9619 79.849C91.9004 79.7185 92.3702 79.0468 93.0842 78.5946C94.7062 80.8729 100.96 77.907 101.901 80.7121ZM84.1847 74.9079C84.15 74.6548 84.2924 74.2297 84.0217 74.2027C83.7862 74.3174 83.5536 75.0384 84.1847 74.9079ZM43.1223 19.6895C43.922 20.1496 44.626 20.7024 45.3263 21.2588C45.7478 20.0662 44.5379 19.3032 43.1223 19.3759C43.1223 19.4801 43.1223 19.5848 43.1223 19.6895ZM65.0824 77.4963C65.3938 77.5592 65.6191 77.6189 65.6539 77.2614C65.3631 77.2432 65.1653 77.3133 65.0824 77.4963ZM53.8162 70.5936C53.7887 70.963 54.5642 70.9701 54.715 70.9073C54.5873 70.6621 54.2005 70.3438 53.8162 70.5936ZM51.8568 69.1037C51.9927 69.2357 52.3364 69.1657 52.5916 69.1823C52.6189 68.895 52.5003 68.7463 52.4284 68.5543C51.9993 68.5092 51.8808 68.7605 51.8568 69.1037ZM36.1827 37.0232C35.9612 36.8429 35.8004 37.1733 35.6928 37.0232C35.9588 35.0774 36.3861 32.0815 35.5297 30.4354C35.3179 30.2578 34.9828 30.4978 34.8768 30.3565C35.4468 29.0492 35.8317 26.3227 35.6114 24.7093C35.5339 24.1406 35.2265 23.1292 34.8768 22.9053C33.9983 22.3433 33.1988 23.2069 32.5906 23.376C32.2079 23.4831 31.7824 23.4066 31.3662 23.454C29.7201 23.6447 27.9733 24.1163 26.8764 24.6304C27.4482 24.9966 28.2586 25.1327 28.5088 25.8068C27.0864 25.7102 25.9767 25.3124 24.7533 25.0228C24.8838 26.7924 22.6251 26.2379 21.2433 26.3565C21.7206 26.3665 21.7971 26.5881 21.8149 26.9053C21.8716 27.9464 18.306 29.1802 17.0798 28.3962C15.3309 29.7509 17.8494 31.1348 17.7329 32.867C17.389 33.1118 17.2302 33.5341 16.9165 33.8074C15.1783 33.848 13.35 34.1839 13.6505 35.9255C13.4156 35.7938 13.045 35.706 12.7524 35.8466C12.3081 36.9463 13.054 38.1399 14.0591 38.3571C14.3123 38.2863 14.3712 38.0296 14.7121 38.0434C16.9824 38.4605 17.7817 39.9071 17.6512 42.6705C17.6285 43.1463 17.6777 43.7672 17.3247 44.0829C16.0363 43.9981 14.8418 40.9428 16.9163 40.8672C16.4188 40.164 16.0421 39.1149 15.1201 39.1411C14.0633 39.1714 13.5889 40.7761 12.8343 41.3375C13.922 41.915 16.4766 43.5086 14.3852 44.5533C15.4205 44.7024 15.9983 45.0969 16.426 45.6509C17.1388 46.5757 17.1161 47.9615 17.6508 48.7105C18.7327 50.2268 19.3039 47.3503 20.5893 48.553C20.8929 48.6533 20.4556 48.2697 20.4261 48.24C19.3234 47.0962 17.6416 46.1587 16.9975 44.7888C17.4926 44.5708 18.1562 44.8087 18.6299 44.8669C18.8172 43.9454 18.1508 42.9026 18.3851 42.1994C18.5538 41.6953 18.8652 41.9173 19.2017 41.7293C19.3995 41.6187 19.2447 41.2068 19.6101 41.3373C19.6079 42.4142 18.9326 44.2264 19.6912 45.0236C20.799 45.2146 21.119 43.3842 22.0591 43.3766C22.5842 43.3722 23.0805 44.2603 23.4467 44.7099C23.8865 45.2495 24.4844 45.9125 24.3447 46.5135C24.0507 47.7806 21.8358 46.8159 21.0793 46.2781C21.5403 48.0364 24.377 48.3093 24.5079 50.593C24.5228 50.8477 24.389 51.1731 24.4264 51.4551C24.5868 52.6602 25.7564 53.5557 26.9569 52.7892C27.1334 53.2214 27.1565 53.8007 27.6105 53.9655C28.0082 53.6424 27.8669 52.8001 28.1 52.3179C29.5244 52.6045 30.2681 53.2635 30.7122 54.3572C30.9321 54.8983 30.8753 55.9012 31.7734 55.9259C31.9109 54.5888 30.8203 53.7602 30.6309 52.4747C31.3626 53.609 34.0021 54.8363 33.8965 56.632C33.8264 57.8164 32.3613 57.9453 30.9574 58.1221C32.2954 58.5639 32.8558 60.0036 34.3045 60.4749C34.6938 60.6024 35.1938 60.4933 35.6106 60.6324C36.6706 60.9867 38.3656 63.0746 37.8968 64.3974C35.6381 65.4911 33.8758 62.535 31.3656 62.5938C32.424 63.8903 34.1555 64.3218 35.6108 64.9467C37.177 65.6185 38.7453 66.3068 40.2641 66.9858C43.8445 68.5857 46.3297 70.6791 48.6729 73.3391C47.0471 74.1909 42.1192 72.7741 45.0808 71.7696C44.0507 71.7361 42.9603 71.1153 42.0599 71.4568C42.5372 74.4496 46.6355 73.9633 49.7342 74.4368C49.4521 74.9502 49.0544 75.3529 48.7542 75.8488C48.9931 75.9842 49.3232 76.0335 49.7342 76.0056C49.5357 76.3113 49.0192 76.312 48.9991 76.7896C49.3959 77.2974 50.1814 77.4319 50.7135 77.8092C52.8115 76.3637 53.0468 79.6431 54.3871 79.6917C55.6538 79.7371 55.8966 77.9884 57.1634 77.8092C56.8451 78.4453 56.2221 78.7875 55.939 79.4568C57.1794 79.1688 57.533 78.5272 58.5502 78.2797C62.1955 77.3937 65.1838 80.3109 68.1834 80.6334C69.262 80.7488 70.3342 81.3307 71.2859 81.4963C72.5162 81.7095 73.2727 81.3204 74.2245 80.869C72.7748 79.5684 69.4461 80.0749 68.2655 78.5153C68.3111 78.2456 68.5032 78.1166 68.6739 77.9669C64.8529 78.7733 62.4471 76.5733 60.8366 74.5157C56.1227 73.3458 51.9871 71.6191 49.9784 67.8488C49.882 67.4938 50.3404 67.6737 50.224 67.2995C48.5667 65.5276 46.9102 63.7288 45.5707 61.652C45.1077 60.935 44.7908 60.0339 44.2642 59.456C43.9307 59.0899 43.3711 58.8883 43.0398 58.5143C42.677 58.1043 42.6276 57.591 42.0597 57.4168C41.8413 57.7295 41.9877 58.3926 41.8152 58.7499C41.4226 57.2353 40.5478 55.7969 38.8763 55.7692C38.8453 54.6676 39.7714 54.4862 40.2639 53.8867C39.6157 53.1377 39.4595 52.1945 39.1212 51.0634C38.2988 48.315 37.6193 45.4439 36.9166 42.9057C35.9855 43.2397 35.7387 44.2314 35.2842 45.0236C35.3291 43.8905 35.3842 42.7666 36.0192 42.1994C36.3094 42.2344 36.3413 42.5179 36.5086 42.6703C36.662 42.1359 37.1884 41.6374 36.9166 40.9449C36.7059 40.6322 36.0897 40.778 35.9375 40.7882C36.3403 39.8409 36.6786 38.1217 36.1827 37.0232ZM69.0008 83.5363C69.7066 83.2465 70.342 82.8899 70.6328 82.2022C69.8656 82.3869 68.7839 82.6654 69.0008 83.5363ZM69.0821 81.9673C68.61 82.2186 68.0788 82.4154 67.7764 82.8302C68.4532 82.869 69.2461 82.2163 69.0821 81.9673ZM66.5518 83.1437C67.014 83.0252 67.5087 82.5666 67.4499 82.2022C66.9132 82.2539 66.0831 82.6216 66.5518 83.1437ZM66.8783 81.3393C66.1436 81.1163 65.5438 81.6689 65.4898 82.3597C66.1444 82.2037 66.5875 81.8448 66.8783 81.3393ZM64.5919 81.4968C63.8743 81.6171 63.3376 81.9107 63.1223 82.5157C63.9994 82.8501 64.4485 82.1258 64.5919 81.4968ZM63.4494 83.5363C63.6516 83.5474 63.8452 83.5504 63.8578 83.3788C63.7353 83.2543 63.3922 83.2639 63.4494 83.5363ZM64.7559 80.1629C63.6135 80.0787 62.2473 80.7909 62.9597 81.7317C63.7203 81.364 64.4907 81.0067 64.7559 80.1629ZM59.1224 81.6538C59.8358 81.7501 60.0222 80.9661 60.5109 81.1037C60.7944 81.2756 60.6221 81.8862 61.0817 81.8886C62.1495 81.68 62.534 80.2801 61.8979 79.3003C60.4587 79.5435 59.1421 80.3046 59.1224 81.6538ZM59.4487 79.6144C59.0154 79.8253 58.554 80.0085 58.3064 80.3984C58.8405 80.3762 59.6359 79.8102 59.4487 79.6144ZM57.1638 80.0067C57.2095 80.2154 56.8275 80.4056 57.081 80.5551C57.1489 80.4566 57.5782 80.0688 57.1638 80.0067ZM55.6942 81.8885C55.6685 81.9953 55.5775 82.0381 55.6131 82.2022C55.7209 82.2022 55.8303 82.2022 55.9396 82.2022C55.9618 81.9968 55.9088 81.8653 55.6942 81.8885ZM54.4698 81.4968C54.0572 81.5191 53.9012 81.7874 53.898 82.2022C54.2534 82.1264 54.5774 82.019 54.4698 81.4968ZM46.2235 77.4963C45.7205 77.475 45.5671 77.5497 46.1425 77.654C46.6905 77.751 47.6573 77.8019 48.0203 77.654C47.5894 77.6492 46.4759 77.5076 46.2235 77.4963ZM48.6733 76.2418C48.2462 75.9298 47.3876 76.1558 46.9591 76.3199C47.2063 76.9726 48.4203 76.6828 48.6733 76.2418ZM46.0614 82.1241C48.0974 83.1493 50.9008 84.2684 53.8162 83.9279C51.6977 82.9312 48.5472 82.5061 46.0614 82.1241ZM43.0404 81.2612C43.2355 81.5185 43.696 81.52 44.0196 81.6538C44.6222 81.0941 43.2976 80.7789 43.0404 81.2612ZM35.3663 74.9079C34.8153 74.954 34.2156 74.9525 34.0602 75.3791C34.5852 75.5661 35.3448 75.4499 35.3663 74.9079ZM33.815 76.9471C34.0068 77.1142 34.3597 77.3133 34.4682 76.9471C34.3838 76.8642 33.8855 76.7856 33.815 76.9471ZM34.7948 70.2801C34.8689 69.9522 34.2188 69.8281 34.1419 70.1235C34.3208 70.2123 34.4758 70.3254 34.7948 70.2801ZM35.8564 72.9465C35.8524 72.839 35.8948 72.7747 35.9379 72.7117C35.6946 72.4703 35.2028 72.4274 34.7948 72.5549C34.8601 72.9322 35.5139 73.0897 35.8564 72.9465ZM35.9381 77.9675C36.0425 78.0743 36.3234 78.0743 36.4277 77.9675C36.4662 77.7208 36.3257 77.6467 36.1829 77.5744C36.1096 77.7137 35.9857 77.8035 35.9381 77.9675ZM38.4689 68.9469C38.203 68.2083 37.3358 68.4031 36.7543 68.1627C35.8197 67.7759 35.0219 66.8525 33.8152 66.8296C33.761 66.8296 33.7062 66.8296 33.6524 66.8296C34.7019 68.0178 36.0909 69.2947 38.4689 68.9469ZM34.2234 66.0456C33.4614 65.5481 32.6267 65.1207 31.5294 64.9473C31.8782 65.7885 33.2361 66.0783 34.2234 66.0456ZM36.7541 69.7309C37.3264 70.3057 38.0448 70.7402 39.2849 70.6719C38.8082 70.0573 37.6691 69.6632 36.7541 69.7309ZM39.8563 73.261C39.0158 72.7013 37.6938 71.7933 36.5909 72.0056C37.2288 72.8049 38.5112 73.4034 39.8563 73.261ZM36.7541 76.2418C36.7343 76.3534 36.6198 76.3733 36.5909 76.4759C36.7921 76.7281 37.0949 76.2944 36.7541 76.2418ZM38.6317 78.5947C38.701 78.8939 39.0009 78.972 39.2849 79.0652C39.3955 78.8838 39.6129 78.8049 39.5298 78.438C39.3314 78.3233 38.6178 78.2573 38.6317 78.5947ZM40.183 75.1435C39.9302 74.9948 39.0082 74.8284 38.7949 75.1435C39.1909 75.298 39.9689 75.6976 40.183 75.1435ZM40.4279 72.4761C40.5095 71.8927 39.8226 71.8902 39.5298 72.0837C39.5573 72.4761 40.0976 72.376 40.4279 72.4761ZM41.3257 68.2408C40.957 67.7058 39.9328 67.8013 39.2033 67.6136C38.669 66.9689 37.3914 66.7348 36.2644 66.9077C37.5551 67.7338 39.0232 68.388 41.3257 68.2408ZM41.1626 75.7705C41.5132 76.0613 42.0629 76.1606 42.5503 76.3199C42.5764 76.1352 42.679 76.0253 42.6318 75.7705C42.3942 75.5072 41.3628 75.3711 41.1626 75.7705ZM34.2234 63.0638C34.3051 62.6979 34.081 62.6261 33.7335 62.6722C33.6104 63.0782 34.0176 62.9739 34.2234 63.0638ZM36.1827 64.0056C35.9442 63.9474 36.0245 63.5829 35.6928 63.6132C35.392 63.8783 35.9339 64.2818 36.1827 64.0056ZM30.5498 64.5547C30.2789 63.9792 29.6683 63.7286 29.2437 63.2995C30.0398 62.1914 28.2636 61.7378 27.9374 60.9465C27.9337 60.7078 28.1098 60.6416 28.1823 60.4753C27.4964 60.0892 26.7043 59.8044 26.3044 59.1429C26.6202 58.9233 27.4619 59.2082 27.7737 58.9854C27.2792 58.7807 26.7453 58.6144 26.5493 58.1225C26.8356 57.4824 27.9994 57.6863 28.2636 57.0248C26.8573 56.7264 25.4602 56.0084 23.9365 56.0833C23.9539 56.642 24.4714 56.7199 24.6713 57.1029C24.2196 56.9101 23.8543 56.6324 23.202 56.6324C23.1532 57.0192 23.414 57.1084 23.3656 57.4953C22.9203 57.5303 22.6946 57.3553 22.2223 57.4174C22.5589 58.1392 23.4223 58.3556 23.6921 59.1431C23.3582 59.2242 22.905 59.0156 22.794 59.1431C23.6558 59.8308 24.9145 60.5559 25.406 61.3383C24.6041 61.1951 24.1451 60.7207 23.3656 60.5543C24.0182 61.796 25.6074 62.0548 26.7941 62.6722C28.009 63.3041 29.0975 64.3231 30.5498 64.5547ZM28.7536 65.4957C29.0949 65.6748 29.7742 66.2437 30.2233 65.8101C29.8448 65.649 29.2493 65.283 28.7536 65.4957ZM28.1008 65.1031C27.8711 64.7457 26.6991 64.5555 26.3867 64.7894C26.9194 64.9368 27.4215 65.3339 28.1008 65.1031ZM26.6312 65.3387C26.6055 65.4453 26.5152 65.4882 26.5497 65.6532C26.6933 65.6078 27.0292 65.747 27.0396 65.5743C26.9129 65.4869 26.8692 65.3196 26.6312 65.3387ZM25.5699 54.9067C25.3472 54.1696 25.0498 53.3619 24.4272 52.7894C24.0919 52.4806 23.7672 52.4869 23.5291 52.0825C22.8982 51.016 23.2006 49.5102 22.3862 48.3971C22.1936 48.3369 21.822 48.2419 21.6515 48.3971C21.6668 48.9115 22.9092 50.1309 22.0601 50.7501C20.1827 50.8217 19.4599 49.3858 17.6518 49.6516C17.2446 50.6649 18.6841 51.1856 18.3044 51.9267C20.9014 52.7275 22.9639 54.4626 25.5699 54.9067ZM19.692 57.2596C20.1717 57.6107 20.8652 58.1719 21.4881 58.1225C20.9947 57.7866 20.5407 56.9955 19.692 57.2596ZM18.7939 56.5545C18.5821 55.9215 18.215 55.4376 17.4061 55.3781C17.5707 56.0561 18.3375 56.1566 18.7939 56.5545ZM17.4061 58.5937C17.8432 58.881 18.2773 59.5854 18.7124 59.6134C18.3943 59.2129 18.0066 58.4624 17.4061 58.5937ZM17.9779 53.1812C18.0201 53.065 18.0982 52.9838 18.1411 52.8674C17.9317 52.5905 17.4155 52.7417 17.3249 53.025C17.4854 53.1318 17.791 53.1 17.9779 53.1812ZM30.6317 56.3187C30.6201 55.6438 29.8398 55.2522 29.2437 55.6134C29.4326 56.1118 30.0018 56.244 30.6317 56.3187ZM22.9572 46.0446C22.9709 45.9148 22.4545 45.9148 22.4677 46.0446C22.5797 46.0683 22.9602 46.3987 22.9572 46.0446ZM19.7741 45.7301C19.6651 45.7301 19.5561 45.7301 19.4471 45.7301C19.335 45.831 19.3665 46.0716 19.3655 46.2785C19.5147 46.2999 19.8233 46.5618 19.9372 46.3579C19.7352 46.2896 19.9607 45.812 19.7741 45.7301ZM13.6507 45.6512C13.9212 46.2427 15.0163 46.1989 15.202 45.5733C14.7374 45.4005 14.0531 45.5207 13.6507 45.6512ZM13.8961 43.455C13.5803 43.4399 13.2943 43.4526 13.0791 43.5339C13.1427 43.8761 13.8939 43.8153 13.8961 43.455ZM14.6304 30.8274C14.2109 31.0136 13.3359 30.6408 12.9163 30.8274C13.2879 32.2405 16.0417 31.4797 15.8554 30.3565C15.6972 29.4037 13.0785 29.6397 12.1816 29.7293C12.8767 30.2116 13.9816 30.3005 14.6304 30.8274ZM11.3652 32.3175C11.5188 32.5361 11.941 32.4963 12.1816 32.6312C12.2288 32.4678 12.3842 32.4076 12.3448 32.1607C12.1306 32.052 11.3601 31.9665 11.3652 32.3175ZM15.5289 32.004C15.4849 32.1751 15.3309 32.5114 15.61 32.5531C15.8044 32.4214 15.7638 32.1177 15.5289 32.004ZM17.8147 27.2977C17.7932 27.0684 17.999 27.0573 17.9779 26.8272C17.646 26.796 17.4087 26.8557 17.4061 27.1407C17.5615 27.1748 17.6111 27.3097 17.8147 27.2977ZM17.7331 9.88507C17.4079 11.7991 19.2029 14.1146 21.3248 13.4144C21.4238 12.692 21.0807 12.3944 21.0799 11.7675C21.6214 11.6414 21.9402 12.141 22.2227 12.0028C21.4286 10.6222 19.3163 10.5079 17.7331 9.88507ZM16.8346 8.08106C17.5522 8.21754 18.6784 8.14844 18.9575 7.6104C18.4154 7.26242 16.789 7.1692 16.8346 8.08106ZM14.8753 2.59038C15.0323 1.06698 13.0947 0.225176 11.9368 1.25724C11.213 1.9019 10.8987 3.45879 12.0183 4.00258C11.8912 3.60139 11.52 3.43544 11.6103 2.8262C12.4611 2.35878 14.0212 3.05416 14.8753 2.59038ZM14.3045 7.6102C14.5121 7.49632 14.8239 7.48273 14.7942 7.13973C14.5432 7.16404 14.1154 7.42397 14.3045 7.6102ZM12.5896 13.4144C13.6076 13.4376 14.3752 12.8859 15.3653 12.8656C16.2224 12.8482 17.0392 13.0932 18.0594 13.0224C17.3308 10.968 13.7909 12.7621 12.5896 13.4144ZM11.0387 17.0226C12.965 16.7874 15.6486 15.5696 18.2227 15.8462C19.1937 15.9503 20.0442 16.4754 20.5901 16.8658C20.3117 16.5805 19.982 15.4092 20.5901 15.219C21.9298 15.4642 21.9744 17.8962 23.6106 17.5719C24.4441 17.4068 24.6979 15.8533 24.2638 14.9051C24.8868 15.3262 25.2078 16.0374 26.06 16.2386C25.8656 15.4841 25.3004 15.0858 24.9173 14.5129C25.1579 14.2216 25.4731 14.0011 25.4068 13.4144C23.0705 13.1987 20.9969 14.4103 18.7941 14.8264C17.0846 15.1499 15.8124 15.4703 14.3047 15.846C13.1712 16.1284 11.9099 16.3265 11.0387 17.0226ZM4.1812 33.259C4.06904 33.3589 4.03896 33.7276 4.26268 33.7295C4.32982 33.6726 4.48183 33.1867 4.1812 33.259ZM7.038 23.9253C3.45824 24.471 7.27388 28.1288 9.40592 27.2198C9.67586 26.8215 9.59199 26.4564 9.56908 25.8857C10.8112 26.0026 11.7457 25.4213 12.8349 25.6508C13.0106 26.0154 12.6783 26.3242 12.5898 26.6701C16.2939 26.4444 18.1279 23.6481 22.141 23.2192C22.6396 23.1658 23.208 23.2506 23.7742 23.2192C25.4641 23.1244 27.3362 22.8236 29.0806 22.5131C30.7921 22.2091 32.3569 21.6045 33.8152 21.2586C35.6454 20.8239 38.4297 19.6755 38.0607 17.3365C38.0185 17.0703 37.8263 16.831 37.6523 16.5521C27.9237 15.6483 20.6498 19.3126 12.9982 20.7878C12.079 20.9648 10.9614 20.8471 10.2223 21.5718C10.4897 22.2038 11.4292 22.1902 11.8547 22.6699C11.6419 22.9095 11.1158 22.8482 11.0387 23.2192C11.2188 23.8826 12.2424 23.7348 12.3448 24.4744C10.7198 25.575 7.31233 24.1712 8.09964 21.9643C5.64427 22.4813 2.06929 22.9951 2.05873 25.6508C2.05375 26.8213 2.7799 27.9039 3.60945 28.5529C3.04745 26.0819 4.0027 22.4279 7.038 23.9253ZM10.059 38.5926C10.1333 38.0614 9.22463 37.6895 8.91624 38.0438C9.21706 38.3035 9.68801 38.3994 10.059 38.5926ZM7.20156 39.6122C7.7789 41.5408 7.96676 43.8447 9.4874 44.8674C9.25849 42.6035 8.42237 40.9231 7.20156 39.6122ZM10.6303 37.5729C10.8845 36.4657 9.19375 36.0319 9.0794 36.7884C8.97959 37.4472 10.0607 37.3706 10.6303 37.5729ZM10.957 35.4548C10.5885 35.0676 9.66351 34.8276 8.99792 34.9844C9.23279 35.5396 10.6779 36.3613 10.957 35.4548ZM9.97747 32.004C10.3462 31.7831 10.7375 31.5833 10.7935 31.0623C10.3197 30.7215 9.18558 30.6735 9.0794 31.22C8.99911 31.633 9.57525 31.8005 9.97747 32.004ZM11.0387 33.3371C11.0744 33.0676 11.0064 32.8978 10.957 32.7095C10.5383 32.6995 10.3428 32.9038 10.304 33.259C10.5072 33.3249 10.7413 33.3614 11.0387 33.3371ZM5.32412 32.9451C5.26117 32.7441 5.24244 32.5005 5.07928 32.3962C4.87628 32.6073 4.86851 32.9865 5.32412 32.9451ZM6.14052 27.6118C5.77416 27.4745 5.23188 27.621 5.07928 27.9253C5.25061 28.0738 5.49724 28.1513 5.73232 28.2386C5.8148 27.9791 6.18395 27.9934 6.14052 27.6118ZM7.038 37.7297C6.82683 37.2791 6.80033 36.6511 6.38536 36.3966C5.26754 36.5493 6.375 38.0922 7.038 37.7297ZM8.58932 46.2004C9.38639 48.0519 10.2277 50.053 11.9368 50.9063C10.6588 49.5402 10.3572 47.2799 9.4874 45.6512C9.18658 45.0893 8.70666 44.6523 8.42616 44.083C7.76615 42.7426 7.46194 41.1786 6.14052 40.5533C6.66128 42.5258 7.7767 44.3108 8.58932 46.2004ZM31.0399 75.614C30.5458 73.9974 29.2196 73.1789 27.3661 72.8686C26.9079 71.8188 25.5855 71.5998 25.3253 70.3589C25.2831 70.1041 25.8309 70.0142 25.6522 69.8884C23.1676 70.3405 23.0799 67.8103 21.8967 66.7507C18.911 66.8026 19.4665 63.2533 17.8149 61.4178C17.3432 60.8925 16.8754 60.7714 16.3453 60.2414C15.5295 57.8122 13.4005 56.58 12.1818 54.4374C11.0995 52.5334 10.8718 50.3859 9.07979 49.0248C10.4976 53.6367 13.5351 57.5353 16.2638 61.4179C18.4481 64.5245 19.9334 67.4832 22.3864 69.9667C23.2199 70.8095 24.1611 71.3739 25.1623 72.1627C26.8654 73.5045 28.0382 75.9935 31.0399 75.614ZM30.713 70.2801C30.6251 69.9441 29.9954 69.7175 29.6517 69.8884C29.9683 70.0557 30.3161 70.191 30.713 70.2801ZM33.7335 68.2408C33.1805 67.6216 32.0226 67.3858 30.958 66.9861C29.6374 66.4894 27.7532 66.0192 26.7947 66.5938C26.8911 67.3634 27.5292 67.6134 27.9374 68.0839C29.0716 68.2517 29.7207 68.7834 30.7944 68.8679C32.0601 68.9683 33.242 68.9142 33.7335 68.2408ZM72.6742 86.1247C70.2039 85.0423 66.5809 86.26 63.9389 85.6534C63.4402 85.5388 62.9994 85.2094 62.5513 85.1829C62.1057 85.1567 61.5869 85.3828 61.1636 85.4186C58.901 85.6119 56.8355 85.3971 54.7148 85.1041C53.2269 84.8987 51.6421 84.8183 50.3057 84.4768C49.0257 84.1505 47.7019 83.3975 46.3871 82.9081C45.0529 82.4121 43.664 81.9179 42.387 81.418C39.8677 80.4319 37.1902 78.7253 34.5497 78.0456C36.3309 79.8636 39.3975 80.4477 41.4893 81.9673C38.5333 81.173 36.3028 79.6821 33.652 78.5947C35.7173 80.3714 38.5992 81.4475 41.4893 82.5944C44.3674 83.7374 47.495 84.7044 50.8769 85.1828C57.5947 86.1335 65.474 87.5455 72.6742 86.1247ZM74.7967 85.889C74.3775 85.9051 73.8554 85.8213 73.8175 86.2028C74.1727 86.4956 74.7702 86.4652 74.7967 85.889ZM79.205 76.6334C79.3209 77.213 80.1967 77.0401 80.1039 76.398C79.6588 76.3373 79.466 76.5189 79.205 76.6334ZM85.9808 80.7121C83.7862 80.6612 81.0791 79.9329 78.7964 80.0067C77.9206 80.0347 76.8562 80.236 76.5926 81.1035C77.2662 81.3661 77.9878 81.2086 78.7964 81.1831C81.4442 81.0972 84.6795 82.2403 85.9808 80.7121ZM88.1854 80.5551C87.8035 80.5544 87.6909 80.8131 87.6138 81.1035C87.7188 81.2116 87.9682 81.1824 88.1854 81.1831C88.1465 80.8361 88.2973 80.7925 88.1854 80.5551ZM93.0021 80.2418C92.6037 80.1836 92.4552 80.6596 92.5937 80.8696C92.8505 80.9069 92.9126 80.7574 93.084 80.7121C93.1429 80.4724 92.9431 80.4812 93.0021 80.2418ZM99.7773 80.7121C98.1061 80.541 96.1543 80.6468 94.6349 80.8696C95.5296 81.6791 98.7432 81.1625 99.7773 80.7121ZM21.2433 33.023C22.0485 33.4529 22.7916 34.3587 23.8559 34.2783C23.5684 33.901 23.1608 33.6388 22.8757 33.259C23.1789 33.2361 23.4365 33.1704 23.5289 32.9451C22.536 32.2777 21.2626 31.4625 20.7534 30.5914C21.0895 31.2171 21.6039 32.2139 21.2433 33.023ZM31.6929 33.6512C31.5182 33.4793 31.5969 33.063 31.366 32.9453C31.314 33.2866 31.5439 33.7638 31.6929 33.6512ZM24.1822 40.4754C24.3073 41.7668 25.1663 42.3524 25.2434 43.691C24.2892 42.6471 23.7564 41.1976 23.1209 39.847C23.0586 41.4807 23.5726 42.4928 24.019 43.6128C24.3627 44.4733 24.6848 45.4834 25.5699 45.7303C25.9833 45.6562 25.9602 45.1626 26.3869 45.1023C26.8407 45.1651 27.077 45.8495 27.3661 45.809C27.1481 45.5735 27.0802 45.1945 27.0396 44.7893C27.1185 44.4988 27.5508 44.5482 27.6924 44.3181C26.8714 42.702 25.6946 41.4269 24.1822 40.4754Z" fill="black"/>
</svg>
