<svg width="87" height="87" viewBox="0 0 87 87" fill="none" xmlns="http://www.w3.org/2000/svg">
<path d="M86.8125 31.5374C86.8125 20.564 86.8125 15.0772 84.6769 10.8859C82.7984 7.19908 79.8009 4.20161 76.1141 2.32308C71.9228 0.1875 66.436 0.1875 55.4626 0.1875H31.5374C20.5639 0.1875 15.0771 0.1875 10.886 2.32308C7.19917 4.20161 4.20164 7.19908 2.32311 10.8859C0.1875 15.0772 0.1875 20.564 0.1875 31.5374V55.4626C0.1875 66.4361 0.1875 71.9229 2.32311 76.114C4.20164 79.8008 7.19917 82.7984 10.886 84.6769C15.0771 86.8125 20.5639 86.8125 31.5374 86.8125H55.4626C66.436 86.8125 71.9228 86.8125 76.1141 84.6769C79.8009 82.7984 82.7984 79.8008 84.6769 76.114C86.8125 71.9229 86.8125 66.4361 86.8125 55.4626V31.5374Z" fill="#330000"/>
<path d="M44.8347 54.626H58.2581L60.9893 63.3278C61.0651 63.6511 61.3627 63.8801 61.6866 63.864H68.4856C68.8734 63.864 69.0089 63.6455 68.8924 63.2084L57.2703 28.8783C57.154 28.5207 57.0376 28.1135 56.9216 27.6566C56.7694 26.8612 56.6918 26.0531 56.689 25.2428C56.7224 25.0034 56.512 24.7919 56.2825 24.8254H47.0427C46.772 24.8254 46.6173 24.9248 46.578 25.1234L33.3865 63.2681C33.2705 63.6657 33.3865 63.8643 33.7352 63.864H41.2898C41.5547 63.8943 41.8077 63.7127 41.8708 63.4469L44.8347 54.626ZM56.1661 47.1163H46.9845C48.493 41.9614 50.1955 36.8744 51.5753 31.6797C53.064 36.8834 54.6882 42.066 56.1661 47.1163Z" fill="#FF9A00"/>
<path d="M25.5423 31.143C26.1351 31.1674 26.726 31.0631 27.277 30.8373C27.8277 30.6114 28.3258 30.2687 28.7385 29.8318C29.1499 29.3758 29.4698 28.8412 29.6793 28.258C29.8887 27.6752 29.9837 27.0555 29.959 26.4346C29.98 25.8198 29.8745 25.2076 29.6493 24.6376C29.4237 24.0676 29.0837 23.5527 28.6512 23.1267C28.2231 22.705 27.7175 22.3747 27.1638 22.1547C26.6103 21.9348 26.0197 21.8296 25.4263 21.8453C24.0313 21.8453 22.9371 22.2724 22.1429 23.1267C21.742 23.5706 21.4304 24.0913 21.2259 24.6589C21.0217 25.2265 20.9283 25.8301 20.9518 26.4346C20.9274 27.0577 21.0254 27.6798 21.2401 28.2633C21.4545 28.8468 21.7816 29.3801 22.2011 29.8318C22.6395 30.2752 23.1629 30.6204 23.7377 30.8463C24.3129 31.0718 24.9273 31.173 25.5423 31.143ZM29.5521 63.2678V34.7787C29.5521 34.4211 29.3977 34.2423 29.0871 34.2423H21.9393C21.63 34.2423 21.475 34.4211 21.4747 34.7787V63.2678C21.4747 63.6657 21.6296 63.8643 21.9393 63.864H29.029C29.3776 63.864 29.5521 63.6654 29.5521 63.2678Z" fill="#FF9A00"/>
</svg>
