<svg width="87" height="87" viewBox="0 0 87 87" fill="none" xmlns="http://www.w3.org/2000/svg">
<path d="M0.1875 31.5374C0.1875 20.564 0.1875 15.0772 2.32308 10.8859C4.20161 7.19908 7.19908 4.20161 10.8859 2.32308C15.0772 0.1875 20.564 0.1875 31.5374 0.1875H55.4626C66.4361 0.1875 71.9229 0.1875 76.114 2.32308C79.8008 4.20161 82.7984 7.19908 84.6769 10.8859C86.8125 15.0772 86.8125 20.564 86.8125 31.5374V55.4626C86.8125 66.4361 86.8125 71.9229 84.6769 76.114C82.7984 79.8008 79.8008 82.7984 76.114 84.6769C71.9229 86.8125 66.4361 86.8125 55.4626 86.8125H31.5374C20.564 86.8125 15.0772 86.8125 10.8859 84.6769C7.19908 82.7984 4.20161 79.8008 2.32308 76.114C0.1875 71.9229 0.1875 66.4361 0.1875 55.4626V31.5374Z" fill="#001E36"/>
<path d="M18.75 63.6595V25.5668C18.75 25.3078 18.8583 25.1596 19.1109 25.1596C22.8409 25.1596 26.5691 24.9375 30.2999 24.9375C36.3541 24.9375 42.9091 27.0075 45.2068 33.3407C45.7482 34.8957 46.0369 36.4874 46.0369 38.1534C46.0369 41.3372 45.3151 43.9653 43.8713 46.0384C39.8382 51.8293 32.8482 51.7393 26.5824 51.7393V63.6227C26.6313 63.9744 26.3315 64.1409 26.041 64.1409H19.1831C18.8944 64.1409 18.75 63.9927 18.75 63.6595ZM26.6183 32.3043V44.7428C29.1029 44.9247 31.7026 44.9445 34.0897 44.1506C36.7253 43.3902 38.1685 41.1091 38.1685 38.3755C38.2416 36.0462 36.9725 33.8113 34.8118 32.9707C32.4535 31.99 29.1642 31.9312 26.6183 32.3043Z" fill="#31A8FF"/>
<path d="M68.5492 42.2854C67.4571 41.7096 66.2938 41.2886 65.0913 41.0336C63.5463 40.6701 57.4522 39.3967 57.4497 42.5833C57.5039 44.3622 60.3278 45.2337 61.5755 45.742C65.956 47.2459 70.9128 49.9341 70.8153 55.3379C70.9493 62.065 64.4314 64.7544 58.8444 64.755C55.936 64.785 52.9059 64.3345 50.2441 63.0859C49.9898 62.9513 49.8264 62.6639 49.8372 62.3706V55.9338C49.8085 55.6757 50.0857 55.4502 50.3022 55.6358C52.9103 57.213 56.0015 57.979 59.0189 58.0199C60.3507 58.0199 62.9903 57.8909 62.9705 55.9338C62.9705 54.0558 59.8127 53.1924 58.5539 52.7153C56.7292 52.0641 54.9992 51.1616 53.4111 50.0334C51.1917 48.4503 49.7995 45.9122 49.8372 43.1198C49.8242 36.7856 55.824 33.9425 61.2272 33.9412C63.7529 33.9202 66.4655 34.1074 68.8168 35.1332C69.1549 35.2325 69.2248 35.5889 69.2236 35.9079V41.9277C69.245 42.3015 68.8301 42.4286 68.5492 42.2854Z" fill="#31A8FF"/>
</svg>
