<svg width="81" height="87" viewBox="0 0 81 87" fill="none" xmlns="http://www.w3.org/2000/svg">
<path d="M40.2847 0.0375211C20.147 0.0375211 21.4205 9.6368 21.4205 9.6368V19.6113H40.5712V22.7381H13.7936C13.7936 22.7381 0.902605 20.9871 0.902605 43.5157C0.902605 66.0443 12.2847 65.1281 12.2847 65.1281H18.8564V54.6189C18.8564 54.6189 18.4877 42.0711 29.918 42.0711H49.0971C49.0971 42.0711 59.7957 42.2587 59.7957 30.652V11.6067C59.7957 11.6067 61.4181 0 40.3897 0L40.2847 0.0375211ZM29.6996 6.71949C30.3805 6.70055 31.0511 6.90462 31.6267 7.30588C32.2023 7.70713 32.6571 8.28756 32.9335 8.97375C33.2099 9.65994 33.2955 10.4211 33.1794 11.1609C33.0634 11.9007 32.751 12.586 32.2817 13.1301C31.8123 13.6741 31.2072 14.0525 30.5428 14.2175C29.8784 14.3824 29.1845 14.3264 28.549 14.0565C27.9135 13.7867 27.3648 13.3152 26.9723 12.7015C26.5799 12.0879 26.3613 11.3598 26.3443 10.6092V10.5467C26.3443 10.0482 26.4333 9.5546 26.6064 9.09405C26.7794 8.63351 27.0331 8.21505 27.3528 7.86256C27.6725 7.51008 28.0521 7.23047 28.4699 7.03971C28.8876 6.84894 29.3354 6.75076 29.7876 6.75076L29.6996 6.71949Z" fill="url(#paint0_linear_301_97)"/>
<path d="M40.852 86.9937C60.9898 86.9937 59.7163 77.3632 59.7163 77.3632V67.42H40.5684V64.2932H67.4282C67.4282 64.2932 80.3192 65.8816 80.3192 43.4843C80.3192 21.0871 68.9371 21.8719 68.9371 21.8719H62.2803V32.2435C62.2803 32.2435 62.649 44.7913 51.2187 44.7913H32.0311C32.0311 44.7913 21.324 44.6131 21.324 56.2198V75.3933C21.324 75.3933 19.7016 87 40.73 87H40.8435L40.852 86.9937ZM51.4371 80.2805C50.7563 80.2994 50.0856 80.0954 49.51 79.6941C48.9344 79.2928 48.4796 78.7124 48.2033 78.0262C47.9269 77.34 47.8413 76.5789 47.9573 75.8391C48.0733 75.0993 48.3858 74.414 48.8551 73.8699C49.3244 73.3259 49.9295 72.9474 50.5939 72.7825C51.2584 72.6176 51.9522 72.6736 52.5877 72.9435C53.2233 73.2133 53.772 73.6848 54.1644 74.2984C54.5568 74.9121 54.7754 75.6402 54.7925 76.3908V76.4846C54.7925 77.4913 54.4297 78.4568 53.7839 79.1687C53.1382 79.8806 52.2624 80.2805 51.3492 80.2805H51.4371Z" fill="url(#paint1_linear_301_97)"/>
<defs>
<linearGradient id="paint0_linear_301_97" x1="8.75112" y1="8.55148" x2="50.09" y2="45.9649" gradientUnits="userSpaceOnUse">
<stop stop-color="#387EB8"/>
<stop offset="1" stop-color="#366994"/>
</linearGradient>
<linearGradient id="paint1_linear_301_97" x1="31.0455" y1="35.5534" x2="77.6744" y2="72.4794" gradientUnits="userSpaceOnUse">
<stop stop-color="#FFE052"/>
<stop offset="1" stop-color="#FFC331"/>
</linearGradient>
</defs>
</svg>
