<svg width="198" height="168" viewBox="0 0 198 168" fill="none" xmlns="http://www.w3.org/2000/svg">
<path fill-rule="evenodd" clip-rule="evenodd" d="M43.5873 0H92H105L105 40.932L153.395 1.95301e-06L153.397 0.00241391L153.4 0.000135376L188.126 41.0001H188.178L197.5 52L197.5 52.0002L197.471 52.0339L197.506 52.0754L189 62.0001L188.983 61.9799L98.4999 168L89.9351 157.91L89.9482 157.895L50.8474 111.875L60.7544 103.457L98.5027 147.886L178.744 54.0001H109.68L56.7616 98.7576L56.7802 98.7796L46.8733 107.197L46.8358 107.153L46.8225 107.164L41.8379 101.27L1.67506 54.0001H1.65449L0.896537 53.0838L0.027832 52.0614L0.0394104 52.0476L0 52L43.5876 0.00947811L43.5873 0ZM171.165 41.0001H125.05L151.887 18.3016L171.165 41.0001ZM18.7037 54.0001H89.5492L48.3403 88.8539L18.7037 54.0001ZM92 41.0001V13H49.907L26.4094 41.0001H92Z" fill="#AD0019"/>
</svg>
