<svg width="91" height="91" viewBox="0 0 91 91" fill="none" xmlns="http://www.w3.org/2000/svg">
<path d="M88.5999 54.5969L85.4071 52.8045C85.9433 50.2114 86.2146 47.6148 86.2146 45.0723C86.2146 42.4927 85.9476 39.8937 85.4205 37.3323L88.5999 35.5474C89.5845 34.9947 90.289 34.1021 90.5831 33.0343C90.8773 31.9664 90.7264 30.851 90.1578 29.8936L81.4632 15.2507C80.8946 14.2933 79.9767 13.6084 78.8785 13.3223C77.7801 13.0363 76.6331 13.183 75.6482 13.7359L72.4664 15.5221C68.4471 12.084 63.7168 9.42311 58.6815 7.76753V4.21121C58.6815 1.92898 56.7719 0.0722656 54.4247 0.0722656H37.0354C34.6882 0.0722656 32.7786 1.92898 32.7786 4.21121V7.76771C27.7701 9.41659 23.0464 12.081 19.0123 15.5327L15.8117 13.7359C14.8269 13.183 13.6797 13.0361 12.5815 13.3223C11.4832 13.6085 10.5654 14.2933 9.99679 15.2507L1.30212 29.8936C0.73353 30.851 0.582641 31.9664 0.876811 33.0343C1.17098 34.1021 1.87543 34.9947 2.8601 35.5474L6.05286 37.3398C5.51705 39.9329 5.24552 42.5295 5.24552 45.0723C5.24552 47.6514 5.51252 50.2505 6.03963 52.8121L2.86028 54.5969C0.827541 55.7381 0.128707 58.2743 1.30212 60.2509L9.99679 74.8938C11.1704 76.8701 13.7788 77.5498 15.8117 76.4086L18.9934 74.6224C23.0129 78.0605 27.743 80.7214 32.7786 82.3772V85.9333C32.7786 88.2156 34.6882 90.0723 37.0354 90.0723H54.4247C56.7719 90.0723 58.6815 88.2156 58.6815 85.9333V82.3768C63.6902 80.7279 68.4139 78.0635 72.4481 74.612L75.6484 76.4086C77.681 77.5498 80.2897 76.8701 81.4633 74.8938L90.158 60.2509C91.3314 58.2743 90.6326 55.7381 88.5999 54.5969ZM87.8048 58.93L79.1102 73.5727C78.6858 74.2877 77.7422 74.5334 77.007 74.1206L72.9509 71.8437C72.4356 71.5543 71.7862 71.6249 71.3493 72.0178C67.2025 75.7469 62.2132 78.5605 56.921 80.1547C56.3522 80.326 55.9644 80.8375 55.9644 81.4164V85.9333C55.9644 86.7588 55.2737 87.4304 54.4247 87.4304H37.0354C36.1864 87.4304 35.4957 86.7588 35.4957 85.9333V81.4166C35.4957 80.8377 35.1079 80.3262 34.5393 80.1548C29.2145 78.5509 24.2191 75.7408 20.0926 72.0286C19.8352 71.797 19.5039 71.6772 19.1697 71.6772C18.9367 71.6772 18.7025 71.7353 18.4908 71.8542L14.4532 74.1206C13.7178 74.5333 12.7744 74.2876 12.35 73.5727L3.6553 58.93C3.23089 58.2151 3.48376 57.2976 4.21882 56.8848L8.25315 54.62C8.76831 54.3308 9.03006 53.7496 8.89909 53.1853C8.2776 50.507 7.9626 47.7772 7.9626 45.0723C7.9626 42.4128 8.28231 39.6857 8.91304 36.9666C9.04382 36.4025 8.78208 35.8211 8.2671 35.5321L4.21882 33.2595C3.86271 33.0596 3.60802 32.7368 3.50151 32.3506C3.39519 31.9643 3.44971 31.5608 3.6553 31.2146L12.35 16.5717C12.5556 16.2254 12.8876 15.9776 13.285 15.8742C13.6821 15.7707 14.0972 15.8239 14.4534 16.0238L18.5094 18.3007C19.0249 18.5903 19.6741 18.5194 20.111 18.1265C24.258 14.3974 29.2472 11.5838 34.5393 9.9897C35.1081 9.81833 35.4959 9.30686 35.4959 8.72794V4.21121C35.4959 3.38571 36.1866 2.71414 37.0356 2.71414H54.4249C55.2739 2.71414 55.9646 3.38571 55.9646 4.21121V8.72794C55.9646 9.30686 56.3524 9.81833 56.921 9.9897C62.2456 11.5935 67.241 14.4036 71.3678 18.1159C71.8047 18.5091 72.454 18.5797 72.9696 18.2903L77.0071 16.0238C77.3634 15.8239 77.7784 15.7707 78.1755 15.8742C78.5727 15.9778 78.9048 16.2254 79.1105 16.5717L87.8052 31.2146C88.0108 31.5608 88.0655 31.9643 87.959 32.3506C87.8525 32.7368 87.5978 33.0596 87.2417 33.2595L83.2074 35.5243C82.6922 35.8135 82.4304 36.3949 82.5614 36.9591C83.1829 39.6372 83.4979 42.3668 83.4979 45.0723C83.4979 47.7318 83.1782 50.4589 82.5475 53.1777C82.4167 53.7419 82.6784 54.3231 83.1934 54.6123L87.2417 56.8848C87.9766 57.2976 88.2294 58.2151 87.8048 58.93Z" fill="black"/>
<path d="M45.7301 18.3893C30.5981 18.3893 18.2875 30.3593 18.2875 45.0723C18.2875 59.7853 30.5981 71.7553 45.7301 71.7553C60.8621 71.7553 73.1726 59.7853 73.1726 45.0723C73.1726 30.3593 60.8621 18.3893 45.7301 18.3893ZM45.7301 69.1134C32.0965 69.1134 21.0046 58.3286 21.0046 45.0723C21.0046 31.8161 32.0965 21.0312 45.7301 21.0312C59.3637 21.0312 70.4555 31.8161 70.4555 45.0723C70.4555 58.3286 59.3637 69.1134 45.7301 69.1134Z" fill="black"/>
<path d="M50.802 38.1152H45.7301C44.9798 38.1152 44.3715 38.7067 44.3715 39.4362V50.7082C44.3715 51.4377 44.9798 52.0291 45.7301 52.0291C46.4803 52.0291 47.0886 51.4377 47.0886 50.7082V47.8021H50.802C53.5487 47.8021 55.7833 45.6294 55.7833 42.9587C55.7833 40.2879 53.5487 38.1152 50.802 38.1152ZM50.802 45.1602H47.0886V40.7571H50.802C52.0505 40.7571 53.0662 41.7446 53.0662 42.9587C53.0662 44.1727 52.0505 45.1602 50.802 45.1602Z" fill="black"/>
<path d="M38.3074 38.9724C38.1085 38.4569 37.6016 38.1152 37.0354 38.1152H35.5863C35.0201 38.1152 34.513 38.4567 34.3143 38.9724L29.967 50.2445C29.7034 50.9275 30.0596 51.6889 30.762 51.9451C31.4645 52.2014 32.2475 51.8551 32.5111 51.1721L33.2672 49.2111H39.3543L40.1106 51.1719C40.3151 51.7022 40.8328 52.0295 41.3827 52.0295C41.5412 52.0295 41.7024 52.0024 41.8595 51.9451C42.562 51.689 42.9181 50.9275 42.6545 50.2445L38.3074 38.9724ZM34.2861 46.5692L36.3108 41.3195L38.3356 46.5692H34.2861Z" fill="black"/>
<path d="M58.7721 38.1152C58.0218 38.1152 57.4135 38.7067 57.4135 39.4362V50.7082C57.4135 51.4377 58.0218 52.0291 58.7721 52.0291C59.5223 52.0291 60.1306 51.4377 60.1306 50.7082V39.4362C60.1306 38.7067 59.5223 38.1152 58.7721 38.1152Z" fill="black"/>
<path d="M55.4485 15.448C56.3914 15.7402 57.3313 16.0796 58.2419 16.4565C58.4154 16.5283 58.5958 16.5623 58.7733 16.5623C59.3015 16.5623 59.804 16.2608 60.0239 15.7585C60.3177 15.0873 59.9964 14.3114 59.3061 14.0258C58.3174 13.6166 57.2972 13.2482 56.2734 12.931C55.5588 12.7094 54.7944 13.0934 54.5666 13.7883C54.3389 14.4833 54.7338 15.2264 55.4485 15.448Z" fill="black"/>
<path d="M17.6445 59.938C17.2851 59.2976 16.4596 59.0616 15.8012 59.411C15.1426 59.7604 14.8999 60.5629 15.2592 61.2032C15.8229 62.2079 16.447 63.1961 17.1139 64.1405C17.3773 64.5133 17.8024 64.7138 18.235 64.7138C18.5 64.7138 18.7677 64.6386 19.0028 64.4816C19.6214 64.0686 19.7785 63.2463 19.3537 62.645C18.7391 61.7746 18.164 60.8639 17.6445 59.938Z" fill="black"/>
<path d="M42.9478 76.0424C35.668 75.4324 28.7579 72.365 23.4906 67.405C22.9515 66.8974 22.0914 66.911 21.5696 67.4349C21.0477 67.9591 21.0613 68.7953 21.6004 69.3028C27.3153 74.6843 34.8139 78.0125 42.7145 78.6744C42.7541 78.6777 42.7934 78.6793 42.8326 78.6793C43.5301 78.6793 44.1235 78.1599 44.1846 77.4718C44.2489 76.7451 43.6952 76.1051 42.9478 76.0424Z" fill="black"/>
<path d="M65.2795 17.207C64.66 16.7953 63.8146 16.95 63.3913 17.5522C62.968 18.1545 63.127 18.9765 63.7463 19.3881C70.0579 23.5822 74.6236 29.8232 76.6021 36.9612C76.7655 37.5505 77.314 37.9387 77.913 37.9387C78.03 37.9387 78.1491 37.9239 78.2673 37.8929C78.9919 37.703 79.4208 36.9781 79.2256 36.2737C77.0787 28.5278 72.1258 21.7564 65.2795 17.207Z" fill="black"/>
</svg>
