<svg width="61" height="91" viewBox="0 0 61 91" fill="none" xmlns="http://www.w3.org/2000/svg">
<path fill-rule="evenodd" clip-rule="evenodd" d="M30.73 45.0723C30.73 36.7881 37.4459 30.0723 45.73 30.0723C54.0141 30.0723 60.73 36.7881 60.73 45.0723C60.73 53.3564 54.0141 60.0723 45.73 60.0723C37.4459 60.0723 30.73 53.3564 30.73 45.0723Z" fill="#1ABCFE"/>
<path fill-rule="evenodd" clip-rule="evenodd" d="M0.72998 75.0723C0.72998 66.7881 7.44571 60.0723 15.73 60.0723H30.73V75.0723C30.73 83.3564 24.0141 90.0723 15.73 90.0723C7.44571 90.0723 0.72998 83.3564 0.72998 75.0723Z" fill="#0ACF83"/>
<path fill-rule="evenodd" clip-rule="evenodd" d="M30.73 0.0722656V30.0723H45.73C54.0141 30.0723 60.73 23.3564 60.73 15.0723C60.73 6.78799 54.0141 0.0722656 45.73 0.0722656H30.73Z" fill="#FF7262"/>
<path fill-rule="evenodd" clip-rule="evenodd" d="M0.72998 15.0723C0.72998 23.3564 7.44571 30.0723 15.73 30.0723H30.73V0.0722656H15.73C7.44571 0.0722656 0.72998 6.78799 0.72998 15.0723Z" fill="#F24E1E"/>
<path fill-rule="evenodd" clip-rule="evenodd" d="M0.72998 45.0723C0.72998 53.3564 7.44571 60.0723 15.73 60.0723H30.73V30.0723H15.73C7.44571 30.0723 0.72998 36.7881 0.72998 45.0723Z" fill="#A259FF"/>
</svg>
