<svg width="45" height="87" viewBox="0 0 45 87" fill="none" xmlns="http://www.w3.org/2000/svg">
<path fill-rule="evenodd" clip-rule="evenodd" d="M28.75 43.5C28.75 35.561 35.186 29.125 43.125 29.125C51.064 29.125 57.5 35.561 57.5 43.5C57.5 51.439 51.064 57.875 43.125 57.875C35.186 57.875 28.75 51.439 28.75 43.5Z" fill="#1ABCFE"/>
<path fill-rule="evenodd" clip-rule="evenodd" d="M0 72.25C0 64.311 6.4359 57.875 14.375 57.875H28.75V72.25C28.75 80.189 22.314 86.625 14.375 86.625C6.4359 86.625 0 80.189 0 72.25Z" fill="#0ACF83"/>
<path fill-rule="evenodd" clip-rule="evenodd" d="M28.75 0.375V29.125H43.125C51.064 29.125 57.5 22.689 57.5 14.75C57.5 6.8109 51.064 0.375 43.125 0.375H28.75Z" fill="#FF7262"/>
<path fill-rule="evenodd" clip-rule="evenodd" d="M0 14.75C0 22.689 6.4359 29.125 14.375 29.125H28.75V0.375H14.375C6.4359 0.375 0 6.8109 0 14.75Z" fill="#F24E1E"/>
<path fill-rule="evenodd" clip-rule="evenodd" d="M0 43.5C0 51.439 6.4359 57.875 14.375 57.875H28.75V29.125H14.375C6.4359 29.125 0 35.561 0 43.5Z" fill="#A259FF"/>
</svg>
