<svg width="103" height="91" viewBox="0 0 103 91" fill="none" xmlns="http://www.w3.org/2000/svg">
<path fill-rule="evenodd" clip-rule="evenodd" d="M29.7111 19.0992C29.3593 16.0779 32.1024 17.3586 31.7519 19.1802C31.2371 19.6656 30.2863 19.2675 29.7111 19.0992ZM32.9763 18.5327C33.6672 18.4628 34.3258 18.3601 34.5276 17.8045C33.572 17.2206 32.144 18.6614 32.7315 19.3423C33.0576 19.3149 32.7691 18.6784 32.9763 18.5327ZM23.8332 20.394C24.4085 20.1287 25.3538 20.2289 25.6293 19.6658C23.9169 19.0746 20.8329 19.511 20.3225 20.6369C21.628 20.5569 22.7197 19.53 23.8332 20.394ZM19.996 20.718C19.6251 20.6408 19.482 21.0585 19.6697 21.2842C19.9596 21.2747 19.9982 21.0164 19.996 20.718ZM19.0979 22.3366C19.0458 21.5647 17.1619 20.9483 16.9757 22.0129C17.1386 22.6174 18.6581 23.0063 19.0979 22.3366ZM15.9144 21.6085C15.5254 21.6265 15.3253 21.834 15.0978 22.0129C15.3939 22.184 16.0497 22.1227 15.9144 21.6085ZM14.9351 23.7931C16.373 23.6929 16.8107 25.0037 18.0367 24.8451C18.2652 23.4342 15.3403 21.4936 14.9351 23.7931ZM34.3641 30.8332C33.9354 29.4228 35.2482 28.2122 34.4456 27.1104C33.3343 27.1983 32.3733 32.311 33.9559 32.2905C35.0922 32.2749 35.4929 29.1824 35.5883 28.1634C34.7563 28.6323 35.1187 30.2868 34.3641 30.8332ZM20.7309 30.2674C20.7557 30.0536 20.6178 30.0014 20.4044 30.0239C20.4098 30.2423 20.5909 30.4132 20.7309 30.2674ZM24.7313 32.6141C24.747 32.1127 24.7271 31.6471 24.3233 31.5621C24.0159 31.5276 24.0342 31.8151 23.8332 31.8862C23.9453 32.314 24.1732 32.6282 24.7313 32.6141ZM20.8126 35.204C22.3779 35.3785 23.426 36.4979 24.8944 36.4983C23.7234 35.7168 22.5068 34.981 20.6493 34.8801C20.5901 35.1009 20.8114 35.043 20.8126 35.204ZM33.1397 36.4177C33.018 35.8638 32.7755 35.4293 32.4868 35.0416C32.593 35.6104 32.7395 36.1395 33.1397 36.4177ZM24.1595 38.1978C23.1349 36.8387 21.5025 35.6544 19.6697 35.3653C19.9285 37.5363 22.3629 37.5519 24.1595 38.1978ZM21.3842 38.6831C20.6845 37.5157 19.485 36.8431 18.0367 36.4177C18.8507 37.4205 19.5964 38.9151 21.3842 38.6831ZM17.6287 37.5507C17.9074 38.0304 18.6081 38.5207 18.4453 39.1691C17.7295 38.9617 17.3815 38.3892 16.6492 38.198C17.038 38.7334 18.5222 41.1068 19.4245 41.031C20.0004 40.9816 20.2608 40.3514 20.1592 39.3314C19.7179 38.3924 18.3132 37.978 17.6287 37.5507ZM21.7922 39.6547C21.9737 40.1494 22.0374 40.7602 22.6905 40.7873C22.5793 40.2234 22.247 39.878 21.7922 39.6547ZM21.2206 39.8978C20.9162 39.8648 20.7419 39.9618 20.7311 40.2209C20.8226 40.2387 20.8582 40.3105 20.8941 40.3826C21.1551 40.3725 21.2539 40.1996 21.2206 39.8978ZM35.1805 41.7587C35.2656 41.3013 35.352 40.4201 35.1805 39.9782C35.0757 40.4328 34.6814 41.4554 35.1805 41.7587ZM29.4661 40.0591C29.5284 40.5374 29.2952 41.3078 29.7109 41.4356C29.7291 41.0815 29.8123 40.2841 29.4661 40.0591ZM33.3028 41.9206C33.066 41.7125 32.7261 42.0271 32.5681 41.8401C32.4012 41.3043 32.4703 40.5347 31.9968 40.3022C31.9428 40.3022 31.888 40.3022 31.8338 40.3022C31.1614 41.6827 31.2278 44.6483 32.405 45.4001C32.6273 45.7736 32.649 46.3455 33.2214 46.3718C33.6919 46.0015 33.8075 45.2808 33.8746 44.5099C32.8528 44.2972 33.8047 42.5512 33.3028 41.9206ZM35.7522 42.8103C35.8528 42.0938 36.4708 41.0517 35.9971 40.3022C35.8407 41.0114 35.5447 42.0109 35.7522 42.8103ZM21.3842 43.4587C21.5143 43.0888 21.4121 42.4614 21.1391 42.2445C20.9487 42.5988 20.8379 43.4148 21.3842 43.4587ZM22.8534 43.7819C23.1831 43.9946 23.2084 44.5087 23.67 44.5912C24.2444 43.8645 23.1548 42.5836 22.8534 43.7819ZM36.8133 45.4001C36.8139 45.6482 36.486 45.9874 36.7318 46.2092C36.779 46.0088 37.0274 45.5917 36.8133 45.4001ZM37.5478 48.5563C37.5444 48.1827 37.5938 47.7565 37.3848 47.5857C37.3482 47.8738 37.1328 48.5119 37.5478 48.5563ZM27.1803 51.8749C27.2287 52.1762 27.2783 52.4786 27.5883 52.522C27.7885 52.2444 27.6407 51.7526 27.1803 51.8749ZM30.8539 52.2797C30.9674 52.4934 31.2937 52.9178 31.5067 52.7643C31.3178 52.6263 31.0999 52.0927 30.8539 52.2797ZM38.609 53.17C38.3797 54.1335 38.9226 55.0113 39.344 55.5977C39.5165 54.6582 39.5003 53.313 38.609 53.17ZM40.6504 59.4001C40.7738 59.1554 40.8174 58.4014 40.5688 58.2685C40.3538 58.5607 40.1621 59.2604 40.6504 59.4001ZM44.3232 63.2854C44.2051 62.6907 43.7351 62.0485 43.2624 62.0708C43.4277 62.6619 43.4564 63.3896 44.3232 63.2854ZM45.0587 64.418C45.0621 64.7924 45.0131 65.2195 45.2217 65.3886C45.2323 65.0017 45.2267 64.6289 45.0587 64.418ZM18.1184 64.4991C18.1196 64.7955 18.2796 64.9328 18.4453 65.0657C18.4126 64.8005 18.3744 64.5428 18.1184 64.4991ZM47.9976 68.9495C47.7966 67.4235 46.987 66.4998 45.9568 65.7942C46.1042 67.3735 46.885 68.327 47.9976 68.9495ZM61.1413 76.9616C61.0917 76.9158 60.7536 76.7728 60.7329 76.9616C60.8556 77.0552 61.0767 77.2458 61.1413 76.9616ZM102.531 82.9502C102.531 83.2476 102.531 83.5432 102.531 83.8404C102.398 84.1139 102.355 84.4753 102.286 84.8113C100.016 86.2565 95.751 85.7244 93.8771 87.5632C90.5906 85.8082 87.5362 88.5726 84.0815 88.8585C83.5108 88.9051 82.876 88.8109 82.2844 88.8585C80.2432 89.0218 78.2498 89.495 76.1622 89.6674C74.0216 89.8442 71.8766 89.9737 69.6316 90.0723C68.8146 90.0723 67.9988 90.0723 67.1826 90.0723C57.0573 89.5452 47.0462 88.195 39.5892 84.8926C35.8716 83.246 32.4496 81.2259 29.3031 78.8229C26.2411 76.4857 23.0981 73.8872 20.8941 70.9735C18.5477 67.8708 16.2001 64.8536 14.1183 61.4247C12.11 58.115 10.2327 54.6288 8.56725 50.7419C6.92429 46.9091 5.75368 43.1164 4.64821 38.4411C3.92565 35.3833 3.16304 31.9212 1.8727 29.0539C1.37027 27.9373 0.785363 27.0233 0.72998 25.9782C0.72998 25.7359 0.72998 25.4924 0.72998 25.2501C1.1326 21.851 3.79934 19.8779 6.93425 18.9375C7.71917 18.7023 8.48238 18.4776 9.22009 18.0472C9.2681 18.0198 9.73845 17.9722 9.547 17.7238C8.15028 17.3906 7.00119 19.429 5.46521 18.8567C4.10156 18.3484 4.88668 16.2555 6.36329 15.6198C7.05259 15.3229 8.42122 15.2457 9.05693 14.8914C10.153 14.2808 10.6505 12.9906 10.4451 11.8162C10.3234 11.1222 9.59681 10.7569 9.62868 10.1976C9.67331 9.41773 11.08 8.73957 11.751 8.25533C12.5719 7.66307 13.5437 6.9233 13.4654 5.98939C13.383 5.01381 12.2255 4.70297 11.6693 3.96635C10.7961 2.81027 10.6576 1.08228 12.0773 0.405098C13.5656 -0.304861 16.3386 0.0820132 16.6492 1.94292C16.9229 3.58303 15.7483 4.20787 16.2406 5.42261C17.1578 7.68302 24.2908 4.10498 22.5271 8.82172C24.0958 11.2593 30.2259 9.17403 30.3642 13.0299C32.9209 13.0809 34.0959 15.0042 36.1602 15.7815C36.7135 15.9896 37.3723 15.9896 37.9564 16.1859C41.4379 17.359 45.7522 18.6174 47.1812 21.9318C45.8899 22.7942 44.1276 22.2167 42.61 21.6891C41.2897 21.2295 39.3653 20.3195 38.0381 20.8796C36.7222 21.4351 36.7926 23.6637 36.9768 25.8967C37.4669 31.8414 37.7544 37.9731 38.6092 43.2959C39.8032 50.7259 42.3551 56.6767 45.957 61.3429C49.4414 65.8572 53.5347 70.5844 58.855 73.8868C63.3444 76.6723 68.3883 78.8701 74.7746 80.2794C75.7217 80.4889 76.8666 80.9463 77.3868 80.846C78.158 80.699 79.8174 78.4759 80.4081 77.9331C81.8124 76.6387 83.702 74.8278 85.7135 76.3948C85.4402 78.5524 83.49 79.0477 83.0195 81.0085C84.2289 81.7714 85.5115 81.0808 87.0202 81.1694C88.7757 81.2729 90.1218 82.2708 91.5925 82.0597C92.531 81.925 93.0007 81.232 93.7147 80.7654C95.3368 83.1161 101.591 80.056 102.531 82.9502ZM84.8152 76.9616C84.7806 76.7005 84.923 76.2619 84.6523 76.2341C84.4168 76.3524 84.1841 77.0963 84.8152 76.9616ZM43.7529 19.9895C44.5525 20.4643 45.2566 21.0346 45.9568 21.6087C46.3784 20.3782 45.1685 19.591 43.7529 19.666C43.7529 19.7735 43.7529 19.8815 43.7529 19.9895ZM65.7129 79.6322C66.0243 79.6972 66.2496 79.7588 66.2845 79.3899C65.9937 79.3711 65.7958 79.4434 65.7129 79.6322ZM54.4467 72.5103C54.4192 72.8914 55.1948 72.8988 55.3456 72.834C55.2179 72.581 54.831 72.2526 54.4467 72.5103ZM52.4874 70.9731C52.6233 71.1093 52.9669 71.0371 53.2221 71.0542C53.2494 70.7578 53.1309 70.6044 53.059 70.4063C52.6299 70.3597 52.5113 70.619 52.4874 70.9731ZM36.8133 37.8738C36.5918 37.6877 36.431 38.0286 36.3234 37.8738C36.5894 35.8661 37.0167 32.7751 36.1602 31.0767C35.9485 30.8935 35.6134 31.1411 35.5074 30.9954C36.0774 29.6465 36.4623 26.8334 36.2419 25.1688C36.1644 24.582 35.857 23.5385 35.5074 23.3075C34.6288 22.7276 33.8294 23.6187 33.2212 23.7931C32.8385 23.9037 32.4129 23.8247 31.9968 23.8736C30.3506 24.0703 28.6039 24.5569 27.507 25.0874C28.0787 25.4652 28.8892 25.6056 29.1394 26.3011C27.717 26.2014 26.6073 25.791 25.3839 25.4922C25.5144 27.318 23.2556 26.7459 21.8739 26.8683C22.3512 26.8786 22.4277 27.1073 22.4454 27.4345C22.5022 28.5086 18.9366 29.7816 17.7104 28.9727C15.9615 30.3705 18.48 31.7983 18.3634 33.5856C18.0196 33.8382 17.8608 34.2738 17.547 34.5558C15.8088 34.5977 13.9806 34.9443 14.281 36.7412C14.0462 36.6053 13.6756 36.5147 13.383 36.6598C12.9387 37.7944 13.6846 39.0259 14.6896 39.25C14.9428 39.177 15.0018 38.9121 15.3427 38.9264C17.613 39.3567 18.4122 40.8493 18.2818 43.7004C18.259 44.1913 18.3082 44.832 17.9552 45.1576C16.6669 45.0701 15.4724 41.9179 17.5468 41.8399C17.0494 41.1143 16.6727 40.0319 15.7507 40.0589C14.6938 40.0901 14.2195 41.7459 13.4648 42.3251C14.5526 42.9209 17.1072 44.5652 15.0158 45.643C16.0511 45.7969 16.6288 46.2039 17.0566 46.7754C17.7694 47.7297 17.7466 49.1595 18.2814 49.9322C19.3633 51.4967 19.9345 48.5289 21.2198 49.7697C21.5234 49.8732 21.0862 49.4774 21.0567 49.4468C19.954 48.2666 18.2722 47.2993 17.6281 45.8859C18.1232 45.661 18.7868 45.9065 19.2605 45.9665C19.4478 45.0158 18.7814 43.9399 19.0157 43.2144C19.1844 42.6942 19.4958 42.9233 19.8323 42.7293C20.0301 42.6152 19.8753 42.1902 20.2407 42.3249C20.2385 43.4359 19.5631 45.3057 20.3218 46.1283C21.4296 46.3253 21.7496 44.4368 22.6897 44.4289C23.2148 44.4244 23.7111 45.3407 24.0772 45.8046C24.5171 46.3613 25.115 47.0454 24.9753 47.6655C24.6813 48.9728 22.4663 47.9775 21.7099 47.4226C22.1709 49.2367 25.0076 49.5183 25.1385 51.8745C25.1534 52.1373 25.0195 52.4731 25.057 52.764C25.2174 54.0073 26.387 54.9314 27.5875 54.1404C27.764 54.5864 27.7871 55.1841 28.2411 55.3542C28.6387 55.0208 28.4975 54.1517 28.7306 53.6542C30.155 53.9499 30.8987 54.6298 31.3427 55.7582C31.5627 56.3165 31.5059 57.3513 32.404 57.3768C32.5414 55.9972 31.4509 55.1423 31.2615 53.816C31.9932 54.9863 34.6326 56.2525 34.527 58.1053C34.4569 59.3274 32.9919 59.4603 31.588 59.6428C32.9259 60.0986 33.4863 61.584 34.935 62.0702C35.3243 62.2018 35.8244 62.0892 36.2411 62.2328C37.3012 62.5983 38.9961 64.7525 38.5274 66.1173C36.2686 67.2457 34.5063 64.1958 31.9962 64.2564C33.0546 65.5942 34.786 66.0393 36.2413 66.6841C37.8076 67.3773 39.3758 68.0874 40.8947 68.7879C44.475 70.4387 46.9603 72.5986 49.3035 75.343C47.6777 76.2218 42.7498 74.7601 45.7114 73.7237C44.6812 73.6891 43.5909 73.0486 42.6904 73.401C43.1678 76.4888 47.2661 75.987 50.3647 76.4756C50.0826 77.0053 49.685 77.4208 49.3848 77.9325C49.6236 78.0721 49.9538 78.123 50.3647 78.0942C50.1663 78.4096 49.6497 78.4104 49.6296 78.9031C50.0265 79.427 50.812 79.5659 51.3441 79.9551C53.4421 78.4637 53.6774 81.8472 55.0177 81.8974C56.2843 81.9442 56.5272 80.1399 57.794 79.9551C57.4757 80.6113 56.8527 80.9644 56.5696 81.6551C57.8099 81.3578 58.1636 80.6959 59.1808 80.4405C62.8261 79.5264 65.8144 82.5362 68.814 82.869C69.8926 82.9881 70.9648 83.5884 71.9164 83.7593C73.1468 83.9793 73.9032 83.5778 74.8551 83.1121C73.4054 81.7702 70.0766 82.2927 68.8961 80.6836C68.9417 80.4054 69.1337 80.2723 69.3045 80.1178C65.4835 80.9498 63.0777 78.6799 61.4672 76.557C56.7533 75.3499 52.6177 73.5684 50.609 69.6784C50.5126 69.312 50.971 69.4977 50.8546 69.1116C49.1973 67.2835 47.5408 65.4275 46.2013 63.2848C45.7383 62.545 45.4213 61.6152 44.8948 61.019C44.5613 60.6412 44.0017 60.4333 43.6704 60.0474C43.3076 59.6244 43.2582 59.0947 42.6902 58.915C42.4719 59.2377 42.6183 59.9218 42.4458 60.2905C42.0531 58.7278 41.1784 57.2437 39.5069 57.2151C39.4758 56.0785 40.402 55.8913 40.8945 55.2728C40.2462 54.5001 40.09 53.5268 39.7518 52.3599C38.9294 49.5242 38.2498 46.5619 37.5472 43.9431C36.6161 44.2877 36.3692 45.3109 35.9148 46.1283C35.9596 44.9591 36.0148 43.7995 36.6497 43.2144C36.94 43.2505 36.9719 43.543 37.1392 43.7002C37.2926 43.1488 37.8189 42.6345 37.5472 41.92C37.3364 41.5974 36.7202 41.7478 36.568 41.7583C36.9709 40.7809 37.3091 39.0071 36.8133 37.8738ZM69.6314 85.8641C70.3372 85.5651 70.9725 85.1971 71.2634 84.4876C70.4962 84.6782 69.4144 84.9655 69.6314 85.8641ZM69.7127 84.2453C69.2405 84.5046 68.7094 84.7076 68.407 85.1355C69.0837 85.1756 69.8766 84.5022 69.7127 84.2453ZM67.1824 85.459C67.6446 85.3368 68.1392 84.8636 68.0805 84.4876C67.5438 84.5409 66.7136 84.9203 67.1824 85.459ZM67.5089 83.5973C66.7742 83.3673 66.1743 83.9374 66.1204 84.6501C66.775 84.4892 67.218 84.1189 67.5089 83.5973ZM65.2225 83.7599C64.5049 83.8839 63.9682 84.1868 63.7528 84.8111C64.63 85.1561 65.079 84.4088 65.2225 83.7599ZM64.08 85.8641C64.2822 85.8755 64.4758 85.8787 64.4884 85.7015C64.3658 85.5732 64.0228 85.583 64.08 85.8641ZM65.3864 82.3836C64.2441 82.2967 62.8779 83.0315 63.5903 84.0022C64.3509 83.6228 65.1213 83.2541 65.3864 82.3836ZM59.7529 83.9218C60.4663 84.0211 60.6528 83.2122 61.1415 83.3542C61.425 83.5316 61.2526 84.1615 61.7122 84.1641C62.7801 83.9488 63.1645 82.5044 62.5284 81.4935C61.0893 81.7445 59.7726 82.5297 59.7529 83.9218ZM60.0792 81.8176C59.6459 82.0352 59.1846 82.2242 58.9369 82.6265C59.471 82.6036 60.2665 82.0196 60.0792 81.8176ZM57.7944 82.2224C57.84 82.4377 57.4581 82.634 57.7115 82.7882C57.7795 82.6865 58.2088 82.2864 57.7944 82.2224ZM56.3248 84.1639C56.2991 84.2741 56.208 84.3183 56.2437 84.4876C56.3515 84.4876 56.4608 84.4876 56.5702 84.4876C56.5923 84.2757 56.5393 84.14 56.3248 84.1639ZM55.1004 83.7599C54.6878 83.7828 54.5318 84.0596 54.5286 84.4876C54.884 84.4094 55.2079 84.2986 55.1004 83.7599ZM46.8541 79.6322C46.3511 79.6103 46.1977 79.6873 46.773 79.7949C47.3211 79.8951 48.2879 79.9476 48.6509 79.7949C48.22 79.79 47.1065 79.6439 46.8541 79.6322ZM49.3039 78.3379C48.8768 78.016 48.0181 78.2492 47.5896 78.4185C47.8369 79.0919 49.0509 78.7929 49.3039 78.3379ZM46.6919 84.407C48.728 85.4647 51.5314 86.6194 54.4467 86.2681C52.3282 85.2398 49.1778 84.8012 46.6919 84.407ZM43.671 83.5167C43.866 83.7822 44.3266 83.7837 44.6501 83.9218C45.2528 83.3443 43.9282 83.0191 43.671 83.5167ZM35.9969 76.9616C35.4458 77.0092 34.8462 77.0076 34.6908 77.4478C35.2157 77.6408 35.9754 77.5209 35.9969 76.9616ZM34.4456 79.0656C34.6374 79.238 34.9902 79.4434 35.0988 79.0656C35.0143 78.9801 34.5161 78.8989 34.4456 79.0656ZM35.4253 72.1868C35.4994 71.8485 34.8494 71.7206 34.7725 72.0253C34.9514 72.1169 35.1064 72.2336 35.4253 72.1868ZM36.487 74.938C36.483 74.827 36.5254 74.7606 36.5684 74.6957C36.3252 74.4466 35.8333 74.4024 35.4253 74.5339C35.4907 74.9232 36.1445 75.0857 36.487 74.938ZM36.5686 80.1184C36.673 80.2286 36.9539 80.2286 37.0583 80.1184C37.0968 79.8639 36.9563 79.7874 36.8135 79.7128C36.7402 79.8566 36.6163 79.9492 36.5686 80.1184ZM39.0995 70.8113C38.8336 70.0492 37.9664 70.2503 37.3848 70.0022C36.4503 69.6031 35.6524 68.6505 34.4458 68.6268C34.3916 68.6268 34.3368 68.6268 34.283 68.6268C35.3325 69.8527 36.7214 71.1702 39.0995 70.8113ZM34.854 67.8179C34.092 67.3046 33.2572 66.8636 32.1599 66.6847C32.5088 67.5526 33.8666 67.8516 34.854 67.8179ZM37.3846 71.6202C37.957 72.2133 38.6754 72.6616 39.9155 72.5911C39.4388 71.9569 38.2997 71.5503 37.3846 71.6202ZM40.4869 75.2625C39.6464 74.685 38.3244 73.7481 37.2215 73.9672C37.8594 74.7919 39.1418 75.4094 40.4869 75.2625ZM37.3846 78.3379C37.3649 78.453 37.2504 78.4736 37.2215 78.5794C37.4227 78.8397 37.7255 78.3922 37.3846 78.3379ZM39.2623 80.7656C39.3316 81.0742 39.6314 81.1548 39.9155 81.251C40.0261 81.0638 40.2434 80.9824 40.1604 80.6038C39.9619 80.4855 39.2483 80.4174 39.2623 80.7656ZM40.8136 77.2047C40.5608 77.0513 39.6388 76.8797 39.4254 77.2047C39.8215 77.3641 40.5994 77.7764 40.8136 77.2047ZM41.0584 74.4526C41.1401 73.8506 40.4532 73.8481 40.1604 74.0477C40.1878 74.4526 40.7281 74.3493 41.0584 74.4526ZM41.9563 70.0828C41.5876 69.5308 40.5634 69.6294 39.8338 69.4357C39.2995 68.7705 38.0219 68.529 36.895 68.7073C38.1857 69.5597 39.6537 70.2347 41.9563 70.0828ZM41.7932 77.8517C42.1438 78.1517 42.6934 78.2542 43.1809 78.4185C43.207 78.2279 43.3096 78.1145 43.2624 77.8517C43.0247 77.5799 41.9934 77.4395 41.7932 77.8517ZM34.854 64.7414C34.9356 64.3638 34.7115 64.2898 34.3641 64.3374C34.241 64.7562 34.6482 64.6486 34.854 64.7414ZM36.8133 65.7131C36.5748 65.653 36.6551 65.277 36.3234 65.3082C36.0226 65.5817 36.5645 65.998 36.8133 65.7131ZM31.1804 66.2796C30.9094 65.6858 30.2988 65.4273 29.8743 64.9845C30.6704 63.8413 28.8941 63.3733 28.568 62.5568C28.5642 62.3106 28.7403 62.2423 28.8129 62.0706C28.1269 61.6723 27.3348 61.3785 26.935 60.696C27.2508 60.4694 28.0925 60.7633 28.4043 60.5334C27.9098 60.3223 27.3759 60.1507 27.1799 59.6432C27.4661 58.9828 28.63 59.1931 28.8941 58.5106C27.4878 58.2027 26.0907 57.4619 24.5671 57.5391C24.5844 58.1156 25.102 58.196 25.3018 58.5912C24.8502 58.3923 24.4848 58.1057 23.8326 58.1057C23.7838 58.5048 24.0446 58.5969 23.9961 58.996C23.5509 59.0321 23.3252 58.8516 22.8528 58.9156C23.1895 59.6603 24.0529 59.8837 24.3227 60.6961C23.9888 60.7799 23.5355 60.5646 23.4246 60.6961C24.2864 61.4057 25.5451 62.1538 26.0365 62.9611C25.2347 62.8134 24.7757 62.3238 23.9961 62.1522C24.6488 63.4333 26.238 63.7003 27.4247 64.3374C28.6395 64.9893 29.7281 66.0407 31.1804 66.2796ZM29.3842 67.2505C29.7255 67.4353 30.4048 68.0223 30.8539 67.5749C30.4753 67.4087 29.8799 67.0311 29.3842 67.2505ZM28.7314 66.8454C28.5017 66.4767 27.3297 66.2804 27.0173 66.5218C27.55 66.6738 28.052 67.0836 28.7314 66.8454ZM27.2617 67.0885C27.236 67.1985 27.1458 67.2428 27.1803 67.413C27.3239 67.3662 27.6598 67.5098 27.6701 67.3316C27.5434 67.2414 27.4998 67.0688 27.2617 67.0885ZM26.2005 56.3252C25.9778 55.5647 25.6803 54.7313 25.0578 54.1406C24.7225 53.8221 24.3978 53.8286 24.1597 53.4113C23.5288 52.3109 23.8312 50.7573 23.0168 49.6089C22.8241 49.5467 22.4526 49.4488 22.2821 49.6089C22.2974 50.1396 23.5397 51.3978 22.6907 52.0366C20.8132 52.1105 20.0905 50.6289 18.2823 50.9033C17.8751 51.9487 19.3147 52.4859 18.935 53.2506C21.532 54.0768 23.5945 55.867 26.2005 56.3252ZM20.3225 58.7529C20.8023 59.1151 21.4957 59.6941 22.1187 59.6432C21.6252 59.2966 21.1712 58.4804 20.3225 58.7529ZM19.4245 58.0254C19.2127 57.3723 18.8455 56.873 18.0367 56.8116C18.2013 57.5111 18.9681 57.6148 19.4245 58.0254ZM18.0367 60.1294C18.4738 60.4258 18.9079 61.1525 19.343 61.1814C19.0248 60.7682 18.6372 59.9939 18.0367 60.1294ZM18.6085 54.5449C18.6507 54.425 18.7288 54.3413 18.7716 54.2212C18.5623 53.9354 18.0461 54.0915 17.9554 54.3837C18.116 54.4939 18.4216 54.4611 18.6085 54.5449ZM31.2623 57.7821C31.2507 57.0857 30.4704 56.6817 29.8743 57.0543C30.0632 57.5686 30.6323 57.705 31.2623 57.7821ZM23.5877 47.1816C23.6015 47.0477 23.0851 47.0477 23.0983 47.1816C23.2102 47.2061 23.5907 47.547 23.5877 47.1816ZM20.4046 46.8572C20.2957 46.8572 20.1867 46.8572 20.0777 46.8572C19.9655 46.9612 19.997 47.2095 19.996 47.423C20.1452 47.4451 20.4538 47.7152 20.5678 47.5049C20.3658 47.4344 20.5913 46.9417 20.4046 46.8572ZM14.2812 46.7758C14.5518 47.386 15.6469 47.3408 15.8326 46.6954C15.368 46.5171 14.6837 46.6411 14.2812 46.7758ZM14.5267 44.5099C14.2109 44.4943 13.9248 44.5073 13.7097 44.5912C13.7732 44.9443 14.5245 44.8815 14.5267 44.5099ZM15.261 31.4812C14.8414 31.6733 13.9665 31.2886 13.5469 31.4812C13.9185 32.9392 16.6723 32.1542 16.486 30.9954C16.3278 30.0123 13.7091 30.2558 12.8122 30.3482C13.5073 30.8459 14.6121 30.9375 15.261 31.4812ZM11.9958 33.0186C12.1494 33.2441 12.5715 33.203 12.8122 33.3423C12.8594 33.1736 13.0148 33.1116 12.9754 32.8569C12.7612 32.7447 11.9906 32.6564 11.9958 33.0186ZM16.1595 32.6951C16.1154 32.8717 15.9615 33.2186 16.2406 33.2617C16.435 33.1258 16.3944 32.8124 16.1595 32.6951ZM18.4453 27.8393C18.4238 27.6028 18.6296 27.5913 18.6085 27.3539C18.2766 27.3217 18.0393 27.3834 18.0367 27.6774C18.1921 27.7126 18.2417 27.8518 18.4453 27.8393ZM18.3636 9.87372C18.0385 11.8486 19.8335 14.2376 21.9553 13.5152C22.0544 12.7698 21.7113 12.4628 21.7105 11.816C22.252 11.6858 22.5707 12.2013 22.8532 12.0587C22.0591 10.6342 19.9468 10.5163 18.3636 9.87372ZM17.4652 8.01243C18.1827 8.15323 19.3089 8.08194 19.588 7.52681C19.046 7.16778 17.4195 7.07161 17.4652 8.01243ZM15.5058 2.34737C15.6628 0.775581 13.7252 -0.0929588 12.5674 0.971882C11.8436 1.63701 11.5292 3.24336 12.6488 3.80441C12.5217 3.39048 12.1506 3.21926 12.2408 2.59067C13.0917 2.10841 14.6518 2.82587 15.5058 2.34737ZM14.9351 7.52661C15.1427 7.40911 15.4544 7.39509 15.4248 7.04119C15.1737 7.06627 14.746 7.33446 14.9351 7.52661ZM13.2202 13.5152C14.2382 13.5391 15.0058 12.9699 15.9959 12.949C16.853 12.931 17.6698 13.1838 18.69 13.1107C17.9614 10.9911 14.4215 12.8421 13.2202 13.5152ZM11.6693 17.2379C13.5955 16.9952 16.2792 15.7388 18.8533 16.0242C19.8243 16.1316 20.6748 16.6733 21.2206 17.0762C20.9423 16.7818 20.6126 15.5733 21.2206 15.377C22.5604 15.63 22.605 18.1393 24.2412 17.8047C25.0747 17.6343 25.3285 16.0315 24.8944 15.0532C25.5174 15.4876 25.8383 16.2215 26.6906 16.429C26.4961 15.6506 25.931 15.2396 25.5479 14.6485C25.7885 14.3479 26.1037 14.1204 26.0373 13.5152C23.7011 13.2926 21.6274 14.5427 19.4247 14.972C17.7152 15.3058 16.443 15.6363 14.9353 16.024C13.8017 16.3153 12.5405 16.5197 11.6693 17.2379ZM4.81177 33.99C4.69961 34.0931 4.66953 34.4735 4.89325 34.4754C4.96039 34.4168 5.11239 33.9154 4.81177 33.99ZM7.66857 24.3599C4.08881 24.9229 7.90445 28.6968 10.0365 27.759C10.3064 27.348 10.2226 26.9714 10.1996 26.3825C11.4418 26.5032 12.3763 25.9034 13.4654 26.1402C13.6411 26.5164 13.3089 26.8349 13.2204 27.1918C16.9245 26.959 18.7585 24.0739 22.7715 23.6313C23.2702 23.5762 23.8386 23.6637 24.4047 23.6313C26.0947 23.5336 27.9668 23.2231 29.7111 22.9028C31.4226 22.5892 32.9875 21.9653 34.4458 21.6085C36.276 21.16 39.0603 19.9751 38.6913 17.5618C38.6491 17.2871 38.4568 17.0403 38.2829 16.7525C28.5543 15.82 21.2804 19.6007 13.6288 21.1227C12.7096 21.3054 11.592 21.1839 10.8529 21.9316C11.1202 22.5837 12.0598 22.5697 12.4853 23.0646C12.2725 23.3118 11.7464 23.2486 11.6693 23.6313C11.8494 24.3158 12.873 24.1634 12.9754 24.9264C11.3503 26.062 7.9429 24.6136 8.73021 22.3366C6.27484 22.87 2.69986 23.4001 2.6893 26.1402C2.68432 27.3478 3.41047 28.4648 4.24002 29.1345C3.67802 26.5849 4.63327 22.8149 7.66857 24.3599ZM10.6895 39.4929C10.7638 38.9449 9.8552 38.5612 9.54681 38.9268C9.84763 39.1947 10.3186 39.2937 10.6895 39.4929ZM7.83213 40.545C8.40946 42.5348 8.59733 44.9119 10.118 45.9671C9.88906 43.6313 9.05294 41.8975 7.83213 40.545ZM11.2609 38.4409C11.5151 37.2985 9.82432 36.851 9.70997 37.6315C9.61016 38.3112 10.6913 38.2322 11.2609 38.4409ZM11.5876 36.2556C11.219 35.8561 10.2941 35.6084 9.62849 35.7702C9.86336 36.3431 11.3085 37.1909 11.5876 36.2556ZM10.608 32.6951C10.9768 32.4672 11.3681 32.261 11.424 31.7235C10.9503 31.372 9.81615 31.3224 9.70997 31.8862C9.62968 32.3124 10.2058 32.4852 10.608 32.6951ZM11.6693 34.0706C11.7049 33.7925 11.637 33.6174 11.5876 33.423C11.1688 33.4128 10.9734 33.6235 10.9346 33.99C11.1378 34.058 11.3718 34.0957 11.6693 34.0706ZM5.95469 33.6661C5.89174 33.4588 5.87301 33.2074 5.70985 33.0998C5.50685 33.3176 5.49908 33.7088 5.95469 33.6661ZM6.77109 28.1634C6.40473 28.0218 5.86245 28.1729 5.70985 28.4869C5.88118 28.6402 6.12781 28.7201 6.36289 28.8102C6.44537 28.5424 6.81452 28.5572 6.77109 28.1634ZM7.66857 38.6027C7.4574 38.1378 7.4309 37.4899 7.01593 37.2272C5.89811 37.3848 7.00557 38.9767 7.66857 38.6027ZM9.21989 47.3424C10.017 49.2527 10.8583 51.3174 12.5674 52.1978C11.2894 50.7883 10.9878 48.4562 10.118 46.7758C9.81715 46.196 9.33723 45.7451 9.05673 45.1578C8.39672 43.7748 8.09251 42.1612 6.77109 41.516C7.29185 43.5511 8.40727 45.3928 9.21989 47.3424ZM31.6704 77.6901C31.1764 76.0222 29.8502 75.1777 27.9967 74.8576C27.5385 73.7744 26.216 73.5485 25.9559 72.2682C25.9136 72.0053 26.4615 71.9125 26.2828 71.7828C23.7981 72.2492 23.7105 69.6387 22.5273 68.5454C19.5416 68.5989 20.097 64.9369 18.4455 63.0431C17.9738 62.5012 17.506 62.3762 16.9759 61.8293C16.1601 59.323 14.031 58.0516 12.8124 55.841C11.73 53.8766 11.5023 51.6608 9.71036 50.2565C11.1282 55.0149 14.1657 59.0373 16.8944 63.0433C19.0786 66.2484 20.564 69.3012 23.017 71.8635C23.8505 72.7331 24.7916 73.3154 25.7929 74.1293C27.496 75.5137 28.6688 78.0818 31.6704 77.6901ZM31.3435 72.1868C31.2557 71.8402 30.6259 71.6064 30.2823 71.7828C30.5989 71.9554 30.9467 72.095 31.3435 72.1868ZM34.3641 70.0828C33.8111 69.444 32.6532 69.2007 31.5886 68.7883C30.2679 68.2758 28.3837 67.7906 27.4253 68.3835C27.5217 69.1775 28.1598 69.4355 28.568 69.9209C29.7022 70.0941 30.3512 70.6427 31.425 70.7298C32.6906 70.8335 33.8726 70.7776 34.3641 70.0828ZM73.3048 88.5346C70.8345 87.4179 67.2115 88.6743 64.5694 88.0484C64.0708 87.9301 63.6299 87.5903 63.1819 87.563C62.7362 87.536 62.2175 87.7692 61.7941 87.8061C59.5316 88.0056 57.4661 87.784 55.3454 87.4817C53.8574 87.2698 52.2727 87.1868 50.9363 86.8345C49.6563 86.4978 48.3325 85.7209 47.0177 85.2159C45.6835 84.7042 44.2945 84.1943 43.0176 83.6785C40.4982 82.661 37.8207 80.9003 35.1803 80.199C36.9615 82.0747 40.0281 82.6774 42.1199 84.2453C39.1639 83.4257 36.9334 81.8875 34.2826 80.7656C36.3479 82.5986 39.2298 83.7089 42.1199 84.8922C44.998 86.0716 48.1255 87.0693 51.5075 87.5628C58.2253 88.5437 66.1046 90.0006 73.3048 88.5346ZM75.4273 88.2915C75.0081 88.3081 74.4859 88.2216 74.4481 88.6152C74.8033 88.9174 75.4008 88.886 75.4273 88.2915ZM79.8356 78.742C79.9515 79.3399 80.8273 79.1616 80.7344 78.499C80.2894 78.4364 80.0965 78.6239 79.8356 78.742ZM86.6114 82.9502C84.4168 82.8976 81.7096 82.1462 79.427 82.2224C78.5512 82.2513 77.4868 82.459 77.2232 83.354C77.8968 83.625 78.6183 83.4624 79.427 83.4362C82.0748 83.3475 85.3101 84.5269 86.6114 82.9502ZM88.816 82.7882C88.4341 82.7874 88.3215 83.0544 88.2444 83.354C88.3494 83.4656 88.5988 83.4354 88.816 83.4362C88.7771 83.0781 88.9279 83.0331 88.816 82.7882ZM93.6327 82.4649C93.2342 82.4049 93.0858 82.8961 93.2243 83.1127C93.4811 83.1512 93.5432 82.997 93.7145 82.9502C93.7735 82.7029 93.5737 82.712 93.6327 82.4649ZM100.408 82.9502C98.7366 82.7736 96.7849 82.8828 95.2655 83.1127C96.1602 83.9479 99.3737 83.4148 100.408 82.9502ZM21.8739 33.7465C22.6791 34.1901 23.4222 35.1246 24.4864 35.0416C24.1989 34.6524 23.7913 34.3818 23.5063 33.99C23.8095 33.9663 24.0671 33.8986 24.1595 33.6661C23.1666 32.9775 21.8932 32.1364 21.384 31.2377C21.7201 31.8833 22.2345 32.9118 21.8739 33.7465ZM32.3235 34.3947C32.1488 34.2173 32.2275 33.7878 31.9966 33.6663C31.9446 34.0185 32.1745 34.5108 32.3235 34.3947ZM24.8127 41.4356C24.9378 42.768 25.7969 43.3722 25.874 44.7534C24.9197 43.6763 24.387 42.1807 23.7515 40.7873C23.6891 42.4728 24.2031 43.5171 24.6496 44.6726C24.9932 45.5605 25.3154 46.6026 26.2005 46.8574C26.6139 46.7809 26.5908 46.2716 27.0175 46.2094C27.4713 46.2742 27.7076 46.9804 27.9967 46.9385C27.7787 46.6956 27.7108 46.3046 27.6701 45.8865C27.749 45.5867 28.1813 45.6377 28.323 45.4003C27.502 43.733 26.3252 42.4173 24.8127 41.4356Z" fill="black"/>
</svg>
