<svg width="90" height="91" viewBox="0 0 90 91" fill="none" xmlns="http://www.w3.org/2000/svg">
<path d="M90 32.6436C90 21.2426 90 15.5421 87.7812 11.1875C85.8295 7.35703 82.7152 4.24277 78.8848 2.29105C74.5302 0.0722656 68.8297 0.0722656 57.4287 0.0722656H32.5713C21.1703 0.0722656 15.4697 0.0722656 11.1153 2.29105C7.28486 4.24277 4.17054 7.35703 2.21882 11.1875C2.86102e-06 15.5421 2.86102e-06 21.2426 2.86102e-06 32.6436V57.5009C2.86102e-06 68.902 2.86102e-06 74.6026 2.21882 78.9569C4.17054 82.7874 7.28486 85.9017 11.1153 87.8534C15.4697 90.0723 21.1703 90.0723 32.5713 90.0723H57.4287C68.8297 90.0723 74.5302 90.0723 78.8848 87.8534C82.7152 85.9017 85.8295 82.7874 87.7812 78.9569C90 74.6026 90 68.902 90 57.5009V32.6436Z" fill="#330000"/>
<path d="M46.3867 56.6318H60.3331L63.1707 65.6726C63.2494 66.0085 63.5587 66.2463 63.8952 66.2296H70.9591C71.3619 66.2296 71.5028 66.0027 71.3817 65.5485L59.3068 29.8809C59.1859 29.5093 59.0651 29.0863 58.9445 28.6115C58.7864 27.7852 58.7057 26.9456 58.7028 26.1038C58.7375 25.855 58.519 25.6353 58.2805 25.6701H48.6807C48.3994 25.6701 48.2387 25.7733 48.1979 25.9797L34.4925 65.6106C34.372 66.0236 34.4925 66.2299 34.8548 66.2296H42.7037C42.9789 66.2611 43.2418 66.0724 43.3074 65.7963L46.3867 56.6318ZM58.1596 48.8294H48.6203C50.1875 43.4738 51.9564 38.1885 53.3899 32.7914C54.9367 38.1978 56.6242 43.5824 58.1596 48.8294Z" fill="#FF9A00"/>
<path d="M26.3427 32.2338C26.9585 32.2592 27.5725 32.1508 28.1449 31.9162C28.7171 31.6816 29.2346 31.3254 29.6633 30.8716C30.0908 30.3978 30.4232 29.8423 30.6408 29.2365C30.8584 28.6309 30.9571 27.9871 30.9314 27.342C30.9532 26.7033 30.8436 26.0672 30.6096 25.4749C30.3753 24.8827 30.0221 24.3478 29.5727 23.9052C29.1278 23.4671 28.6026 23.1239 28.0273 22.8954C27.4522 22.6668 26.8386 22.5576 26.2221 22.5738C24.7728 22.5738 23.6359 23.0176 22.8108 23.9052C22.3942 24.3664 22.0706 24.9074 21.8581 25.4971C21.646 26.0868 21.5489 26.7139 21.5733 27.342C21.5479 27.9893 21.6498 28.6357 21.8729 29.2419C22.0956 29.8481 22.4354 30.4023 22.8712 30.8716C23.3267 31.3322 23.8706 31.6909 24.4678 31.9255C25.0653 32.1598 25.7037 32.265 26.3427 32.2338ZM30.5087 65.6103V36.0112C30.5087 35.6396 30.3483 35.4538 30.0256 35.4538H22.5993C22.2779 35.4538 22.1168 35.6396 22.1165 36.0112V65.6103C22.1165 66.0236 22.2776 66.23 22.5993 66.2297H29.9652C30.3274 66.2297 30.5087 66.0233 30.5087 65.6103Z" fill="#FF9A00"/>
</svg>
