<svg width="81" height="91" viewBox="0 0 81 91" fill="none" xmlns="http://www.w3.org/2000/svg">
<g clip-path="url(#clip0_271_172)">
<path d="M68.73 0.0722656H12.73C6.10256 0.0722656 0.72998 6.11642 0.72998 13.5723V76.5723C0.72998 84.0281 6.10256 90.0723 12.73 90.0723H68.73C75.3574 90.0723 80.73 84.0281 80.73 76.5723V13.5723C80.73 6.11642 75.3574 0.0722656 68.73 0.0722656Z" fill="#F7DF1E"/>
<path d="M51.355 65.1113C52.9175 68.0996 55.105 70.209 58.6987 70.209C61.8237 70.209 63.855 68.4512 63.855 65.9902C63.855 63.1777 61.8237 62.123 58.3862 60.3652L56.5112 59.4863C51.0425 56.8496 47.4487 53.6855 47.4487 46.8301C47.4487 40.502 51.6675 35.5801 58.3862 35.5801C63.23 35.5801 66.6675 37.5137 69.0112 42.4355L63.23 46.6543C61.98 44.0176 60.5737 42.9629 58.3862 42.9629C56.1987 42.9629 54.7925 44.5449 54.7925 46.6543C54.7925 49.1152 56.1987 50.1699 59.48 51.752L61.355 52.6309C67.7612 55.7949 71.355 58.7832 71.355 65.9902C71.355 73.5488 66.0425 77.7676 58.855 77.7676C51.8237 77.7676 47.2925 74.0762 45.105 69.1543L51.355 65.1113ZM24.7925 65.8145C26.0425 68.0996 26.98 70.209 29.6362 70.209C32.1362 70.209 33.6987 69.1543 33.6987 64.9355V35.7559H41.1987V64.584C41.1987 73.3731 36.6675 77.2402 29.9487 77.2402C23.855 77.2402 20.4175 73.7246 18.6987 69.5059L24.7925 65.8145Z" fill="black"/>
</g>
<defs>
<clipPath id="clip0_271_172">
<rect width="80" height="90" fill="white" transform="translate(0.72998 0.0722656)"/>
</clipPath>
</defs>
</svg>
