<svg width="79" height="87" viewBox="0 0 79 87" fill="none" xmlns="http://www.w3.org/2000/svg">
<g clip-path="url(#clip0_271_172)">
<path d="M67.15 0H11.85C5.30543 0 0 5.84268 0 13.05V73.95C0 81.1573 5.30543 87 11.85 87H67.15C73.6946 87 79 81.1573 79 73.95V13.05C79 5.84268 73.6946 0 67.15 0Z" fill="#F7DF1E"/>
<path d="M49.9922 62.8711C51.5352 65.7598 53.6953 67.7988 57.2441 67.7988C60.3301 67.7988 62.3359 66.0996 62.3359 63.7207C62.3359 61.002 60.3301 59.9824 56.9356 58.2832L55.084 57.4336C49.6836 54.8848 46.1348 51.8262 46.1348 45.1992C46.1348 39.082 50.3008 34.3242 56.9356 34.3242C61.7188 34.3242 65.1133 36.1934 67.4277 40.9512L61.7188 45.0293C60.4844 42.4805 59.0957 41.4609 56.9356 41.4609C54.7754 41.4609 53.3867 42.9902 53.3867 45.0293C53.3867 47.4082 54.7754 48.4277 58.0156 49.957L59.8672 50.8066C66.1934 53.8652 69.7422 56.7539 69.7422 63.7207C69.7422 71.0273 64.4961 75.1055 57.3984 75.1055C50.4551 75.1055 45.9805 71.5371 43.8203 66.7793L49.9922 62.8711ZM23.7617 63.5508C24.9961 65.7598 25.9219 67.7988 28.5449 67.7988C31.0137 67.7988 32.5566 66.7793 32.5566 62.7012V34.4941H39.9629V62.3613C39.9629 70.8574 35.4883 74.5957 28.8535 74.5957C22.8359 74.5957 19.4414 71.1973 17.7441 67.1191L23.7617 63.5508Z" fill="black"/>
</g>
<defs>
<clipPath id="clip0_271_172">
<rect width="79" height="87" fill="white"/>
</clipPath>
</defs>
</svg>
