<svg width="91" height="91" viewBox="0 0 91 91" fill="none" xmlns="http://www.w3.org/2000/svg">
<path d="M0.72998 32.6436C0.72998 21.2426 0.72998 15.5421 2.94877 11.1875C4.90048 7.35703 8.01474 4.24277 11.8452 2.29105C16.1998 0.0722656 21.9003 0.0722656 33.3013 0.0722656H58.1587C69.5597 0.0722656 75.2603 0.0722656 79.6147 2.29105C83.4451 4.24277 86.5594 7.35703 88.5112 11.1875C90.73 15.5421 90.73 21.2426 90.73 32.6436V57.5009C90.73 68.902 90.73 74.6026 88.5112 78.9569C86.5594 82.7874 83.4451 85.9017 79.6147 87.8534C75.2603 90.0723 69.5597 90.0723 58.1587 90.0723H33.3013C21.9003 90.0723 16.1998 90.0723 11.8452 87.8534C8.01474 85.9017 4.90048 82.7874 2.94877 78.9569C0.72998 74.6026 0.72998 68.902 0.72998 57.5009V32.6436Z" fill="#001E36"/>
<path d="M20.0157 66.0172V26.4403C20.0157 26.1713 20.1282 26.0173 20.3907 26.0173C24.266 26.0173 28.1395 25.7866 32.0156 25.7866C38.3056 25.7866 45.1161 27.9372 47.5033 34.5172C48.0658 36.1327 48.3657 37.7865 48.3657 39.5173C48.3657 42.8252 47.6158 45.5557 46.1157 47.7096C41.9256 53.7261 34.6632 53.6326 28.1533 53.6326V65.979C28.2041 66.3444 27.8926 66.5173 27.5908 66.5173H20.4657C20.1657 66.5173 20.0157 66.3634 20.0157 66.0172ZM28.1906 33.4404V46.3635C30.772 46.5525 33.473 46.573 35.9531 45.7482C38.6913 44.9582 40.1908 42.5883 40.1908 39.7481C40.2667 37.3281 38.9482 35.0061 36.7033 34.1328C34.2531 33.1138 30.8356 33.0528 28.1906 33.4404Z" fill="#31A8FF"/>
<path d="M71.7551 43.8104C70.6205 43.2122 69.4119 42.7747 68.1625 42.5099C66.5573 42.1322 60.2258 40.8092 60.2232 44.1199C60.2795 45.9681 63.2134 46.8736 64.5098 47.4017C69.0609 48.9641 74.2108 51.757 74.1096 57.3714C74.2487 64.3606 67.4769 67.1548 61.6722 67.1554C58.6505 67.1866 55.5024 66.7186 52.7368 65.4213C52.4726 65.2815 52.3029 64.9829 52.3141 64.6781V57.9905C52.2842 57.7224 52.5722 57.4881 52.7972 57.681C55.5069 59.3196 58.7186 60.1155 61.8535 60.1579C63.2372 60.1579 65.9797 60.0239 65.9591 57.9905C65.9591 56.0394 62.6783 55.1423 61.3704 54.6467C59.4746 53.9701 57.6772 53.0325 56.0273 51.8602C53.7213 50.2155 52.2749 47.5785 52.3141 44.6772C52.3006 38.0963 58.5341 35.1424 64.1478 35.1411C66.772 35.1192 69.5903 35.3137 72.0331 36.3796C72.3845 36.4827 72.4571 36.853 72.4558 37.1844V43.4388C72.478 43.8271 72.047 43.9592 71.7551 43.8104Z" fill="#31A8FF"/>
</svg>
