<svg width="81" height="91" viewBox="0 0 81 91" fill="none" xmlns="http://www.w3.org/2000/svg">
<path d="M40.4014 0.111081C20.1157 0.111081 21.3986 10.0414 21.3986 10.0414V20.3598H40.69V23.5944H13.7157C13.7157 23.5944 0.72998 21.783 0.72998 45.0885C0.72998 68.3939 12.1957 67.4462 12.1957 67.4462H18.8157V56.5746C18.8157 56.5746 18.4443 43.5941 29.9586 43.5941H49.2786C49.2786 43.5941 60.0557 43.7882 60.0557 31.7812V12.0792C60.0557 12.0792 61.69 0.0722656 40.5071 0.0722656L40.4014 0.111081ZM29.7386 7.02347C30.4244 7.00388 31.0999 7.21498 31.6798 7.63007C32.2596 8.04516 32.7177 8.6456 32.9962 9.35546C33.2746 10.0653 33.3608 10.8527 33.2439 11.618C33.127 12.3834 32.8123 13.0923 32.3395 13.6551C31.8668 14.2179 31.2572 14.6094 30.5879 14.78C29.9186 14.9506 29.2197 14.8926 28.5795 14.6135C27.9392 14.3344 27.3865 13.8466 26.9912 13.2118C26.5959 12.577 26.3757 11.8238 26.3586 11.0473V10.9826C26.3586 10.467 26.4483 9.95633 26.6226 9.47991C26.7969 9.00348 27.0524 8.57059 27.3745 8.20595C27.6966 7.84131 28.0789 7.55207 28.4998 7.35472C28.9206 7.15738 29.3716 7.05581 29.8271 7.05581L29.7386 7.02347Z" fill="url(#paint0_linear_301_97)"/>
<path d="M40.9728 90.0658C61.2585 90.0658 59.9757 80.1032 59.9757 80.1032V69.8171H40.6871V66.5825H67.7443C67.7443 66.5825 80.73 68.2256 80.73 45.0561C80.73 21.8865 69.2643 22.6984 69.2643 22.6984H62.5585V33.4276C62.5585 33.4276 62.93 46.4081 51.4157 46.4081H32.0871C32.0871 46.4081 21.3014 46.2238 21.3014 58.2307V78.0654C21.3014 78.0654 19.6671 90.0723 40.85 90.0723H40.9643L40.9728 90.0658ZM51.6357 83.1211C50.9499 83.1407 50.2743 82.9295 49.6945 82.5145C49.1146 82.0994 48.6565 81.4989 48.3781 80.7891C48.0997 80.0792 48.0135 79.2918 48.1303 78.5265C48.2472 77.7612 48.5619 77.0523 49.0347 76.4894C49.5075 75.9266 50.1171 75.5352 50.7863 75.3646C51.4556 75.194 52.1546 75.2519 52.7948 75.531C53.435 75.8102 53.9877 76.298 54.383 76.9327C54.7784 77.5675 54.9985 78.3208 55.0157 79.0972V79.1942C55.0157 80.2357 54.6503 81.2345 53.9998 81.9709C53.3493 82.7073 52.467 83.1211 51.5471 83.1211H51.6357Z" fill="url(#paint1_linear_301_97)"/>
<defs>
<linearGradient id="paint0_linear_301_97" x1="8.63615" y1="8.91863" x2="51.2728" y2="46.4943" gradientUnits="userSpaceOnUse">
<stop stop-color="#387EB8"/>
<stop offset="1" stop-color="#366994"/>
</linearGradient>
<linearGradient id="paint1_linear_301_97" x1="31.0943" y1="36.8517" x2="79.0222" y2="73.8107" gradientUnits="userSpaceOnUse">
<stop stop-color="#FFE052"/>
<stop offset="1" stop-color="#FFC331"/>
</linearGradient>
</defs>
</svg>
