<svg width="62" height="96" viewBox="0 0 62 96" fill="none" xmlns="http://www.w3.org/2000/svg">
<path d="M32.3172 20.0752C43.8797 20.0752 53.253 16.1616 53.253 11.3338C53.253 6.50602 43.8797 2.59235 32.3172 2.59235C20.7547 2.59235 11.3815 6.50602 11.3815 11.3338C11.3815 16.1616 20.7547 20.0752 32.3172 20.0752Z" stroke="#DF6C20" stroke-width="4"/>
<path d="M11.3815 11.3338V48.7971C11.4782 49.9468 12.1156 51.0852 13.2571 52.1473C14.3986 53.2095 16.0219 54.1745 18.0344 54.9875C20.0469 55.8004 22.4091 56.4453 24.9862 56.8852C27.5632 57.3252 30.3047 57.5516 33.054 57.5516C35.8034 57.5516 38.5067 57.3252 41.0097 56.8852C43.5127 56.4453 45.7664 55.8004 47.642 54.9875C49.5177 54.1745 50.9786 53.2095 51.9413 52.1473C52.9041 51.0852 53.3498 49.9468 53.253 48.7971V11.3338M11.3815 23.8216C11.4782 24.9712 12.1156 26.1096 13.2571 27.1718C14.3986 28.2339 16.0219 29.199 18.0344 30.0119C20.0469 30.8249 22.4091 31.4697 24.9862 31.9097C27.5632 32.3496 30.3047 32.5761 33.054 32.5761C35.8034 32.5761 38.5067 32.3496 41.0097 31.9097C43.5127 31.4697 45.7664 30.8249 47.642 30.0119C49.5177 29.199 50.9786 28.2339 51.9413 27.1718C52.9041 26.1096 53.3498 24.9712 53.253 23.8216M11.3815 36.3093C11.4782 37.459 12.1156 38.5974 13.2571 39.6595C14.3986 40.7217 16.0219 41.6868 18.0344 42.4997C20.0469 43.3126 22.4091 43.9575 24.9862 44.3974C27.5632 44.8374 30.3047 45.0638 33.054 45.0638C35.8034 45.0638 38.5067 44.8374 41.0097 44.3974C43.5127 43.9575 45.7664 43.3126 47.642 42.4997C49.5177 41.6868 50.9786 40.7217 51.9413 39.6595C52.9041 38.5974 53.3498 37.459 53.253 36.3093" stroke="#DF6C20" stroke-width="4"/>
<path d="M16.3383 71.8541C16.3383 71.0342 16.179 70.2222 15.8696 69.4647C15.5601 68.7071 15.1065 68.0188 14.5348 67.439C13.963 66.8592 13.2842 66.3993 12.5371 66.0855C11.79 65.7717 10.9893 65.6102 10.1807 65.6102C9.37207 65.6102 8.57136 65.7717 7.82429 66.0855C7.07722 66.3993 6.39841 66.8592 5.82662 67.439C5.25484 68.0188 4.80128 68.7071 4.49183 69.4647C4.18238 70.2222 4.02311 71.0342 4.02311 71.8541C3.9909 72.8289 4.13929 73.7979 4.45639 74.6835C4.77349 75.569 5.25047 76.3465 5.8491 76.9535C6.44773 77.5605 7.15135 77.9802 7.90357 78.179C8.65578 78.3777 9.43566 78.35 10.1807 78.098C10.8309 78.0916 11.4747 78.2483 12.0749 78.5593C12.6751 78.8702 13.2199 79.3291 13.6779 79.9095C14.1358 80.49 14.4978 81.1805 14.7431 81.9412C14.9883 82.7019 15.1119 83.5178 15.1068 84.3419C14.9434 85.9979 14.1381 87.5202 12.8678 88.5741C11.5976 89.628 9.96651 90.127 8.33342 89.9614C6.70032 89.7958 5.19899 88.9791 4.1597 87.6911C3.12041 86.403 2.62829 84.7491 2.79159 83.0931" stroke="#DF6C20" stroke-width="4"/>
<path d="M34.8109 90.5858C31.7549 91.0954 28.6217 90.4186 26.0357 88.6903C23.4497 86.9621 21.6009 84.3093 20.8576 81.2605C20.1143 78.2118 20.5311 74.991 22.025 72.24C23.5189 69.489 25.9802 67.4097 28.9184 66.4166C31.8566 65.4235 35.0559 65.5894 37.8788 66.8813C40.7018 68.1732 42.941 70.4962 44.1503 73.3874C45.3597 76.2787 45.4503 79.5258 44.4041 82.4817C43.358 85.4376 41.2519 87.8854 38.5055 89.3371M34.8109 84.342L42.2 94.3322" stroke="#DF6C20" stroke-width="4"/>
<path d="M50.8207 64.3616V84.342C50.8207 85.998 51.4694 87.5861 52.6242 88.7571C53.779 89.9281 55.3452 90.5859 56.9783 90.5859H61.9043" stroke="#DF6C20" stroke-width="4"/>
</svg>
