<svg width="60" height="90" viewBox="0 0 60 90" fill="none" xmlns="http://www.w3.org/2000/svg">
<g clip-path="url(#clip0_390_87)">
<path d="M31.1566 18.4056C42.328 18.4056 51.3842 14.7294 51.3842 10.1948C51.3842 5.66014 42.328 1.98407 31.1566 1.98407C19.9851 1.98407 10.929 5.66014 10.929 10.1948C10.929 14.7294 19.9851 18.4056 31.1566 18.4056Z" stroke="#DF6C20" stroke-width="4"/>
<path d="M10.929 10.1948V45.3838C11.0225 46.4637 11.6382 47.533 12.7411 48.5306C13.844 49.5283 15.4125 50.4348 17.3569 51.1983C19.3012 51.9619 21.5836 52.5676 24.0735 52.9808C26.5634 53.3941 29.2121 53.6068 31.8685 53.6068C34.5248 53.6068 37.1367 53.3941 39.5551 52.9808C41.9733 52.5676 44.1508 51.9619 45.9631 51.1983C47.7752 50.4348 49.1867 49.5283 50.1169 48.5306C51.0471 47.533 51.4776 46.4637 51.3842 45.3838V10.1948M10.929 21.9245C11.0225 23.0044 11.6382 24.0737 12.7411 25.0713C13.844 26.069 15.4125 26.9755 17.3569 27.7391C19.3012 28.5026 21.5836 29.1083 24.0735 29.5216C26.5634 29.9348 29.2121 30.1475 31.8685 30.1475C34.5248 30.1475 37.1367 29.9348 39.5551 29.5216C41.9733 29.1083 44.1508 28.5026 45.9631 27.7391C47.7752 26.9755 49.1867 26.069 50.1169 25.0713C51.0471 24.0737 51.4776 23.0044 51.3842 21.9245M10.929 33.6542C11.0225 34.734 11.6382 35.8033 12.7411 36.8009C13.844 37.7986 15.4125 38.7051 17.3569 39.4687C19.3012 40.2322 21.5836 40.8379 24.0735 41.2512C26.5634 41.6645 29.2121 41.8771 31.8685 41.8771C34.5248 41.8771 37.1367 41.6645 39.5551 41.2512C41.9733 40.8379 44.1508 40.2322 45.9631 39.4687C47.7752 38.7051 49.1867 37.7986 50.1169 36.8009C51.0471 35.8033 51.4776 34.734 51.3842 33.6542" stroke="#DF6C20" stroke-width="4"/>
<path d="M15.7181 67.041C15.7181 66.2708 15.5642 65.5082 15.2652 64.7966C14.9663 64.0851 14.5281 63.4386 13.9756 62.894C13.4231 62.3493 12.7673 61.9173 12.0455 61.6226C11.3237 61.3279 10.5501 61.1761 9.76885 61.1761C8.98755 61.1761 8.21393 61.3279 7.49212 61.6226C6.77032 61.9173 6.11447 62.3493 5.56203 62.894C5.00958 63.4386 4.57136 64.0851 4.27238 64.7966C3.9734 65.5082 3.81953 66.2708 3.81953 67.041C3.7884 67.9566 3.93177 68.8668 4.23814 69.6986C4.54452 70.5304 5.00536 71.2606 5.58374 71.8308C6.16213 72.401 6.84194 72.7952 7.56872 72.9819C8.29549 73.1686 9.04899 73.1425 9.76885 72.9058C10.397 72.8998 11.019 73.0471 11.5989 73.3391C12.1788 73.6311 12.7052 74.0621 13.1477 74.6074C13.5902 75.1526 13.9399 75.8011 14.1768 76.5157C14.4138 77.2302 14.5332 77.9966 14.5283 78.7707C14.3705 80.326 13.5924 81.7561 12.365 82.7459C11.1378 83.7358 9.5619 84.2046 7.98403 84.049C6.40617 83.8934 4.95563 83.1264 3.9515 81.9165C2.94735 80.7066 2.47188 79.1532 2.62967 77.5977" stroke="#DF6C20" stroke-width="4"/>
<path d="M33.5659 84.6354C30.6132 85.114 27.586 84.4783 25.0875 82.855C22.589 81.2316 20.8027 78.7399 20.0846 75.8762C19.3664 73.0126 19.7691 69.9874 21.2125 67.4033C22.6559 64.8194 25.0339 62.8663 27.8728 61.9335C30.7115 61.0007 33.8027 61.1564 36.5301 62.37C39.2575 63.5835 41.4209 65.7654 42.5894 68.4811C43.7578 71.1968 43.8453 74.2468 42.8346 77.0233C41.8238 79.7998 39.7889 82.0989 37.1355 83.4625M33.5659 78.7706L40.705 88.1542" stroke="#DF6C20" stroke-width="4"/>
<path d="M49.0341 60.0032V78.7707C49.0341 80.326 49.6609 81.8178 50.7767 82.9177C51.8923 84.0176 53.4055 84.6354 54.9834 84.6354H59.7428" stroke="#DF6C20" stroke-width="4"/>
</g>
<defs>
<clipPath id="clip0_390_87">
<rect width="60" height="90" fill="white"/>
</clipPath>
</defs>
</svg>
