<svg width="218" height="148" viewBox="0 0 218 148" fill="none" xmlns="http://www.w3.org/2000/svg">
<path fill-rule="evenodd" clip-rule="evenodd" d="M100.088 147.813H129.13C130.916 147.688 134.489 146.589 134.489 143.192V102.851C134.655 100.873 136.16 96.9182 140.846 96.9182H158.234C200.301 96.9182 218.436 77.2973 217.938 48.022C217.875 32.0771 211.02 3.05996 168.143 0.0624928C128.457 -0.0374228 77.6524 0.0208612 57.211 0.0624928C38.8677 -0.0207706 2.43051 9.45456 3.42765 48.022C3.42765 71.065 19.2573 83.3047 23.8067 86.0524C28.3562 88.8 29.4944 89.9241 26.5489 94.8574C23.0589 100.702 8.01865 128.101 0.934799 141.068C-0.249306 143.317 -1.13427 147.813 4.79872 147.813H35.3362C36.5618 148.104 39.6363 147.588 42.1292 143.192C44.622 138.795 69.7999 89.487 82.0772 65.3823H61.8851C55.8814 65.3407 43.949 61.8103 44.2481 48.022C44.622 30.7865 58.6443 30.1621 61.8851 30.0372C64.4776 29.9373 84.3207 29.9956 93.9182 30.0372V143.192C93.9805 144.732 95.3017 147.813 100.088 147.813ZM131.56 30.0372H160.789C166.17 30.058 176.993 33.6466 177.242 47.8346C177.491 62.0227 166.377 66.6521 160.789 67.1933H140.161C138.042 66.5064 133.816 64.1833 133.866 60.3865C133.916 56.5897 133.887 45.0245 133.866 39.7165C133.856 37.0937 131.785 33.4968 127.696 31.8481C123.608 30.1995 126.575 29.9539 128.569 30.0372H131.56Z" fill="#FFC8C8"/>
</svg>
