<svg width="1749" height="1185" viewBox="0 0 1749 1185" fill="none" xmlns="http://www.w3.org/2000/svg">
<path fill-rule="evenodd" clip-rule="evenodd" d="M803 1183.5H1036C1050.33 1182.5 1079 1173.7 1079 1146.5V823.5C1080.33 807.667 1092.4 776 1130 776H1269.5C1607 776 1752.5 618.9 1748.5 384.5C1748 256.833 1693 24.5 1349 0.500009C1030.6 -0.299991 623 0.166675 459 0.500009C311.833 -0.166661 19.5 75.7 27.5 384.5C27.5 569 154.5 667 191 689C227.5 711 236.632 720 213 759.5C185 806.3 64.3333 1025.67 7.50001 1129.5C-1.99999 1147.5 -9.09999 1183.5 38.5 1183.5H283.5C293.333 1185.83 318 1181.7 338 1146.5C358 1111.3 560 716.5 658.5 523.5H496.5C448.333 523.167 352.6 494.9 355 384.5C358 246.5 470.5 241.5 496.5 240.5C517.3 239.7 676.5 240.167 753.5 240.5V1146.5C754 1158.83 764.6 1183.5 803 1183.5ZM1055.5 240.5H1290C1333.17 240.667 1420 269.4 1422 383C1424 496.6 1334.83 533.667 1290 538H1124.5C1107.5 532.5 1073.6 513.9 1074 483.5C1074.4 453.1 1074.17 360.5 1074 318C1073.92 297 1057.3 268.2 1024.5 255C991.7 241.8 1015.5 239.833 1031.5 240.5H1055.5Z" fill="#262C33"/>
</svg>
