<svg width="2805" height="1800" viewBox="0 0 2805 1800" fill="none" xmlns="http://www.w3.org/2000/svg">
<path d="M1240.53 0.282517C1226.23 2.424 1213.61 8.84844 1204.66 18.5616C1196.48 27.5864 1191.73 41.9649 1192.57 55.2727C1193.11 62.7678 1195.63 71.5632 1198.39 75.4637C1199.3 76.7639 1200.38 79.4408 1200.76 81.4293C1201.14 83.4943 1202.9 89.3834 1204.74 94.6606C1208.86 106.515 1213.99 124.259 1217.12 137.873C1217.81 140.779 1218.73 144.603 1219.11 146.286C1220.95 153.781 1223.93 170.454 1226.76 188.35C1233.19 229.268 1233.19 290.3 1226.76 331.371C1221.64 364.258 1217.2 383.76 1209.09 410.146C1204.2 425.978 1195.56 449.534 1190.82 459.859C1190.05 461.542 1188.52 465.137 1187.37 467.89C1183.63 476.991 1171.08 501.771 1164.58 513.014C1147.53 542.765 1129.17 568.234 1119.08 576.417C1074.79 612.057 1030.89 628.501 980.339 628.501C949.517 628.501 921.448 622.841 887.567 609.763C841.295 591.866 788.6 556.685 746.076 515.232C741.028 510.261 735.292 504.83 733.304 503.148C728.332 498.635 714.566 483.263 707.3 473.855C693.916 456.724 680.379 434.697 669.977 413.206C661.794 396.303 661.258 395.08 655.446 379.936C637.014 332.135 625.312 280.128 623.4 237.681C622.712 222.843 621.564 217.796 616.899 210.606C608.18 197.069 589.136 186.897 572.463 186.974C565.962 186.974 557.779 188.427 553.037 190.492C548.142 192.633 541.182 197.605 537.664 201.505C527.569 212.901 523.056 229.038 523.056 254.124C523.056 277.375 526.727 300.778 535.37 332.977C543.859 364.411 561.679 413.282 576.517 445.787C577.741 448.464 579.576 452.364 580.494 454.506C581.412 456.571 583.247 460.548 584.471 463.301C588.218 471.485 607.415 509.649 612.998 519.897C638.084 566.092 660.493 600.126 678.696 619.706C752.73 699.17 809.479 783.605 849.173 873.241C864.316 907.505 877.701 943.681 886.802 975.344C887.49 977.868 888.561 981.463 889.173 983.375C890.167 986.74 892.156 994.388 895.827 1008.61C898.198 1017.64 902.251 1035.46 903.704 1043.03C908.599 1068.04 911.199 1083.57 913.953 1103.91C914.794 1110.18 915.482 1115.38 915.482 1115.46C915.482 1115.61 1011.85 1115.69 1129.55 1115.69C1332.84 1115.69 1343.7 1115.61 1344.08 1114.31C1344.62 1112.7 1347.07 1100.01 1348.75 1090.45C1349.44 1086.47 1350.36 1081.65 1350.74 1079.74C1351.35 1076.76 1352.34 1070.79 1355.25 1052.97C1379.42 905.134 1386.53 722.267 1375.14 542.459C1373.84 521.503 1370.78 483.11 1369.09 465.595C1365.65 430.338 1363.28 407.852 1362.13 399.057C1361.75 395.921 1360.3 384.678 1359 374.2C1356.55 353.78 1351.27 316.533 1347.68 293.13C1347.3 290.606 1346.38 285.099 1345.77 280.893C1344.62 273.398 1341.94 257.719 1339.57 244.182C1338.96 240.358 1337.74 233.321 1336.82 228.503C1335.98 223.685 1334.98 218.178 1334.6 216.266C1334.22 214.354 1332.99 208.006 1331.92 202.117C1327.95 181.238 1318.16 134.125 1315.48 123.341C1315.1 121.659 1312.5 111.181 1309.82 100.014C1304.31 77.6817 1297.2 52.0604 1292.92 39.594C1286.34 20.4736 1278.92 9.76621 1268.6 4.8714C1261.1 1.27678 1248.25 -0.788223 1240.53 0.282517Z" fill="#E32930"/>
<path d="M969.402 219.096C940.798 220.855 919.842 226.056 897.509 236.84C878.389 246.017 863.552 256.648 848.179 272.098C823.858 296.495 806.955 327.47 800.072 360.434C791.659 400.892 796.86 441.657 814.986 478.215C823.628 495.5 833.953 509.802 848.408 524.333C870.129 546.283 897.127 562.191 926.114 570.299C944.546 575.499 954.565 576.799 975.52 576.723C989.823 576.723 994.87 576.417 1002.67 575.117C1024.62 571.369 1043.44 565.021 1061.18 555.232C1100.72 533.358 1131.08 497.029 1144.93 454.888C1149.29 441.657 1151.35 432.555 1152.96 419.324C1155.25 400.51 1154.1 378.024 1149.82 358.674C1134.75 290.682 1079.92 236.84 1011.62 222.843C999.306 220.243 978.962 218.484 969.402 219.096Z" fill="#E32930"/>
<path d="M1552.91 0.282517C1567.21 2.424 1579.83 8.84844 1588.78 18.5616C1596.97 27.5864 1601.71 41.9649 1600.87 55.2727C1600.33 62.7678 1597.81 71.5632 1595.05 75.4637C1594.14 76.7639 1593.07 79.4408 1592.68 81.4293C1592.3 83.4943 1590.54 89.3834 1588.71 94.6606C1584.58 106.515 1579.45 124.259 1576.32 137.873C1575.63 140.779 1574.71 144.603 1574.33 146.286C1572.49 153.781 1569.51 170.454 1566.68 188.35C1560.26 229.268 1560.26 290.3 1566.68 331.371C1571.8 364.258 1576.24 383.76 1584.35 410.146C1589.24 425.978 1597.88 449.534 1602.63 459.859C1603.39 461.542 1604.92 465.137 1606.07 467.89C1609.81 476.991 1622.36 501.771 1628.86 513.014C1645.91 542.765 1664.27 568.234 1674.37 576.417C1718.65 612.057 1762.55 628.501 1813.1 628.501C1843.92 628.501 1871.99 622.841 1905.87 609.763C1952.15 591.866 2004.84 556.685 2047.37 515.232C2052.41 510.261 2058.15 504.83 2060.14 503.148C2065.11 498.635 2078.88 483.263 2086.14 473.855C2099.53 456.724 2113.06 434.697 2123.46 413.206C2131.65 396.303 2132.18 395.08 2138 379.936C2156.43 332.135 2168.13 280.128 2170.04 237.681C2170.73 222.843 2171.88 217.796 2176.54 210.606C2185.26 197.069 2204.3 186.897 2220.98 186.974C2227.48 186.974 2235.66 188.427 2240.4 190.492C2245.3 192.633 2252.26 197.605 2255.78 201.505C2265.87 212.901 2270.38 229.038 2270.38 254.124C2270.38 277.375 2266.71 300.778 2258.07 332.977C2249.58 364.411 2231.76 413.282 2216.92 445.787C2215.7 448.464 2213.87 452.364 2212.95 454.506C2212.03 456.571 2210.19 460.548 2208.97 463.301C2205.22 471.485 2186.03 509.649 2180.44 519.897C2155.36 566.092 2132.95 600.126 2114.75 619.706C2040.71 699.17 1983.96 783.605 1944.27 873.241C1929.12 907.505 1915.74 943.681 1906.64 975.344C1905.95 977.868 1904.88 981.463 1904.27 983.375C1903.27 986.74 1901.29 994.388 1897.61 1008.61C1895.24 1017.64 1891.19 1035.46 1889.74 1043.03C1884.84 1068.04 1882.24 1083.57 1879.49 1103.91C1878.65 1110.18 1877.96 1115.38 1877.96 1115.46C1877.96 1115.61 1781.59 1115.69 1663.89 1115.69C1460.6 1115.69 1449.74 1115.61 1449.36 1114.31C1448.82 1112.7 1446.37 1100.01 1444.69 1090.45C1444 1086.47 1443.09 1081.65 1442.7 1079.74C1442.09 1076.76 1441.1 1070.79 1438.19 1052.97C1414.02 905.134 1406.91 722.267 1418.31 542.459C1419.61 521.503 1422.66 483.11 1424.35 465.595C1427.79 430.338 1430.16 407.852 1431.31 399.057C1431.69 395.921 1433.14 384.678 1434.44 374.2C1436.89 353.78 1442.17 316.533 1445.76 293.13C1446.14 290.606 1447.06 285.099 1447.67 280.893C1448.82 273.398 1451.5 257.719 1453.87 244.182C1454.48 240.358 1455.7 233.321 1456.62 228.503C1457.46 223.685 1458.46 218.178 1458.84 216.266C1459.22 214.354 1460.45 208.006 1461.52 202.117C1465.49 181.238 1475.28 134.125 1477.96 123.341C1478.34 121.659 1480.94 111.181 1483.62 100.014C1489.13 77.6817 1496.24 52.0604 1500.52 39.594C1507.1 20.4736 1514.52 9.76621 1524.84 4.8714C1532.34 1.27678 1545.19 -0.788223 1552.91 0.282517Z" fill="#3AC5D2"/>
<path d="M1824.04 219.096C1852.64 220.855 1873.6 226.056 1895.93 236.84C1915.05 246.017 1929.89 256.648 1945.26 272.098C1969.58 296.495 1986.49 327.47 1993.37 360.434C2001.78 400.892 1996.58 441.657 1978.46 478.215C1969.81 495.5 1959.49 509.802 1945.03 524.333C1923.31 546.283 1896.31 562.191 1867.33 570.299C1848.9 575.499 1838.88 576.799 1817.92 576.723C1803.62 576.723 1798.57 576.417 1790.77 575.117C1768.82 571.369 1750.01 565.021 1732.26 555.232C1692.72 533.358 1662.36 497.029 1648.51 454.888C1644.15 441.657 1642.09 432.555 1640.48 419.324C1638.19 400.51 1639.34 378.024 1643.62 358.674C1658.69 290.682 1713.52 236.84 1781.82 222.843C1794.13 220.243 1814.48 218.484 1824.04 219.096Z" fill="#3AC5D2"/>
<path d="M2162.13 656.493C2157.31 658.252 2151.12 662.382 2145.84 667.43C2140.94 672.019 2121.82 693.281 2112.34 704.6C2081.75 741.311 2052.68 784.599 2029.28 828.5C2022.93 840.278 2006.87 873.241 2006.87 874.389C2006.87 874.542 2005.65 877.295 2004.2 880.431C2002.74 883.643 2001.52 886.473 2001.52 886.702C2001.52 886.932 2000.91 888.538 2000.07 890.297C1996.01 899.398 1984.85 929.685 1980.33 943.987C1973.76 965.019 1964.5 999.206 1961.82 1012.74C1961.44 1014.43 1960.45 1019.32 1959.61 1023.53C1958.77 1027.73 1957.54 1034.23 1956.78 1038.06C1956.09 1041.81 1955.25 1046.47 1954.86 1048.38C1954.25 1051.75 1952.49 1063.14 1951.04 1074.01C1950.66 1076.91 1949.97 1081.96 1949.51 1085.09C1949.13 1088.23 1948.44 1094.58 1947.98 1099.24C1947.6 1103.83 1946.99 1109.49 1946.76 1111.63L1946.22 1115.69H2167.94L2389.66 1115.61L2398.84 1108.27C2458.57 1060.7 2503.01 1010.98 2532.83 958.518C2539.64 946.434 2539.72 946.281 2541.17 940.545C2544.15 928.461 2541.32 919.742 2531.15 909.8C2525.19 903.91 2522.51 902.687 2515.86 902.687C2511.34 902.687 2509.66 903.069 2505.53 905.134C2495.74 910.029 2487.1 919.972 2478.23 936.721C2460.64 969.684 2437.08 999.589 2412.61 1020.16C2369.93 1056.03 2321.36 1073.24 2263.47 1073.09C2244.27 1073.01 2218.57 1070.56 2207.25 1067.66C2192.95 1063.99 2172.53 1054.81 2160.06 1046.4C2143.62 1035.31 2130.62 1022.07 2119.84 1005.55C2103.93 980.927 2095.59 949.493 2095.59 913.547C2095.59 893.28 2097.89 873.93 2103.7 846.473C2105.92 835.766 2111.42 816.033 2113.87 809.838C2118.84 797.448 2128.25 780.011 2136.74 767.697C2148.52 750.565 2167.1 729.456 2180.64 717.831C2187.52 712.019 2193.1 704.447 2195.93 697.334C2197.31 693.969 2197.62 691.598 2197.62 685.097C2197.62 677.831 2197.39 676.608 2195.4 672.554C2189.13 659.705 2173.75 652.287 2162.13 656.493Z" fill="#007EAE"/>
<path d="M2230.96 830.794C2206.87 834.389 2186.99 844.484 2169.78 861.693C2150.12 881.425 2139.64 907.122 2139.72 935.574C2139.8 965.707 2151.04 992.017 2172.45 1012.28C2182.47 1021.77 2195.93 1030.33 2207.64 1034.69C2222.09 1040.05 2234.33 1041.88 2249.7 1041.19C2269.59 1040.35 2285.57 1035.38 2301.56 1025.29C2328.48 1008.23 2345.68 981.539 2350.27 949.646C2351.5 941.386 2350.89 922.495 2349.13 914.541C2342.7 885.478 2326.26 861.693 2301.78 846.167C2281.06 833.012 2254.67 827.276 2230.96 830.794Z" fill="#007EAE"/>
<path d="M632.165 656.493C636.984 658.252 643.179 662.382 648.456 667.43C653.351 672.019 672.471 693.281 681.955 704.6C712.547 741.311 741.61 784.599 765.013 828.5C771.361 840.278 787.423 873.241 787.423 874.389C787.423 874.542 788.646 877.295 790.099 880.431C791.553 883.643 792.776 886.473 792.776 886.702C792.776 886.932 793.388 888.538 794.229 890.297C798.283 899.398 809.449 929.685 813.962 943.987C820.539 965.019 829.793 999.206 832.47 1012.74C832.852 1014.43 833.847 1019.32 834.688 1023.53C835.529 1027.73 836.753 1034.23 837.518 1038.06C838.206 1041.81 839.047 1046.47 839.43 1048.38C840.042 1051.75 841.801 1063.14 843.254 1074.01C843.636 1076.91 844.325 1081.96 844.784 1085.09C845.166 1088.23 845.854 1094.58 846.313 1099.24C846.696 1103.83 847.307 1109.49 847.537 1111.63L848.072 1115.69H626.353L404.633 1115.61L395.455 1108.27C335.723 1060.7 291.288 1010.98 261.46 958.518C254.653 946.434 254.577 946.281 253.123 940.545C250.141 928.461 252.97 919.742 263.143 909.8C269.108 903.91 271.785 902.687 278.439 902.687C282.951 902.687 284.634 903.069 288.764 905.134C298.553 910.029 307.196 919.972 316.068 936.721C333.658 969.684 357.215 999.589 381.689 1020.16C424.365 1056.03 472.931 1073.24 530.827 1073.09C550.024 1073.01 575.722 1070.56 587.041 1067.66C601.343 1063.99 621.764 1054.81 634.23 1046.4C650.674 1035.31 663.676 1022.07 674.459 1005.55C690.368 980.927 698.704 949.493 698.704 913.547C698.704 893.28 696.41 873.93 690.597 846.473C688.379 835.766 682.872 816.033 680.425 809.838C675.454 797.448 666.047 780.011 657.557 767.697C645.779 750.565 627.194 729.456 613.657 717.831C606.773 712.019 601.19 704.447 598.36 697.334C596.984 693.969 596.678 691.598 596.678 685.097C596.678 677.831 596.907 676.608 598.896 672.554C605.167 659.705 620.54 652.287 632.165 656.493Z" fill="#F7B02A"/>
<path d="M563.332 830.794C587.423 834.389 607.309 844.484 624.517 861.693C644.173 881.425 654.651 907.122 654.574 935.574C654.498 965.707 643.255 992.017 621.84 1012.28C611.821 1021.77 598.36 1030.33 586.659 1034.69C572.204 1040.05 559.967 1041.88 544.594 1041.19C524.709 1040.35 508.724 1035.38 492.74 1025.29C465.818 1008.23 448.61 981.539 444.021 949.646C442.797 941.386 443.409 922.495 445.168 914.541C451.593 885.478 468.036 861.693 492.51 846.167C513.237 833.012 539.623 827.276 563.332 830.794Z" fill="#F7B02A"/>
<path d="M2070.96 1134.81C2035.32 1137.48 2005.95 1149.34 1984.85 1169.53C1966.49 1187.12 1955.25 1208.38 1949.74 1235.76C1948.59 1241.65 1948.44 1251.98 1948.21 1339.78C1947.91 1441.8 1948.06 1450.14 1951.12 1464.37C1958.69 1499.32 1980.41 1527.92 2011.38 1543.83C2026.91 1551.86 2041.14 1556.3 2059.64 1559.05C2070.73 1560.66 2111.12 1560.96 2122.36 1559.43C2141.17 1556.91 2153.26 1553.39 2168.71 1545.9C2190.58 1535.42 2205.42 1522.8 2217.43 1504.6C2227.9 1488.53 2234.17 1470.48 2236.24 1449.99C2237.31 1439.74 2237.39 1260.39 2236.32 1247.77C2233.1 1209.22 2214.52 1176.95 2183.93 1156.99C2166.79 1145.82 2145.69 1138.48 2122.36 1135.57C2113.49 1134.5 2081.9 1133.97 2070.96 1134.81ZM2112.11 1218.33C2118.99 1220.77 2125.04 1224.75 2130.24 1230.33C2135.13 1235.69 2137.66 1239.82 2140.1 1246.47L2141.86 1251.44L2142.09 1343.98C2142.24 1406.16 2142.01 1438.29 2141.48 1441.88C2140.18 1450.6 2135.67 1459.01 2128.63 1465.97C2118.61 1475.76 2109.74 1478.97 2092.53 1478.97C2075.02 1478.97 2066.37 1475.76 2056.2 1465.59C2051.84 1461.31 2049.32 1457.94 2047.56 1454.35C2042.67 1444.4 2042.82 1447.85 2042.82 1348.19C2042.82 1290.98 2043.12 1255.72 2043.58 1252.59C2044.65 1245.94 2049.47 1236.22 2054.52 1230.72C2060.94 1223.6 2070.35 1218.33 2079.53 1216.64C2081.44 1216.26 2088.32 1216.03 2094.83 1216.18C2105.15 1216.41 2107.37 1216.64 2112.11 1218.33Z" fill="#0B7800"/>
<path d="M2630.65 1135.57C2615.05 1137.33 2602.81 1141.08 2587.75 1148.57C2556.77 1164.02 2534.29 1189.64 2522.82 1222.53C2517.69 1237.45 2516.62 1244.56 2516.62 1264.83C2516.7 1280.5 2516.93 1283.79 2518.38 1290.6C2523.43 1313.93 2534.06 1333.2 2551.42 1350.56C2562.2 1361.35 2571.84 1368.31 2585.22 1374.81C2607.25 1385.59 2624.99 1388.73 2663.85 1388.73C2688.02 1388.73 2693.83 1390.49 2704.46 1400.96C2713.56 1409.91 2717.38 1419.01 2717.38 1431.56C2717.38 1443.18 2713.41 1452.97 2705.45 1461C2700.25 1466.35 2695.89 1469.11 2688.4 1472.01C2683.58 1473.85 2682.51 1473.93 2663.24 1474.23C2639.6 1474.54 2634.94 1474 2626.37 1469.72C2618.95 1465.97 2610.54 1457.48 2607.17 1450.29C2605.03 1445.78 2602.74 1436.91 2602.66 1433.24V1431.56H2559.37H2516.01L2516.47 1440.5C2518.07 1475.53 2536.43 1510.71 2564.73 1533.12C2579.95 1545.28 2599.22 1554.31 2619.03 1558.74C2626.37 1560.35 2628.44 1560.43 2660.02 1560.43C2691.69 1560.43 2693.67 1560.35 2701.02 1558.74C2728.32 1552.7 2754.71 1537.25 2772.3 1517.21C2811.15 1472.78 2815.36 1408 2782.47 1359.28C2763.96 1331.75 2734.13 1311.79 2700.94 1304.6C2694.29 1303.14 2689.77 1302.84 2664.99 1302.3C2633.87 1301.69 2632.03 1301.46 2622.09 1296.57C2599.37 1285.48 2596.08 1253.81 2615.66 1234.23C2621.32 1228.57 2627.75 1224.83 2634.86 1223.14C2640.9 1221.77 2677.46 1221.54 2683.89 1222.84C2698.65 1225.9 2712.34 1239.05 2716.24 1253.74C2716.85 1256.26 2717.38 1259.55 2717.38 1261.16V1264.06H2761.05H2804.8L2804.27 1256.57C2803.2 1241.12 2800.06 1227.43 2794.55 1214.42C2777.12 1173.51 2741.93 1145.44 2696.89 1136.64C2689.93 1135.27 2640.6 1134.5 2630.65 1135.57Z" fill="#0B7800"/>
<path d="M0 1347.43V1554.69H108.604H217.207V1512.63V1470.56H156.022H94.837V1305.36V1140.16H47.4185H0V1347.43Z" fill="#0B7800"/>
<path d="M299.807 1290.22C299.807 1388.11 300.113 1443.26 300.572 1448.69C304.702 1491.75 327.723 1526.01 365.122 1544.75C389.061 1556.76 407.187 1560.35 443.975 1560.35C480.303 1560.43 497.053 1557.22 520.532 1545.9C555.026 1529.3 576.517 1502.99 584.777 1467.12C588.601 1450.22 588.448 1456.87 588.677 1292.9L588.907 1140.16H541.488H494.07L493.917 1291.37L493.687 1442.65L492.005 1447.62C488.104 1458.86 479.385 1469.26 469.443 1474.23C461.948 1478.06 455.141 1479.2 441.68 1478.75C429.29 1478.44 424.472 1477.22 416.441 1472.47C410.935 1469.26 403.745 1461.54 400.533 1455.49C395.332 1445.55 395.409 1447.31 395.409 1377.56C395.409 1343.07 395.179 1275.53 394.874 1227.5L394.415 1140.16H347.073H299.807V1290.22Z" fill="#0B7800"/>
<path d="M703.629 1347.43V1554.69H751.048H798.466V1492.28C798.466 1458.02 798.772 1430.1 799.078 1430.33C799.46 1430.56 809.479 1458.63 821.41 1492.74L843.131 1554.69L879.001 1554.54L914.871 1554.31L935.903 1493.51C947.452 1460.08 957.241 1432.4 957.624 1431.94C958.006 1431.56 958.312 1455.42 958.312 1492.97V1554.69H1005.73H1053.15V1347.43V1140.16L1005.58 1140.31L958.006 1140.54L919.536 1264.06C898.351 1331.98 880.684 1388.88 880.225 1390.56C879.766 1392.17 879.307 1393.31 879.154 1393.16C878.848 1392.86 799.231 1141.16 799.231 1140.47C799.231 1140.31 777.74 1140.16 751.43 1140.16H703.629V1347.43Z" fill="#0B7800"/>
<path d="M1193.95 1346.13C1163.44 1459.32 1138.35 1552.47 1138.2 1553.01C1137.97 1553.77 1147.91 1553.93 1187.45 1553.77L1237.01 1553.54L1242.82 1531.36L1248.64 1509.18L1320.99 1508.95L1393.41 1508.8L1394.1 1511.25C1394.49 1512.63 1397.16 1522.8 1399.99 1533.81L1405.27 1553.93H1454.75H1504.31L1502.48 1547.2C1501.48 1543.52 1476.86 1452.28 1447.79 1344.37C1418.73 1236.45 1394.49 1146.36 1393.8 1144.14L1392.65 1140.16H1320.99H1249.32L1193.95 1346.13ZM1346 1333.81C1359.61 1384.44 1370.93 1426.28 1371.16 1426.74C1371.39 1427.5 1361.14 1427.73 1321.29 1427.73C1293.68 1427.73 1271.12 1427.5 1271.12 1427.2C1271.12 1425.74 1320.45 1241.88 1320.76 1241.88C1321.06 1241.88 1332.38 1283.26 1346 1333.81Z" fill="#0B7800"/>
<path d="M1760.68 1290.22C1760.98 1434.08 1760.91 1440.58 1759.61 1445.32C1755.94 1458.17 1747.22 1468.88 1735.9 1474.31C1728.17 1478.06 1723.2 1478.97 1711.27 1478.97C1695.21 1478.97 1684.96 1475.23 1675.63 1465.9C1670.05 1460.31 1667.22 1456.03 1664.31 1448.46L1662.4 1443.41L1662.09 1412.97L1661.86 1382.61H1614.37H1566.95L1567.33 1417.18C1567.72 1453.35 1567.95 1456.18 1571.62 1470.41C1578.5 1497.1 1595.78 1521.5 1618.35 1536.56C1637.08 1548.95 1656.74 1556.07 1681.83 1559.43C1693.22 1560.96 1732.69 1560.73 1744.01 1559.05C1776.05 1554.31 1801.67 1542 1821.79 1521.8C1838 1505.59 1847.94 1486.85 1853.37 1462.3C1854.98 1454.88 1854.98 1454.88 1855.21 1297.48L1855.44 1140.16H1807.94H1760.37L1760.68 1290.22Z" fill="#0B7800"/>
<path d="M2329.62 1347.43V1554.69H2377.04H2424.46V1347.43V1140.16H2377.04H2329.62V1347.43Z" fill="#0B7800"/>
<path d="M2163.39 1618.17C2143.97 1620.62 2130.51 1626.66 2120.64 1637.29C2112 1646.62 2108.33 1655.72 2107.41 1670.18C2106.11 1691.59 2115.59 1708.57 2134.33 1718.13C2147.18 1724.71 2155.51 1727 2185.88 1732.2C2199.87 1734.57 2205.38 1738.17 2203.85 1744.14C2202.55 1749.64 2198.34 1752.32 2188.86 1753.7C2174.64 1755.68 2156.05 1750.18 2135.78 1737.94C2130.96 1735.03 2128.13 1734.57 2125.99 1736.1C2125.3 1736.64 2120.26 1743.6 2114.75 1751.55C2103.66 1767.61 2103.05 1769.37 2106.95 1773.05C2110.62 1776.56 2124.39 1785.44 2130.96 1788.57C2138.54 1792.17 2147.03 1795 2156.43 1797.21C2165.38 1799.28 2189.55 1800.12 2199.87 1798.67C2223.05 1795.53 2238.42 1786.05 2246.37 1769.99C2250.2 1762.18 2251.65 1755.38 2251.65 1744.29C2251.65 1730.06 2248.82 1721.42 2241.02 1711.71C2230.7 1698.93 2216.85 1692.36 2188.55 1686.62C2161.94 1681.27 2153.22 1676.75 2155.74 1669.49C2156.74 1666.66 2160.87 1664.21 2165.76 1663.6C2172.49 1662.76 2185.57 1663.75 2192 1665.59C2197.35 1667.12 2211.12 1673.39 2217.31 1677.14C2219.99 1678.74 2222.36 1678.74 2224.58 1677.29C2225.04 1676.91 2230.01 1670.18 2235.59 1662.15C2244.23 1649.91 2245.84 1647.23 2245.76 1645.02C2245.69 1641.57 2243.01 1639.28 2231.54 1632.4C2215.02 1622.53 2200.03 1618.25 2180.14 1617.79C2173.87 1617.63 2166.3 1617.79 2163.39 1618.17Z" fill="#B30101"/>
<path d="M554.683 1620.92C553.765 1621.54 553 1622.84 553 1623.83C553 1624.82 569.52 1662.91 589.788 1708.49C609.979 1754.08 626.728 1791.86 626.958 1792.32C627.187 1792.85 628.487 1794 629.864 1794.84C632.158 1796.3 633.611 1796.37 650.896 1796.37C670.475 1796.37 672.235 1796.07 674.453 1792.55C674.911 1791.78 691.967 1753.62 712.387 1707.81C746.269 1631.71 749.481 1624.14 748.639 1622.38C748.181 1621.31 747.033 1620.24 746.192 1620.01C745.274 1619.78 734.949 1619.7 723.171 1619.85C702.674 1620.08 701.603 1620.16 699.462 1621.69C697.55 1623.06 693.649 1631.4 675.37 1673.31C663.21 1701.23 652.961 1723.56 652.273 1724.02C651.279 1724.63 650.514 1724.63 649.596 1724.02C648.908 1723.64 638.812 1701.38 627.111 1674.69C615.409 1648.07 605.313 1625.28 604.701 1624.21C602.254 1620.01 600.266 1619.7 577.321 1619.7C559.654 1619.7 556.136 1619.85 554.683 1620.92Z" fill="#B30101"/>
<path d="M960.875 1620.62C959.958 1621.08 958.887 1622.3 958.428 1623.45C957.816 1624.82 957.587 1650.22 957.74 1709.26C957.969 1790.56 958.046 1793.24 959.422 1794.77C960.875 1796.3 961.487 1796.37 981.755 1796.37C1002.25 1796.37 1002.71 1796.37 1004.24 1794.69C1005.69 1793.08 1005.77 1792.09 1005.77 1771.36V1749.64L1007.68 1747.81C1009.21 1746.2 1010.28 1745.89 1013.72 1745.89C1021.83 1745.89 1023.05 1746.81 1033.84 1761.88C1049.9 1784.21 1057.01 1793.31 1059.54 1794.92C1061.83 1796.3 1063.36 1796.37 1087.61 1796.22L1113.23 1795.99L1113.46 1793.54C1113.76 1790.71 1113.76 1790.79 1090.13 1760.58C1082.4 1750.79 1075.75 1742.07 1075.29 1741.15C1073.91 1738.55 1075.14 1736.26 1080.34 1732.2C1094.03 1721.42 1102.21 1703.29 1102.21 1683.64C1102.21 1673.39 1101.3 1667.5 1098.31 1659.32C1091.28 1640.2 1075.67 1626.51 1054.79 1621.46C1050.51 1620.39 1043.17 1620.16 1006.15 1620.01C975.866 1619.85 962.023 1620.01 960.875 1620.62ZM1042.25 1665.21C1055.33 1669.11 1058.92 1689.45 1047.91 1697.56C1043.17 1701 1040.19 1701.53 1024.35 1701.53C1004.39 1701.53 1005.77 1702.91 1005.77 1682.95C1005.77 1667.58 1005.92 1666.74 1009.21 1664.98C1011.66 1663.6 1037.51 1663.83 1042.25 1665.21Z" fill="#B30101"/>
<path d="M1216.32 1620.62C1215.41 1621.08 1214.33 1622.3 1213.88 1623.45C1213.26 1624.82 1213.03 1650.22 1213.19 1709.26C1213.42 1790.56 1213.49 1793.24 1214.87 1794.77L1216.32 1796.37H1280.49C1343.59 1796.37 1344.58 1796.37 1346.11 1794.84C1347.57 1793.39 1347.64 1792.32 1347.64 1774.19C1347.64 1756.07 1347.57 1755 1346.11 1753.54C1344.66 1752.09 1343.59 1752.01 1305.58 1752.01C1264.35 1752.01 1262.98 1751.94 1261.68 1748.57C1261.45 1747.88 1261.22 1744.44 1261.22 1741C1261.22 1735.19 1261.37 1734.5 1263.21 1732.82L1265.2 1730.98L1300.22 1730.75L1335.33 1730.52L1336.93 1728.53C1338.46 1726.54 1338.54 1725.78 1338.31 1707.96C1338.08 1691.13 1337.93 1689.3 1336.63 1687.84C1335.25 1686.32 1334.49 1686.32 1299.69 1686.09L1264.12 1685.86L1262.67 1684.02C1261.52 1682.57 1261.22 1681.04 1261.22 1675.53C1261.22 1671.78 1261.45 1668.19 1261.68 1667.5C1262.98 1664.14 1264.35 1664.06 1305.58 1664.06C1343.59 1664.06 1344.66 1663.98 1346.11 1662.53C1347.57 1661.08 1347.64 1660.01 1347.64 1641.96V1622.84L1345.65 1621.31C1343.59 1619.7 1343.21 1619.7 1280.8 1619.78C1238.5 1619.78 1217.47 1620.08 1216.32 1620.62Z" fill="#B30101"/>
<path d="M1380.91 1621.54L1379 1623.45V1708.27C1379 1792.47 1379 1793.01 1380.53 1794.69L1382.13 1796.37H1422.13C1464.66 1796.37 1468.64 1796.14 1481.1 1792.47C1500.3 1786.81 1517.35 1773.66 1527.3 1756.75C1536.47 1741.15 1540.83 1719.05 1538.85 1698.4C1536.55 1674.69 1528.67 1657.56 1513.38 1642.95C1501.9 1632.01 1489.67 1625.74 1472.69 1621.92C1465.42 1620.31 1462.9 1620.24 1423.97 1619.93L1382.9 1619.55L1380.91 1621.54ZM1466.19 1666.97C1478.35 1670.94 1486.46 1680.12 1489.59 1693.58C1491.12 1700.31 1491.12 1716.53 1489.59 1723.26C1487.07 1734.04 1480.03 1743.75 1471.85 1747.73C1465.12 1751.02 1458.92 1752.01 1443.86 1752.01C1431.24 1752.01 1430.17 1751.94 1428.71 1750.48C1427.26 1749.03 1427.18 1747.96 1427.18 1708.49V1667.96L1429.32 1666.35C1431.31 1664.75 1431.85 1664.67 1446.3 1665.05C1458.77 1665.28 1462.06 1665.67 1466.19 1666.97Z" fill="#B30101"/>
<path d="M1760.26 1621.54L1758.35 1623.45V1708.27C1758.35 1792.47 1758.35 1793.01 1759.88 1794.69L1761.48 1796.37H1801.48C1845.31 1796.37 1849.51 1796.07 1862.51 1791.71C1881.56 1785.43 1896.85 1773.27 1906.8 1756.53C1915.82 1741.31 1920.18 1718.97 1918.19 1698.4C1915.9 1674.54 1908.1 1657.56 1892.8 1643.03C1881.25 1632.01 1869.02 1625.74 1852.04 1621.92C1844.77 1620.31 1842.25 1620.24 1803.32 1619.93L1762.25 1619.55L1760.26 1621.54ZM1845.54 1666.97C1857.7 1670.94 1865.8 1680.12 1868.94 1693.66C1870.55 1700.62 1870.55 1716.3 1868.94 1723.26C1866.34 1734.27 1859.53 1743.68 1851.12 1747.81C1844.46 1751.02 1838.27 1752.01 1823.2 1752.01C1810.58 1752.01 1809.51 1751.94 1808.06 1750.48C1806.61 1749.03 1806.53 1747.96 1806.53 1708.49V1667.96L1808.67 1666.35C1810.66 1664.75 1811.2 1664.67 1825.65 1665.05C1838.12 1665.28 1841.41 1665.67 1845.54 1666.97Z" fill="#B30101"/>
<path d="M1950.47 1620.46C1949.55 1620.85 1948.4 1622.07 1948.02 1623.14C1947.56 1624.44 1947.26 1655.72 1947.26 1708.72C1947.26 1792.17 1947.26 1792.32 1948.86 1794.38L1950.39 1796.37H2014.64C2077.81 1796.37 2078.8 1796.37 2080.33 1794.84C2081.79 1793.39 2081.86 1792.32 2081.86 1774.35C2081.86 1759.13 2081.63 1755.07 2080.79 1753.85C2079.72 1752.47 2078.19 1752.4 2039.03 1752.01L1998.35 1751.63L1996.89 1749.79C1995.75 1748.34 1995.44 1746.81 1995.44 1741.53C1995.44 1738.02 1995.75 1734.42 1996.2 1733.66C1997.73 1730.83 2000.72 1730.6 2035.59 1730.6C2067.33 1730.6 2069.47 1730.52 2070.62 1729.22C2071.77 1728 2071.92 1725.4 2071.92 1708.27C2071.92 1691.06 2071.77 1688.61 2070.62 1687.69C2069.63 1686.85 2062.44 1686.54 2033.91 1686.24L1998.35 1685.86L1996.89 1684.02C1994.75 1681.42 1994.75 1668.88 1996.89 1666.28L1998.35 1664.44L2039.03 1664.06C2078.19 1663.68 2079.72 1663.6 2080.79 1662.22C2081.63 1661 2081.86 1656.95 2081.86 1642.11V1623.45L2079.95 1621.61L2078.12 1619.7L2015.17 1619.78C1979.3 1619.78 1951.46 1620.08 1950.47 1620.46Z" fill="#B30101"/>
<path d="M822.826 1622.22C821.22 1623.52 812.731 1642.49 785.121 1707.04C765.542 1752.78 749.557 1791.02 749.557 1792.01C749.557 1793.01 750.169 1794.38 750.934 1795.07C752.158 1796.22 755.064 1796.37 776.096 1796.37C799.194 1796.37 799.882 1796.3 801.947 1794.77C803.171 1793.77 805.771 1789.41 808.371 1783.83C811.278 1777.63 813.419 1774.12 814.796 1773.2C816.631 1772.05 819.538 1771.9 844.777 1771.9C868.792 1771.9 873.075 1772.05 875.14 1773.12C876.975 1774.04 878.352 1776.18 881.87 1783.68C884.547 1789.41 887.147 1793.69 888.371 1794.77C890.436 1796.3 891.124 1796.37 914.451 1796.37C940.761 1796.37 940.761 1796.37 940.761 1791.78C940.761 1790.48 924.929 1752.62 905.197 1706.74C877.205 1641.5 869.174 1623.52 867.568 1622.22C865.503 1620.54 865.044 1620.46 845.159 1620.46C825.274 1620.46 824.815 1620.54 822.826 1622.22ZM846.459 1694.8C847.759 1696.49 859.69 1726.09 859.69 1727.62C859.69 1730.06 857.09 1730.6 845.159 1730.6C833.075 1730.6 830.627 1730.06 830.627 1727.46C830.627 1725.86 842.482 1696.49 843.782 1694.8C844.241 1694.35 844.853 1693.89 845.159 1693.89C845.465 1693.89 846.077 1694.35 846.459 1694.8Z" fill="#B30101"/>
<path d="M1134.72 1622.15C1133.65 1623.68 1133.49 1633.16 1133.49 1708.57C1133.49 1792.32 1133.49 1793.31 1135.02 1794.84C1136.48 1796.3 1137.55 1796.37 1157.43 1796.37C1176.78 1796.37 1178.46 1796.3 1179.61 1795C1180.84 1793.69 1180.91 1786.58 1180.91 1708.27C1180.91 1626.66 1180.84 1622.91 1179.54 1621.76C1178.31 1620.62 1175.56 1620.46 1156.97 1620.46C1136.02 1620.46 1135.86 1620.46 1134.72 1622.15Z" fill="#B30101"/>
<path d="M1622.97 1622.53C1621.14 1624.21 1613.34 1641.8 1585.12 1707.81C1565.54 1753.54 1549.55 1791.48 1549.55 1792.09C1549.55 1792.78 1550.24 1794 1551.08 1794.84C1552.54 1796.3 1553.61 1796.37 1575.94 1796.37C1594.98 1796.37 1599.72 1796.14 1601.48 1795.22C1603.09 1794.46 1604.7 1792.01 1607.6 1786.05C1609.74 1781.53 1611.5 1777.63 1611.5 1777.25C1611.5 1776.95 1612.73 1775.57 1614.18 1774.27L1616.93 1771.9H1645.54H1674.22L1676.51 1773.96C1677.81 1775.26 1680.18 1779.24 1682.17 1783.75C1684.01 1787.96 1686.61 1792.55 1687.91 1793.85L1690.36 1796.37H1714.75H1739.23L1740.45 1794.38C1741.52 1792.85 1741.6 1791.94 1740.99 1790.02C1740.53 1788.65 1724.47 1750.94 1705.27 1706.12C1678.04 1642.57 1669.78 1624.21 1668.02 1622.53L1665.8 1620.46H1645.54H1625.27L1622.97 1622.53ZM1646.99 1695.57C1647.6 1696.56 1650.89 1704.14 1654.33 1712.47C1662.29 1731.82 1662.9 1730.6 1645.46 1730.6C1635.21 1730.6 1632.84 1730.37 1631.85 1729.37C1631.16 1728.76 1630.62 1727.84 1630.62 1727.31C1630.62 1726.85 1632.92 1720.96 1635.67 1714.23C1644.93 1691.9 1644.77 1692.13 1646.99 1695.57Z" fill="#B30101"/>
<path d="M511.5 1708.1L68.5 1729.6L6 1734.1L0 1736.6L6 1739.1L68.5 1744.1L511.5 1766.1C511.5 1766.1 526 1766.1 533.5 1757.1C541 1748.1 541 1736.1 541 1736.1C541 1736.1 541.5 1723.6 532 1715.1C522.5 1706.6 511.5 1708.1 511.5 1708.1Z" fill="#FFD800"/>
<path d="M2293.5 1706.1L2736.5 1727.6L2799 1732.1L2805 1734.6L2799 1737.1L2736.5 1742.1L2293.5 1764.1C2293.5 1764.1 2279 1764.1 2271.5 1755.1C2264 1746.1 2264 1734.1 2264 1734.1C2264 1734.1 2263.5 1721.6 2273 1713.1C2282.5 1704.6 2293.5 1706.1 2293.5 1706.1Z" fill="#FFD800"/>
</svg>
