<svg width="1976" height="1008" viewBox="0 0 1976 1008" fill="none" xmlns="http://www.w3.org/2000/svg">
<mask id="path-1-outside-1_13_55" maskUnits="userSpaceOnUse" x="0.739807" y="0.858398" width="430" height="1007" fill="black">
<rect fill="white" x="0.739807" y="0.858398" width="430" height="1007"/>
<path fill-rule="evenodd" clip-rule="evenodd" d="M408.5 265H368V232.5C369 228.667 365.4 218.8 343 210C320.6 201.2 160.667 134.667 83.5 102.5C75.3333 97.6667 59.2 94.8 60 122C60.8 149.2 60.3333 579.667 60 791.5C58.6667 799.667 65.3 812.6 102.5 799C123.596 791.288 191.783 773.509 262.763 755.003C316.95 740.875 372.764 726.323 410.5 715.5V799C408.833 807.667 397.9 839.9 367.5 853.5C337.1 867.1 162 945.5 76.5 985C54.5 994 21.8 978.8 21 952C20.3112 928.925 21.1792 291.346 21.4338 104.352C21.4749 74.1675 21.5 55.7237 21.5 53.5C21.5 37.5 32 14.5 60 22.5C87.9501 30.4857 281.309 126.822 375.496 173.749L375.497 173.75L376 174C381.5 176 408.5 195.6 408.5 210V265ZM218.844 806.791C210.847 809.613 205.5 817.171 205.5 825.65V855.091C205.5 869.598 220.462 879.279 233.695 873.335L287.195 849.303C294.379 846.076 299 838.934 299 831.059V806.768C299 792.969 285.356 783.316 272.344 787.908L218.844 806.791Z"/>
</mask>
<path fill-rule="evenodd" clip-rule="evenodd" d="M408.5 265H368V232.5C369 228.667 365.4 218.8 343 210C320.6 201.2 160.667 134.667 83.5 102.5C75.3333 97.6667 59.2 94.8 60 122C60.8 149.2 60.3333 579.667 60 791.5C58.6667 799.667 65.3 812.6 102.5 799C123.596 791.288 191.783 773.509 262.763 755.003C316.95 740.875 372.764 726.323 410.5 715.5V799C408.833 807.667 397.9 839.9 367.5 853.5C337.1 867.1 162 945.5 76.5 985C54.5 994 21.8 978.8 21 952C20.3112 928.925 21.1792 291.346 21.4338 104.352C21.4749 74.1675 21.5 55.7237 21.5 53.5C21.5 37.5 32 14.5 60 22.5C87.9501 30.4857 281.309 126.822 375.496 173.749L375.497 173.75L376 174C381.5 176 408.5 195.6 408.5 210V265ZM218.844 806.791C210.847 809.613 205.5 817.171 205.5 825.65V855.091C205.5 869.598 220.462 879.279 233.695 873.335L287.195 849.303C294.379 846.076 299 838.934 299 831.059V806.768C299 792.969 285.356 783.316 272.344 787.908L218.844 806.791Z" fill="#258F8B"/>
<path d="M368 265H348V285H368V265ZM408.5 265V285H428.5V265H408.5ZM368 232.5L348.648 227.452L348 229.934V232.5H368ZM83.5 102.5L73.3136 119.712L74.5156 120.423L75.8049 120.96L83.5 102.5ZM60 791.5L79.7387 794.723L79.9975 793.137L80 791.531L60 791.5ZM102.5 799L109.367 817.784L109.367 817.784L102.5 799ZM262.763 755.003L267.809 774.356L267.809 774.356L262.763 755.003ZM410.5 715.5H430.5V688.957L404.986 696.275L410.5 715.5ZM410.5 799L430.14 802.777L430.5 800.906V799H410.5ZM76.5 985L84.0727 1003.51L84.4842 1003.34L84.8879 1003.16L76.5 985ZM21 952L40.9911 951.403L40.9911 951.403L21 952ZM21.4338 104.352L1.43382 104.325L1.43382 104.325L21.4338 104.352ZM21.5 53.5L41.5 53.5L21.5 53.5ZM60 22.5L65.4944 3.26951L65.4944 3.26951L60 22.5ZM375.496 173.749L384.441 155.861L384.428 155.854L384.415 155.848L375.496 173.749ZM375.497 173.75L366.553 191.638L366.566 191.644L366.578 191.651L375.497 173.75ZM376 174L367.081 191.901L368.098 192.408L369.165 192.796L376 174ZM218.844 806.791L212.187 787.931L212.187 787.931L218.844 806.791ZM233.695 873.335L241.89 891.579L241.89 891.579L233.695 873.335ZM287.195 849.303L295.39 867.547L295.39 867.547L287.195 849.303ZM272.344 787.908L265.687 769.048L265.687 769.048L272.344 787.908ZM368 285H408.5V245H368V285ZM348 232.5V265H388V232.5H348ZM335.687 228.615C345.085 232.307 348.495 235.459 349.288 236.356C349.649 236.765 349.189 236.386 348.739 235.068C348.341 233.904 347.682 231.154 348.648 227.452L387.352 237.548C390.191 226.667 385.185 216.572 379.262 209.869C372.905 202.674 363.315 196.493 350.313 191.385L335.687 228.615ZM75.8049 120.96C152.795 153.054 313.034 219.716 335.687 228.615L350.313 191.385C328.166 182.684 168.538 116.28 91.1951 84.0397L75.8049 120.96ZM79.9914 121.412C79.8417 116.324 80.5815 114.65 80.4998 114.836C80.4167 115.025 80.0681 115.727 79.2408 116.575C78.3897 117.446 77.3135 118.181 76.1271 118.679C74.9847 119.159 74.0089 119.308 73.378 119.343C72.7691 119.377 72.4258 119.31 72.3925 119.303C72.353 119.295 72.4628 119.315 72.6932 119.407C72.9199 119.498 73.1422 119.61 73.3136 119.712L93.6864 85.2885C87.8109 81.8111 74.4727 75.9938 60.6479 81.7958C43.907 88.8216 39.5329 106.413 40.0086 122.588L79.9914 121.412ZM80 791.531C80.3328 580.051 80.8035 149.024 79.9914 121.412L40.0086 122.588C40.7965 149.376 40.3339 579.282 40 791.468L80 791.531ZM95.6327 780.216C87.3687 783.237 81.6828 784.451 78.0247 784.81C74.2979 785.175 73.5771 784.57 74.4798 784.946C75.7751 785.484 77.7302 786.948 78.9283 789.482C79.9461 791.635 79.935 793.52 79.7387 794.723L40.2613 788.277C39.3983 793.563 39.7164 800.127 42.7654 806.577C45.9948 813.409 51.6832 818.786 59.1202 821.879C72.5701 827.473 89.7517 824.955 109.367 817.784L95.6327 780.216ZM257.718 735.65C187.524 753.951 117.903 772.074 95.6327 780.216L109.367 817.784C129.288 810.501 196.041 793.068 267.809 774.356L257.718 735.65ZM404.986 696.275C367.54 707.015 312.005 721.496 257.718 735.65L267.809 774.356C321.894 760.255 377.989 745.631 416.014 734.725L404.986 696.275ZM430.5 799V715.5H390.5V799H430.5ZM375.667 871.756C395.529 862.871 408.592 848.095 416.759 834.961C424.819 822 428.853 809.468 430.14 802.777L390.86 795.223C390.48 797.198 388.214 805.117 382.791 813.839C377.475 822.388 369.871 830.529 359.333 835.244L375.667 871.756ZM84.8879 1003.16C170.253 963.718 345.228 885.374 375.667 871.756L359.333 835.244C328.972 848.826 153.747 927.282 68.1121 966.844L84.8879 1003.16ZM1.00892 952.597C1.67159 974.796 15.6096 990.95 31.209 999.475C46.5093 1007.84 66.5146 1010.69 84.0727 1003.51L68.9273 966.489C64.4855 968.306 57.1407 968.063 50.391 964.375C43.9405 960.85 41.1284 956.004 40.9911 951.403L1.00892 952.597ZM1.43382 104.325C1.17977 290.928 0.307698 929.106 1.00892 952.597L40.9911 951.403C40.3147 928.744 41.1787 291.763 41.4338 104.379L1.43382 104.325ZM1.5 53.5C1.5 55.7056 1.47493 74.1244 1.43382 104.325L41.4338 104.379C41.4749 74.2106 41.5 55.7418 41.5 53.5L1.5 53.5ZM65.4944 3.26951C44.8869 -2.61836 27.1579 2.64524 15.4388 15.5602C5.11385 26.9387 1.49999 41.9811 1.5 53.5L41.5 53.5C41.5 51.5803 41.8313 49.2752 42.5587 47.085C43.2883 44.8882 44.2289 43.357 45.0612 42.4398C45.7793 41.6484 46.4212 41.2791 47.2103 41.0737C48.0663 40.8509 50.2846 40.5245 54.5056 41.7305L65.4944 3.26951ZM384.415 155.848C337.336 132.392 265.365 96.5337 201.66 65.5375C169.816 50.0439 139.947 35.7207 116.242 24.7516C93.3348 14.152 74.3384 5.79637 65.4944 3.26951L54.5056 41.7305C59.6366 43.1965 75.2914 49.8776 99.4437 61.0535C122.798 71.8601 152.395 86.0512 184.159 101.506C247.667 132.406 319.47 168.18 366.578 191.65L384.415 155.848ZM384.442 155.861L384.441 155.861L366.552 191.638L366.553 191.638L384.442 155.861ZM384.919 156.099L384.416 155.848L366.578 191.651L367.081 191.901L384.919 156.099ZM428.5 210C428.5 200.564 424.292 192.629 420.794 187.424C417.037 181.835 412.332 176.816 407.968 172.737C403.53 168.59 398.931 164.941 394.968 162.13C391.677 159.795 387.009 156.722 382.835 155.204L369.165 192.796C368.007 192.375 367.707 192.096 368.719 192.7C369.446 193.135 370.509 193.822 371.828 194.757C374.475 196.634 377.658 199.16 380.657 201.963C383.73 204.835 386.119 207.54 387.596 209.738C389.333 212.321 388.5 212.236 388.5 210H428.5ZM428.5 265V210H388.5V265H428.5ZM225.5 825.65L225.5 825.65L212.187 787.931C196.195 793.575 185.5 808.691 185.5 825.65H225.5ZM225.5 855.091V825.65H185.5V855.091H225.5ZM225.5 855.091C225.479 855.101 225.462 855.107 225.45 855.112C225.439 855.116 225.431 855.118 225.427 855.12C225.423 855.121 225.422 855.121 225.424 855.121C225.426 855.12 225.43 855.119 225.435 855.118C225.447 855.116 225.463 855.115 225.481 855.114C225.498 855.113 225.514 855.114 225.527 855.115C225.554 855.118 225.563 855.122 225.555 855.119C225.55 855.117 225.543 855.114 225.533 855.11C225.523 855.105 225.511 855.098 225.5 855.091C225.489 855.084 225.478 855.076 225.47 855.069C225.461 855.062 225.455 855.056 225.452 855.053C225.446 855.046 225.453 855.052 225.467 855.076C225.473 855.088 225.48 855.102 225.487 855.118C225.494 855.135 225.498 855.149 225.502 855.161C225.503 855.167 225.504 855.171 225.504 855.173C225.505 855.174 225.504 855.174 225.504 855.169C225.503 855.165 225.502 855.157 225.502 855.145C225.501 855.132 225.5 855.114 225.5 855.091H185.5C185.5 884.106 215.423 903.468 241.89 891.579L225.5 855.091ZM279 831.059L225.5 855.091L241.89 891.579L295.39 867.547L279 831.059ZM279 831.059L279 831.059L295.39 867.547C309.757 861.093 319 846.809 319 831.059H279ZM279 806.768V831.059H319V806.768H279ZM279 806.768C279.018 806.762 279.032 806.757 279.042 806.755C279.051 806.752 279.058 806.75 279.061 806.75C279.064 806.749 279.065 806.749 279.063 806.749C279.062 806.749 279.059 806.75 279.054 806.75C279.044 806.751 279.031 806.752 279.017 806.751C279.003 806.751 278.99 806.75 278.979 806.748C278.957 806.745 278.95 806.741 278.957 806.744C278.96 806.745 278.966 806.748 278.974 806.752C278.982 806.756 278.991 806.762 279 806.768C279.009 806.774 279.017 806.781 279.024 806.787C279.03 806.793 279.035 806.798 279.037 806.8C279.042 806.806 279.036 806.8 279.026 806.781C279.021 806.771 279.015 806.76 279.01 806.747C279.005 806.733 279.001 806.721 278.999 806.711C278.998 806.707 278.997 806.703 278.997 806.702C278.996 806.7 278.997 806.701 278.997 806.704C278.997 806.708 278.998 806.714 278.999 806.724C278.999 806.734 279 806.749 279 806.768H319C319 779.17 291.712 759.863 265.687 769.048L279 806.768ZM225.5 825.65L279 806.768L265.687 769.048L212.187 787.931L225.5 825.65Z" fill="white" mask="url(#path-1-outside-1_13_55)"/>
<mask id="path-3-outside-2_13_55" maskUnits="userSpaceOnUse" x="71" y="168" width="1905" height="566" fill="black">
<rect fill="white" x="71" y="168" width="1905" height="566"/>
<path fill-rule="evenodd" clip-rule="evenodd" d="M645.5 278H229C221.5 227.5 192.333 215.5 168.5 208L128 198H101V223C178.2 223.4 193.667 264.5 197 287L260.876 544.5H260.5C244.465 570.249 230.113 621.016 286.007 634.493C286.538 672.971 317.895 704 356.5 704C394.262 704 425.091 674.31 426.915 637H508.085C509.909 674.31 540.738 704 578.5 704C617.436 704 649 672.436 649 633.5C649 594.564 617.436 563 578.5 563C552.508 563 529.802 577.065 517.577 598H417.423C405.198 577.065 382.492 563 356.5 563C330.827 563 308.36 576.722 296.032 597.232C285.362 594.129 276.15 580.986 300.658 545L619 545C622.669 530.01 626.47 514.47 630.349 498.611C644.971 438.827 660.702 374.51 674.659 318C674.883 313.64 675 309.306 675 305C675 292 661 278 645.5 278ZM238 318H313V358H250.342L238 318ZM426 318L351 318V357L426 358V318ZM466 318H541V358H466V318ZM313 384H255L270.321 438H313V384ZM351 384H426V438H351V384ZM541 384H466V438H541V384ZM274 464H313V517H286.342L274 464ZM579 318H654L641.658 358H579V318ZM637 384H579V438H621.679L637 384ZM579 464H618L605.658 517H579V464ZM351 465H426V518H351V465ZM541 465H466V518H541V465ZM316.108 637C317.644 658.243 335.365 675 357 675C378.635 675 396.356 658.243 397.892 637C397.964 636.009 398 635.009 398 634C398 618.471 389.367 604.958 376.638 598C370.806 594.812 364.115 593 357 593C349.885 593 343.194 594.812 337.362 598C324.633 604.958 316 618.471 316 634C316 635.009 316.036 636.009 316.108 637ZM579 675C601.644 675 620 656.644 620 634C620 611.356 601.644 593 579 593C556.356 593 538 611.356 538 634C538 656.644 556.356 675 579 675ZM751.8 390H797.8V630H841.8V390H887.8V350H751.8V390ZM953.103 350H909.103V630H953.103V504H1000.3V630H1044.3V350H1000.3V464H953.103V350ZM1197.07 350H1077.07V630H1197.07V590H1121.07V504H1181.47V464H1121.07V390H1197.07V350ZM1330.45 350H1286.45V630H1402.85V590H1330.45V350ZM1439.15 616C1450.35 628 1466.61 634 1487.95 634C1509.28 634 1525.55 628 1536.75 616C1547.95 603.733 1553.55 586.267 1553.55 563.6V350H1511.15V566.8C1511.15 576.4 1509.15 583.333 1505.15 587.6C1501.41 591.867 1495.95 594 1488.75 594C1481.55 594 1475.95 591.867 1471.95 587.6C1468.21 583.333 1466.35 576.4 1466.35 566.8V350H1422.35V563.6C1422.35 586.267 1427.95 603.733 1439.15 616ZM1598.48 616C1609.68 628 1625.82 634 1646.88 634C1667.95 634 1683.95 628 1694.88 616C1706.08 604 1711.68 587.067 1711.68 565.2V525.6H1670.08V568.4C1670.08 585.467 1662.75 594 1648.08 594C1633.42 594 1626.08 585.467 1626.08 568.4V412C1626.08 394.667 1633.42 386 1648.08 386C1662.75 386 1670.08 394.667 1670.08 412V444.4H1711.68V414.8C1711.68 392.933 1706.08 376 1694.88 364C1683.95 352 1667.95 346 1646.88 346C1625.82 346 1609.68 352 1598.48 364C1587.55 376 1582.08 392.933 1582.08 414.8V565.2C1582.08 587.067 1587.55 604 1598.48 616ZM1782.01 350H1738.01V630H1782.01V350ZM1828.96 615.6C1840.43 627.867 1856.96 634 1878.56 634C1900.16 634 1916.7 627.867 1928.16 615.6C1939.63 603.333 1945.36 586 1945.36 563.6V416.4C1945.36 394 1939.63 376.667 1928.16 364.4C1916.7 352.133 1900.16 346 1878.56 346C1856.96 346 1840.43 352.133 1828.96 364.4C1817.5 376.667 1811.76 394 1811.76 416.4V563.6C1811.76 586 1817.5 603.333 1828.96 615.6ZM1901.36 566.4C1901.36 584.8 1893.76 594 1878.56 594C1863.36 594 1855.76 584.8 1855.76 566.4V413.6C1855.76 395.2 1863.36 386 1878.56 386C1893.76 386 1901.36 395.2 1901.36 413.6V566.4Z"/>
</mask>
<path fill-rule="evenodd" clip-rule="evenodd" d="M645.5 278H229C221.5 227.5 192.333 215.5 168.5 208L128 198H101V223C178.2 223.4 193.667 264.5 197 287L260.876 544.5H260.5C244.465 570.249 230.113 621.016 286.007 634.493C286.538 672.971 317.895 704 356.5 704C394.262 704 425.091 674.31 426.915 637H508.085C509.909 674.31 540.738 704 578.5 704C617.436 704 649 672.436 649 633.5C649 594.564 617.436 563 578.5 563C552.508 563 529.802 577.065 517.577 598H417.423C405.198 577.065 382.492 563 356.5 563C330.827 563 308.36 576.722 296.032 597.232C285.362 594.129 276.15 580.986 300.658 545L619 545C622.669 530.01 626.47 514.47 630.349 498.611C644.971 438.827 660.702 374.51 674.659 318C674.883 313.64 675 309.306 675 305C675 292 661 278 645.5 278ZM238 318H313V358H250.342L238 318ZM426 318L351 318V357L426 358V318ZM466 318H541V358H466V318ZM313 384H255L270.321 438H313V384ZM351 384H426V438H351V384ZM541 384H466V438H541V384ZM274 464H313V517H286.342L274 464ZM579 318H654L641.658 358H579V318ZM637 384H579V438H621.679L637 384ZM579 464H618L605.658 517H579V464ZM351 465H426V518H351V465ZM541 465H466V518H541V465ZM316.108 637C317.644 658.243 335.365 675 357 675C378.635 675 396.356 658.243 397.892 637C397.964 636.009 398 635.009 398 634C398 618.471 389.367 604.958 376.638 598C370.806 594.812 364.115 593 357 593C349.885 593 343.194 594.812 337.362 598C324.633 604.958 316 618.471 316 634C316 635.009 316.036 636.009 316.108 637ZM579 675C601.644 675 620 656.644 620 634C620 611.356 601.644 593 579 593C556.356 593 538 611.356 538 634C538 656.644 556.356 675 579 675ZM751.8 390H797.8V630H841.8V390H887.8V350H751.8V390ZM953.103 350H909.103V630H953.103V504H1000.3V630H1044.3V350H1000.3V464H953.103V350ZM1197.07 350H1077.07V630H1197.07V590H1121.07V504H1181.47V464H1121.07V390H1197.07V350ZM1330.45 350H1286.45V630H1402.85V590H1330.45V350ZM1439.15 616C1450.35 628 1466.61 634 1487.95 634C1509.28 634 1525.55 628 1536.75 616C1547.95 603.733 1553.55 586.267 1553.55 563.6V350H1511.15V566.8C1511.15 576.4 1509.15 583.333 1505.15 587.6C1501.41 591.867 1495.95 594 1488.75 594C1481.55 594 1475.95 591.867 1471.95 587.6C1468.21 583.333 1466.35 576.4 1466.35 566.8V350H1422.35V563.6C1422.35 586.267 1427.95 603.733 1439.15 616ZM1598.48 616C1609.68 628 1625.82 634 1646.88 634C1667.95 634 1683.95 628 1694.88 616C1706.08 604 1711.68 587.067 1711.68 565.2V525.6H1670.08V568.4C1670.08 585.467 1662.75 594 1648.08 594C1633.42 594 1626.08 585.467 1626.08 568.4V412C1626.08 394.667 1633.42 386 1648.08 386C1662.75 386 1670.08 394.667 1670.08 412V444.4H1711.68V414.8C1711.68 392.933 1706.08 376 1694.88 364C1683.95 352 1667.95 346 1646.88 346C1625.82 346 1609.68 352 1598.48 364C1587.55 376 1582.08 392.933 1582.08 414.8V565.2C1582.08 587.067 1587.55 604 1598.48 616ZM1782.01 350H1738.01V630H1782.01V350ZM1828.96 615.6C1840.43 627.867 1856.96 634 1878.56 634C1900.16 634 1916.7 627.867 1928.16 615.6C1939.63 603.333 1945.36 586 1945.36 563.6V416.4C1945.36 394 1939.63 376.667 1928.16 364.4C1916.7 352.133 1900.16 346 1878.56 346C1856.96 346 1840.43 352.133 1828.96 364.4C1817.5 376.667 1811.76 394 1811.76 416.4V563.6C1811.76 586 1817.5 603.333 1828.96 615.6ZM1901.36 566.4C1901.36 584.8 1893.76 594 1878.56 594C1863.36 594 1855.76 584.8 1855.76 566.4V413.6C1855.76 395.2 1863.36 386 1878.56 386C1893.76 386 1901.36 395.2 1901.36 413.6V566.4Z" fill="#EE7C1B"/>
<path d="M229 278L199.325 282.407L203.126 308H229V278ZM168.5 208L177.505 179.383L176.606 179.101L175.691 178.875L168.5 208ZM128 198L135.191 168.875L131.649 168H128V198ZM101 198V168H71V198H101ZM101 223H71V252.845L100.845 253L101 223ZM197 287L167.324 291.396L167.535 292.823L167.882 294.223L197 287ZM260.876 544.5V574.5H299.227L289.993 537.277L260.876 544.5ZM260.5 544.5V514.5H243.841L235.034 528.641L260.5 544.5ZM286.007 634.493L316.004 634.079L315.682 610.789L293.039 605.329L286.007 634.493ZM426.915 637V607H398.346L396.95 635.535L426.915 637ZM508.085 637L538.05 635.535L536.654 607H508.085V637ZM517.577 598V628H534.799L543.483 613.128L517.577 598ZM417.423 598L391.517 613.128L400.201 628H417.423V598ZM296.032 597.232L287.654 626.039L309.841 632.492L321.744 612.687L296.032 597.232ZM300.658 545L300.658 515L284.793 515L275.863 528.113L300.658 545ZM619 545L619 575L642.543 575L648.14 552.132L619 545ZM630.349 498.611L601.208 491.483L601.208 491.484L630.349 498.611ZM674.659 318L703.784 325.193L704.472 322.407L704.619 319.541L674.659 318ZM313 318H343V288H313V318ZM238 318V288H197.348L209.334 326.845L238 318ZM313 358V388H343V358H313ZM250.342 358L221.675 366.845L228.203 388H250.342V358ZM351 318L351 288L321 288V318H351ZM426 318H456V288L426 288L426 318ZM351 357H321V386.603L350.6 386.997L351 357ZM426 358L425.6 387.997L456 388.403V358H426ZM541 318H571V288H541V318ZM466 318V288H436V318H466ZM541 358V388H571V358H541ZM466 358H436V388H466V358ZM255 384V354H215.304L226.139 392.188L255 384ZM313 384H343V354H313V384ZM270.321 438L241.46 446.188L247.648 468H270.321V438ZM313 438V468H343V438H313ZM426 384H456V354H426V384ZM351 384V354H321V384H351ZM426 438V468H456V438H426ZM351 438H321V468H351V438ZM466 384V354H436V384H466ZM541 384H571V354H541V384ZM466 438H436V468H466V438ZM541 438V468H571V438H541ZM313 464H343V434H313V464ZM274 464V434H236.211L244.782 470.804L274 464ZM313 517V547H343V517H313ZM286.342 517L257.123 523.804L262.525 547H286.342V517ZM654 318L682.666 326.845L694.652 288H654V318ZM579 318V288H549V318H579ZM641.658 358V388H663.797L670.325 366.845L641.658 358ZM579 358H549V388H579V358ZM579 384V354H549V384H579ZM637 384L665.861 392.188L676.696 354H637V384ZM579 438H549V468H579V438ZM621.679 438V468H644.352L650.54 446.188L621.679 438ZM618 464L647.218 470.804L655.789 434H618V464ZM579 464V434H549V464H579ZM605.658 517V547H629.475L634.877 523.804L605.658 517ZM579 517H549V547H579V517ZM426 465H456V435H426V465ZM351 465V435H321V465H351ZM426 518V548H456V518H426ZM351 518H321V548H351V518ZM466 465V435H436V465H466ZM541 465H571V435H541V465ZM466 518H436V548H466V518ZM541 518V548H571V518H541ZM316.108 637L346.03 634.836L346.03 634.836L316.108 637ZM397.892 637L367.97 634.836L367.97 634.836L397.892 637ZM376.638 598L391.027 571.676L391.027 571.676L376.638 598ZM337.362 598L322.973 571.676L322.973 571.676L337.362 598ZM797.8 390H827.8V360H797.8V390ZM751.8 390H721.8V420H751.8V390ZM797.8 630H767.8V660H797.8V630ZM841.8 630V660H871.8V630H841.8ZM841.8 390V360H811.8V390H841.8ZM887.8 390V420H917.8V390H887.8ZM887.8 350H917.8V320H887.8V350ZM751.8 350V320H721.8V350H751.8ZM909.103 350V320H879.103V350H909.103ZM953.103 350H983.103V320H953.103V350ZM909.103 630H879.103V660H909.103V630ZM953.103 630V660H983.103V630H953.103ZM953.103 504V474H923.103V504H953.103ZM1000.3 504H1030.3V474H1000.3V504ZM1000.3 630H970.303V660H1000.3V630ZM1044.3 630V660H1074.3V630H1044.3ZM1044.3 350H1074.3V320H1044.3V350ZM1000.3 350V320H970.303V350H1000.3ZM1000.3 464V494H1030.3V464H1000.3ZM953.103 464H923.103V494H953.103V464ZM1077.07 350V320H1047.07V350H1077.07ZM1197.07 350H1227.07V320H1197.07V350ZM1077.07 630H1047.07V660H1077.07V630ZM1197.07 630V660H1227.07V630H1197.07ZM1197.07 590H1227.07V560H1197.07V590ZM1121.07 590H1091.07V620H1121.07V590ZM1121.07 504V474H1091.07V504H1121.07ZM1181.47 504V534H1211.47V504H1181.47ZM1181.47 464H1211.47V434H1181.47V464ZM1121.07 464H1091.07V494H1121.07V464ZM1121.07 390V360H1091.07V390H1121.07ZM1197.07 390V420H1227.07V390H1197.07ZM1286.45 350V320H1256.45V350H1286.45ZM1330.45 350H1360.45V320H1330.45V350ZM1286.45 630H1256.45V660H1286.45V630ZM1402.85 630V660H1432.85V630H1402.85ZM1402.85 590H1432.85V560H1402.85V590ZM1330.45 590H1300.45V620H1330.45V590ZM1439.15 616L1416.99 636.228L1417.1 636.349L1417.22 636.47L1439.15 616ZM1536.75 616L1558.68 636.469L1558.79 636.349L1558.9 636.228L1536.75 616ZM1553.55 350H1583.55V320H1553.55V350ZM1511.15 350V320H1481.15V350H1511.15ZM1505.15 587.6L1483.26 567.082L1482.91 567.457L1482.57 567.845L1505.15 587.6ZM1471.95 587.6L1449.37 607.355L1449.71 607.743L1450.06 608.118L1471.95 587.6ZM1466.35 350H1496.35V320H1466.35V350ZM1422.35 350V320H1392.35V350H1422.35ZM1598.48 616L1576.31 636.205L1576.43 636.338L1576.55 636.469L1598.48 616ZM1694.88 616L1672.95 595.531L1672.83 595.662L1672.71 595.795L1694.88 616ZM1711.68 525.6H1741.68V495.6H1711.68V525.6ZM1670.08 525.6V495.6H1640.08V525.6H1670.08ZM1670.08 444.4H1640.08V474.4H1670.08V444.4ZM1711.68 444.4V474.4H1741.68V444.4H1711.68ZM1694.88 364L1672.71 384.205L1672.83 384.338L1672.95 384.469L1694.88 364ZM1598.48 364L1576.55 343.53L1576.43 343.662L1576.31 343.795L1598.48 364ZM1738.01 350V320H1708.01V350H1738.01ZM1782.01 350H1812.01V320H1782.01V350ZM1738.01 630H1708.01V660H1738.01V630ZM1782.01 630V660H1812.01V630H1782.01ZM1928.16 364.4L1906.25 384.887L1906.25 384.887L1928.16 364.4ZM1828.96 364.4L1850.88 384.887L1850.88 384.887L1828.96 364.4ZM229 308H645.5V248H229V308ZM159.495 236.617C170.737 240.154 178.561 243.464 184.629 249.014C189.964 253.892 196.419 262.84 199.325 282.407L258.675 273.593C254.081 242.66 242.203 220.358 225.121 204.736C208.773 189.786 190.096 183.346 177.505 179.383L159.495 236.617ZM120.809 227.125L161.309 237.125L175.691 178.875L135.191 168.875L120.809 227.125ZM101 228H128V168H101V228ZM131 223V198H71V223H131ZM226.676 282.604C224.443 267.528 217.863 244.292 197.281 224.885C176.394 205.191 145.137 193.228 101.155 193L100.845 253C134.063 253.172 149.139 261.959 156.119 268.54C163.403 275.408 166.224 283.972 167.324 291.396L226.676 282.604ZM289.993 537.277L226.118 279.777L167.882 294.223L231.758 551.723L289.993 537.277ZM260.5 574.5H260.876V514.5H260.5V574.5ZM293.039 605.329C283.524 603.034 279.9 599.891 278.622 598.452C277.438 597.118 276.465 595.241 276.186 591.728C275.502 583.1 279.659 570.486 285.966 560.359L235.034 528.641C225.306 544.262 214.269 569.907 216.374 596.468C217.49 610.55 222.406 625.502 233.75 638.282C245 650.956 260.543 659.213 278.975 663.657L293.039 605.329ZM356.5 674C334.325 674 316.309 656.174 316.004 634.079L256.01 634.907C256.767 689.768 301.466 734 356.5 734V674ZM396.95 635.535C395.904 656.944 378.185 674 356.5 674V734C410.34 734 454.277 691.676 456.879 638.465L396.95 635.535ZM508.085 607H426.915V667H508.085V607ZM578.5 674C556.815 674 539.096 656.944 538.05 635.535L478.121 638.465C480.723 691.676 524.66 734 578.5 734V674ZM619 633.5C619 655.868 600.868 674 578.5 674V734C634.005 734 679 689.005 679 633.5H619ZM578.5 593C600.868 593 619 611.132 619 633.5H679C679 577.995 634.005 533 578.5 533V593ZM543.483 613.128C550.552 601.024 563.606 593 578.5 593V533C541.411 533 509.052 553.107 491.671 582.872L543.483 613.128ZM417.423 628H517.577V568H417.423V628ZM356.5 593C371.394 593 384.448 601.024 391.517 613.128L443.329 582.872C425.948 553.107 393.589 533 356.5 533V593ZM321.744 612.687C328.874 600.827 341.788 593 356.5 593V533C319.867 533 287.846 552.618 270.319 581.777L321.744 612.687ZM275.863 528.113C262.539 547.676 253.928 567.037 255.227 585.546C255.937 595.678 259.639 605.158 266.375 612.743C272.859 620.043 280.753 624.032 287.654 626.039L304.41 568.426C305.976 568.881 308.717 570.063 311.238 572.902C314.012 576.025 314.942 579.388 315.079 581.348C315.185 582.851 314.75 582.207 316.129 578.588C317.481 575.04 320.222 569.569 325.454 561.887L275.863 528.113ZM619 515L300.658 515L300.658 575L619 575L619 515ZM601.208 491.484C597.329 507.343 593.528 522.88 589.86 537.868L648.14 552.132C651.809 537.139 655.611 521.597 659.49 505.738L601.208 491.484ZM645.534 310.807C631.568 367.356 615.828 431.708 601.208 491.483L659.49 505.739C674.114 445.947 689.837 381.664 703.784 325.193L645.534 310.807ZM645 305C645 308.763 644.898 312.583 644.698 316.459L704.619 319.541C704.868 314.698 705 309.849 705 305H645ZM645.5 308C644.844 308 644.574 307.854 644.705 307.911C644.857 307.977 645.168 308.157 645.486 308.456C645.818 308.769 645.831 308.902 645.684 308.606C645.547 308.33 645 307.109 645 305H705C705 288.101 696.337 273.935 686.639 264.794C676.663 255.391 662.204 248 645.5 248V308ZM313 288H238V348H313V288ZM343 358V318H283V358H343ZM250.342 388H313V328H250.342V388ZM209.334 326.845L221.675 366.845L279.008 349.155L266.666 309.155L209.334 326.845ZM351 348L426 348L426 288L351 288L351 348ZM381 357V318H321V357H381ZM426.4 328.003L351.4 327.003L350.6 386.997L425.6 387.997L426.4 328.003ZM396 318V358H456V318H396ZM541 288H466V348H541V288ZM571 358V318H511V358H571ZM466 388H541V328H466V388ZM436 318V358H496V318H436ZM255 414H313V354H255V414ZM299.182 429.812L283.861 375.812L226.139 392.188L241.46 446.188L299.182 429.812ZM313 408H270.321V468H313V408ZM283 384V438H343V384H283ZM426 354H351V414H426V354ZM456 438V384H396V438H456ZM351 468H426V408H351V468ZM321 384V438H381V384H321ZM466 414H541V354H466V414ZM496 438V384H436V438H496ZM541 408H466V468H541V408ZM511 384V438H571V384H511ZM313 434H274V494H313V434ZM343 517V464H283V517H343ZM286.342 547H313V487H286.342V547ZM244.782 470.804L257.123 523.804L315.56 510.196L303.218 457.196L244.782 470.804ZM654 288H579V348H654V288ZM670.325 366.845L682.666 326.845L625.334 309.155L612.992 349.155L670.325 366.845ZM579 388H641.658V328H579V388ZM549 318V358H609V318H549ZM579 414H637V354H579V414ZM609 438V384H549V438H609ZM621.679 408H579V468H621.679V408ZM608.139 375.812L592.818 429.812L650.54 446.188L665.861 392.188L608.139 375.812ZM618 434H579V494H618V434ZM634.877 523.804L647.218 470.804L588.782 457.196L576.44 510.196L634.877 523.804ZM579 547H605.658V487H579V547ZM549 464V517H609V464H549ZM426 435H351V495H426V435ZM456 518V465H396V518H456ZM351 548H426V488H351V548ZM321 465V518H381V465H321ZM466 495H541V435H466V495ZM496 518V465H436V518H496ZM541 488H466V548H541V488ZM511 465V518H571V465H511ZM357 645C351.209 645 346.44 640.506 346.03 634.836L286.186 639.164C288.849 675.98 319.522 705 357 705V645ZM367.97 634.836C367.56 640.506 362.791 645 357 645V705C394.478 705 425.151 675.98 427.814 639.164L367.97 634.836ZM368 634C368 634.286 367.99 634.565 367.97 634.836L427.814 639.164C427.937 637.454 428 635.731 428 634H368ZM362.248 624.324C365.74 626.233 368 629.874 368 634H428C428 607.068 412.993 583.684 391.027 571.676L362.248 624.324ZM357 623C358.961 623 360.718 623.487 362.248 624.324L391.027 571.676C380.894 566.137 369.269 563 357 563V623ZM351.752 624.324C353.282 623.487 355.039 623 357 623V563C344.731 563 333.106 566.137 322.973 571.676L351.752 624.324ZM346 634C346 629.874 348.26 626.233 351.752 624.324L322.973 571.676C301.007 583.684 286 607.068 286 634H346ZM346.03 634.836C346.01 634.565 346 634.286 346 634H286C286 635.731 286.063 637.454 286.186 639.164L346.03 634.836ZM590 634C590 640.075 585.075 645 579 645V705C618.212 705 650 673.212 650 634H590ZM579 623C585.075 623 590 627.925 590 634H650C650 594.788 618.212 563 579 563V623ZM568 634C568 627.925 572.925 623 579 623V563C539.788 563 508 594.788 508 634H568ZM579 645C572.925 645 568 640.075 568 634H508C508 673.212 539.788 705 579 705V645ZM797.8 360H751.8V420H797.8V360ZM827.8 630V390H767.8V630H827.8ZM841.8 600H797.8V660H841.8V600ZM811.8 390V630H871.8V390H811.8ZM887.8 360H841.8V420H887.8V360ZM857.8 350V390H917.8V350H857.8ZM751.8 380H887.8V320H751.8V380ZM781.8 390V350H721.8V390H781.8ZM909.103 380H953.103V320H909.103V380ZM939.103 630V350H879.103V630H939.103ZM953.103 600H909.103V660H953.103V600ZM923.103 504V630H983.103V504H923.103ZM1000.3 474H953.103V534H1000.3V474ZM1030.3 630V504H970.303V630H1030.3ZM1044.3 600H1000.3V660H1044.3V600ZM1014.3 350V630H1074.3V350H1014.3ZM1000.3 380H1044.3V320H1000.3V380ZM1030.3 464V350H970.303V464H1030.3ZM953.103 494H1000.3V434H953.103V494ZM923.103 350V464H983.103V350H923.103ZM1077.07 380H1197.07V320H1077.07V380ZM1107.07 630V350H1047.07V630H1107.07ZM1197.07 600H1077.07V660H1197.07V600ZM1167.07 590V630H1227.07V590H1167.07ZM1121.07 620H1197.07V560H1121.07V620ZM1091.07 504V590H1151.07V504H1091.07ZM1181.47 474H1121.07V534H1181.47V474ZM1151.47 464V504H1211.47V464H1151.47ZM1121.07 494H1181.47V434H1121.07V494ZM1091.07 390V464H1151.07V390H1091.07ZM1197.07 360H1121.07V420H1197.07V360ZM1167.07 350V390H1227.07V350H1167.07ZM1286.45 380H1330.45V320H1286.45V380ZM1316.45 630V350H1256.45V630H1316.45ZM1402.85 600H1286.45V660H1402.85V600ZM1372.85 590V630H1432.85V590H1372.85ZM1330.45 620H1402.85V560H1330.45V620ZM1300.45 350V590H1360.45V350H1300.45ZM1487.95 604C1472.3 604 1465.03 599.766 1461.08 595.53L1417.22 636.47C1435.66 656.234 1460.92 664 1487.95 664V604ZM1514.82 595.531C1510.86 599.766 1503.59 604 1487.95 604V664C1514.97 664 1540.23 656.234 1558.68 636.469L1514.82 595.531ZM1523.55 563.6C1523.55 581.54 1519.15 590.779 1514.59 595.772L1558.9 636.228C1576.74 616.688 1583.55 590.994 1583.55 563.6H1523.55ZM1523.55 350V563.6H1583.55V350H1523.55ZM1511.15 380H1553.55V320H1511.15V380ZM1541.15 566.8V350H1481.15V566.8H1541.15ZM1527.03 608.118C1538.72 595.655 1541.15 579.412 1541.15 566.8H1481.15C1481.15 568.173 1481.07 569.19 1480.99 569.897C1480.9 570.607 1480.82 570.908 1480.82 570.885C1480.84 570.84 1481.34 569.127 1483.26 567.082L1527.03 608.118ZM1488.75 624C1502.09 624 1516.83 619.808 1527.72 607.355L1482.57 567.845C1483.99 566.22 1485.74 565.075 1487.34 564.453C1488.77 563.893 1489.44 564 1488.75 564V624ZM1450.06 608.118C1461 619.786 1475.31 624 1488.75 624V564C1488.08 564 1488.61 563.9 1489.83 564.365C1491.18 564.879 1492.64 565.808 1493.83 567.082L1450.06 608.118ZM1436.35 566.8C1436.35 579.024 1438.49 594.921 1449.37 607.355L1494.52 567.845C1496.37 569.95 1496.77 571.591 1496.72 571.401C1496.7 571.329 1496.6 570.933 1496.51 570.134C1496.42 569.34 1496.35 568.242 1496.35 566.8H1436.35ZM1436.35 350V566.8H1496.35V350H1436.35ZM1422.35 380H1466.35V320H1422.35V380ZM1452.35 563.6V350H1392.35V563.6H1452.35ZM1461.3 595.772C1456.74 590.779 1452.35 581.54 1452.35 563.6H1392.35C1392.35 590.994 1399.15 616.688 1416.99 636.228L1461.3 595.772ZM1646.88 604C1631.64 604 1624.44 599.841 1620.42 595.531L1576.55 636.469C1594.93 656.159 1620 664 1646.88 664V604ZM1672.71 595.795C1669.03 599.829 1662.17 604 1646.88 604V664C1673.73 664 1698.87 656.171 1717.06 636.205L1672.71 595.795ZM1681.68 565.2C1681.68 582.049 1677.44 590.722 1672.95 595.531L1716.82 636.469C1734.73 617.278 1741.68 592.084 1741.68 565.2H1681.68ZM1681.68 525.6V565.2H1741.68V525.6H1681.68ZM1670.08 555.6H1711.68V495.6H1670.08V555.6ZM1700.08 568.4V525.6H1640.08V568.4H1700.08ZM1648.08 624C1661.33 624 1676.35 619.935 1687.34 607.153C1697.57 595.241 1700.08 580.538 1700.08 568.4H1640.08C1640.08 570.616 1639.84 571.457 1639.87 571.339C1639.93 571.134 1640.38 569.741 1641.83 568.047C1643.37 566.255 1645.24 565.058 1646.86 564.43C1648.3 563.873 1648.91 564 1648.08 564V624ZM1596.08 568.4C1596.08 580.538 1598.6 595.241 1608.83 607.153C1619.82 619.935 1634.84 624 1648.08 624V564C1647.26 564 1647.87 563.873 1649.31 564.43C1650.93 565.058 1652.8 566.255 1654.34 568.047C1655.79 569.741 1656.24 571.134 1656.3 571.339C1656.33 571.456 1656.08 570.616 1656.08 568.4H1596.08ZM1596.08 412V568.4H1656.08V412H1596.08ZM1648.08 356C1634.69 356 1619.62 360.193 1608.68 373.122C1598.56 385.09 1596.08 399.819 1596.08 412H1656.08C1656.08 409.684 1656.34 408.743 1656.33 408.769C1656.3 408.875 1655.9 410.208 1654.49 411.878C1652.98 413.655 1651.12 414.881 1649.46 415.537C1647.97 416.121 1647.31 416 1648.08 416V356ZM1700.08 412C1700.08 399.819 1697.61 385.09 1687.49 373.122C1676.55 360.193 1661.48 356 1648.08 356V416C1648.86 416 1648.2 416.121 1646.71 415.537C1645.05 414.881 1643.19 413.655 1641.68 411.878C1640.27 410.208 1639.87 408.875 1639.84 408.769C1639.83 408.743 1640.08 409.684 1640.08 412H1700.08ZM1700.08 444.4V412H1640.08V444.4H1700.08ZM1711.68 414.4H1670.08V474.4H1711.68V414.4ZM1681.68 414.8V444.4H1741.68V414.8H1681.68ZM1672.95 384.469C1677.44 389.278 1681.68 397.951 1681.68 414.8H1741.68C1741.68 387.916 1734.73 362.722 1716.82 343.53L1672.95 384.469ZM1646.88 376C1662.17 376 1669.03 380.171 1672.71 384.205L1717.06 343.795C1698.87 323.829 1673.73 316 1646.88 316V376ZM1620.42 384.469C1624.44 380.159 1631.64 376 1646.88 376V316C1620 316 1594.93 323.841 1576.55 343.53L1620.42 384.469ZM1612.08 414.8C1612.08 397.775 1616.29 389.001 1620.66 384.205L1576.31 343.795C1558.81 362.999 1552.08 388.092 1552.08 414.8H1612.08ZM1612.08 565.2V414.8H1552.08V565.2H1612.08ZM1620.66 595.795C1616.29 590.999 1612.08 582.225 1612.08 565.2H1552.08C1552.08 591.908 1558.81 617.001 1576.31 636.205L1620.66 595.795ZM1738.01 380H1782.01V320H1738.01V380ZM1768.01 630V350H1708.01V630H1768.01ZM1782.01 600H1738.01V660H1782.01V600ZM1752.01 350V630H1812.01V350H1752.01ZM1878.56 604C1862.75 604 1855.16 599.69 1850.88 595.113L1807.05 636.087C1825.7 656.043 1851.17 664 1878.56 664V604ZM1906.25 595.113C1901.97 599.69 1894.37 604 1878.56 604V664C1905.95 664 1931.42 656.043 1950.08 636.087L1906.25 595.113ZM1915.36 563.6C1915.36 580.991 1910.98 590.048 1906.25 595.113L1950.08 636.087C1968.28 616.618 1975.36 591.009 1975.36 563.6H1915.36ZM1915.36 416.4V563.6H1975.36V416.4H1915.36ZM1906.25 384.887C1910.98 389.952 1915.36 399.009 1915.36 416.4H1975.36C1975.36 388.991 1968.28 363.382 1950.08 343.913L1906.25 384.887ZM1878.56 376C1894.37 376 1901.97 380.31 1906.25 384.887L1950.08 343.913C1931.42 323.957 1905.95 316 1878.56 316V376ZM1850.88 384.887C1855.16 380.31 1862.75 376 1878.56 376V316C1851.17 316 1825.7 323.957 1807.05 343.913L1850.88 384.887ZM1841.76 416.4C1841.76 399.009 1846.14 389.952 1850.88 384.887L1807.05 343.913C1788.85 363.382 1781.76 388.991 1781.76 416.4H1841.76ZM1841.76 563.6V416.4H1781.76V563.6H1841.76ZM1850.88 595.113C1846.14 590.048 1841.76 580.991 1841.76 563.6H1781.76C1781.76 591.009 1788.85 616.618 1807.05 636.087L1850.88 595.113ZM1878.56 624C1892.46 624 1907.79 619.519 1918.79 606.206C1928.88 593.991 1931.36 578.979 1931.36 566.4H1871.36C1871.36 569.033 1871.08 570.271 1871.01 570.51C1870.97 570.679 1871.25 569.541 1872.53 567.994C1873.91 566.324 1875.68 565.115 1877.31 564.454C1878.76 563.869 1879.4 564 1878.56 564V624ZM1825.76 566.4C1825.76 578.979 1828.24 593.991 1838.33 606.206C1849.33 619.519 1864.67 624 1878.56 624V564C1877.73 564 1878.36 563.869 1879.81 564.454C1881.45 565.115 1883.21 566.324 1884.59 567.994C1885.87 569.541 1886.16 570.679 1886.11 570.51C1886.04 570.271 1885.76 569.033 1885.76 566.4H1825.76ZM1825.76 413.6V566.4H1885.76V413.6H1825.76ZM1878.56 356C1864.67 356 1849.33 360.481 1838.33 373.793C1828.24 386.009 1825.76 401.021 1825.76 413.6H1885.76C1885.76 410.967 1886.04 409.729 1886.11 409.489C1886.16 409.321 1885.87 410.459 1884.59 412.006C1883.21 413.676 1881.45 414.885 1879.81 415.546C1878.36 416.131 1877.73 416 1878.56 416V356ZM1931.36 413.6C1931.36 401.021 1928.88 386.009 1918.79 373.793C1907.79 360.481 1892.46 356 1878.56 356V416C1879.4 416 1878.76 416.131 1877.31 415.546C1875.68 414.885 1873.91 413.676 1872.53 412.006C1871.25 410.459 1870.97 409.321 1871.01 409.489C1871.08 409.729 1871.36 410.967 1871.36 413.6H1931.36ZM1931.36 566.4V413.6H1871.36V566.4H1931.36Z" fill="white" mask="url(#path-3-outside-2_13_55)"/>
</svg>
